<svg width="102" height="34" viewBox="0 0 102 34" fill="none" xmlns="http://www.w3.org/2000/svg">
<path d="M5.44726 1H96.8745C99.1046 1 100.917 2.7216 100.917 4.84V29.16C100.917 31.2784 99.1046 33 96.8745 33H5.44726C3.21716 33 1.40479 31.2784 1.40479 29.16V4.84C1.40479 2.7216 3.21716 1 5.44726 1Z" fill="white" stroke="black"/>
<path d="M23.2074 16.1707C23.1872 13.8874 25.1873 12.7776 25.2752 12.7266C24.1399 11.1704 22.383 10.9535 21.7681 10.9344C20.295 10.7877 18.8624 11.7699 18.1124 11.7699C17.3488 11.7699 16.1865 10.9535 14.9431 10.9726C13.3416 10.9981 11.8347 11.8719 11.0171 13.2368C9.321 16.0112 10.5846 20.0932 12.2132 22.3382C13.0308 23.4352 13.9768 24.6662 15.227 24.6215C16.4433 24.5769 16.9028 23.8881 18.3691 23.8881C19.8287 23.8881 20.2545 24.6215 21.5248 24.596C22.8358 24.5769 23.6534 23.4926 24.444 22.3829C25.3833 21.1264 25.7617 19.8827 25.7752 19.8189C25.7415 19.8062 23.2345 18.9005 23.2074 16.1707Z" fill="black"/>
<path d="M20.8084 9.46104C21.4639 8.6893 21.9099 7.63693 21.7882 6.56543C20.8422 6.6037 19.6529 7.18409 18.9704 7.94308C18.369 8.61276 17.8284 9.7034 17.9636 10.7303C19.0312 10.8068 20.1259 10.22 20.8084 9.46104Z" fill="black"/>
<path fill-rule="evenodd" clip-rule="evenodd" d="M39.3291 24.6065H41.0236L37.8161 15.0625H35.8391L32.645 24.6065H34.2925L35.1734 21.8021H38.4011L39.3291 24.6065ZM37.2849 18.1383L38.1254 20.6261H35.4558L36.2829 18.1383C36.4981 17.35 36.6528 16.749 36.7536 16.3419H36.7873C37.0293 17.2853 37.1974 17.8798 37.2849 18.1383Z" fill="black"/>
<path fill-rule="evenodd" clip-rule="evenodd" d="M48.239 23.8569C48.9047 23.1784 49.2342 22.2544 49.2342 21.0848C49.2342 20.0315 48.9518 19.1915 48.3735 18.5453C47.8086 17.9056 47.1093 17.5825 46.262 17.5825C45.1861 17.5825 44.3792 17.9961 43.848 18.8167H43.8211L43.7336 17.7247H42.335C42.3753 18.5001 42.3955 19.2497 42.3955 19.9863V27.3979H43.9892V23.7858C44.4061 24.4384 45.0852 24.7615 46.0334 24.7615C46.9076 24.7615 47.6472 24.4643 48.239 23.8569ZM47.1429 19.4823C47.459 19.9152 47.6136 20.4645 47.6136 21.1365C47.6136 21.8667 47.4455 22.4482 47.1093 22.8941C46.7731 23.3335 46.3091 23.5596 45.7106 23.5596C45.1996 23.5596 44.7826 23.3852 44.4666 23.0427C44.1505 22.7002 43.9892 22.2738 43.9892 21.7762V20.626C43.9892 20.5032 44.0161 20.3481 44.0631 20.1608C44.1573 19.7537 44.3725 19.4306 44.6885 19.1786C45.0113 18.933 45.3677 18.8038 45.7577 18.8038C46.336 18.8038 46.8 19.03 47.1429 19.4823Z" fill="black"/>
<path fill-rule="evenodd" clip-rule="evenodd" d="M56.4697 23.8569C57.1354 23.1784 57.4649 22.2544 57.4649 21.0848C57.4649 20.0315 57.1825 19.1915 56.6042 18.5453C56.0393 17.9056 55.34 17.5825 54.4927 17.5825C53.4168 17.5825 52.6099 17.9961 52.0787 18.8167H52.0518L51.9643 17.7247H50.5657C50.606 18.5001 50.6262 19.2497 50.6262 19.9863V27.3979H52.2199V23.7858C52.6368 24.4384 53.316 24.7615 54.2641 24.7615C55.1383 24.7615 55.878 24.4643 56.4697 23.8569ZM55.3736 19.4823C55.6897 19.9152 55.8443 20.4645 55.8443 21.1365C55.8443 21.8667 55.6829 22.4482 55.34 22.8941C55.0105 23.3335 54.5398 23.5596 53.9413 23.5596C53.4303 23.5596 53.0134 23.3852 52.6973 23.0427C52.3813 22.7002 52.2199 22.2738 52.2199 21.7762V20.626C52.2199 20.5032 52.2468 20.3481 52.2938 20.1608C52.3947 19.7537 52.6032 19.4306 52.9192 19.1786C53.242 18.933 53.5984 18.8038 53.9884 18.8038C54.5667 18.8038 55.0307 19.03 55.3736 19.4823Z" fill="black"/>
<path d="M66.6772 21.9313C66.6772 22.7455 66.3814 23.4046 65.7963 23.9151C65.1508 24.4708 64.2497 24.7486 63.0931 24.7486C62.024 24.7486 61.17 24.5483 60.5244 24.1541L60.8943 22.8812C61.5936 23.2753 62.3602 23.4757 63.194 23.4757C63.7925 23.4757 64.2632 23.3464 64.5927 23.088C64.9289 22.8295 65.097 22.4805 65.097 22.0476C65.097 21.6599 64.9558 21.3368 64.6868 21.0719C64.4111 20.807 63.9539 20.5614 63.315 20.3352C61.56 19.7085 60.6925 18.7973 60.6925 17.6019C60.6925 16.8201 61.0018 16.1803 61.6138 15.6763C62.2257 15.1788 63.0393 14.9268 64.0547 14.9268C64.9558 14.9268 65.7089 15.0754 66.3074 15.3791L65.9039 16.6197C65.3391 16.329 64.707 16.1803 63.9942 16.1803C63.4361 16.1803 62.9923 16.316 62.6762 16.5745C62.414 16.8136 62.2795 17.0979 62.2795 17.4404C62.2795 17.8152 62.4341 18.1318 62.7367 18.3709C62.999 18.597 63.4832 18.8426 64.1825 19.1075C65.0365 19.4371 65.6619 19.8248 66.0653 20.2706C66.4755 20.7165 66.6772 21.2722 66.6772 21.9313Z" fill="black"/>
<path d="M71.9492 18.8748H70.1941V22.2155C70.1941 23.062 70.5035 23.4885 71.1221 23.4885C71.4045 23.4885 71.6399 23.4626 71.8282 23.4174L71.8752 24.5805C71.5592 24.6903 71.149 24.7485 70.638 24.7485C70.0059 24.7485 69.5217 24.5611 69.1653 24.1928C68.8089 23.8245 68.6341 23.2041 68.6341 22.3383V18.8683H67.5918V17.7246H68.6341V16.4645L70.1941 16.0122V17.7246H71.9492V18.8748Z" fill="black"/>
<path fill-rule="evenodd" clip-rule="evenodd" d="M78.9022 23.7146C79.5276 23.0361 79.8436 22.1702 79.8436 21.1105C79.8436 20.0831 79.541 19.2431 78.9291 18.5969C78.2903 17.9249 77.443 17.5889 76.394 17.5889C75.3047 17.5889 74.4372 17.9313 73.7917 18.6098C73.1528 19.2883 72.8301 20.1606 72.8301 21.2268C72.8301 22.2478 73.1394 23.0943 73.7648 23.7598C74.3901 24.4254 75.2307 24.7614 76.2797 24.7614C77.369 24.7614 78.2432 24.4125 78.9022 23.7146ZM77.7725 19.5209C78.0549 19.9733 78.1962 20.5096 78.1962 21.1428C78.1962 21.7761 78.0482 22.3189 77.7591 22.7841C77.4094 23.3398 76.932 23.6177 76.3268 23.6177C75.7081 23.6177 75.224 23.3463 74.881 22.797C74.5986 22.3512 74.4574 21.8084 74.4574 21.1751C74.4574 20.5225 74.5919 19.9733 74.881 19.5209C75.2105 18.9717 75.7014 18.7003 76.3402 18.7003C76.9589 18.7003 77.4363 18.9717 77.7725 19.5209Z" fill="black"/>
<path d="M85.0215 19.0687C84.8669 19.0429 84.6987 19.03 84.5172 19.03C83.9591 19.03 83.522 19.2303 83.2194 19.6374C82.9571 19.9928 82.8226 20.4515 82.8226 20.9943V24.6064H81.229V19.8894C81.229 19.0946 81.2155 18.3709 81.1819 17.7247H82.5671L82.6276 19.0429H82.6747C82.8428 18.5906 83.1051 18.2222 83.4682 17.9508C83.8246 17.7053 84.2079 17.5825 84.6181 17.5825C84.766 17.5825 84.9005 17.5954 85.0148 17.6084L85.0215 19.0687Z" fill="black"/>
<path fill-rule="evenodd" clip-rule="evenodd" d="M92.0753 21.5305C92.1157 21.3431 92.1358 21.1105 92.1358 20.8391C92.1358 19.9797 91.9207 19.2624 91.497 18.6679C90.9725 17.9313 90.1858 17.563 89.1569 17.563C88.1079 17.563 87.2741 17.9313 86.6554 18.6679C86.0637 19.3594 85.7678 20.2252 85.7678 21.2591C85.7678 22.3124 86.0839 23.1589 86.716 23.7857C87.3481 24.4124 88.2222 24.7291 89.3318 24.7291C90.253 24.7291 91.0532 24.5869 91.7324 24.3026L91.4836 23.2429C90.9053 23.4561 90.2597 23.566 89.5537 23.566C88.9148 23.566 88.3971 23.4044 87.9936 23.0878C87.5498 22.7324 87.3212 22.209 87.301 21.5305H92.0753ZM90.3068 19.2689C90.522 19.5984 90.6296 19.9926 90.6161 20.4449L87.3077 20.4385C87.3548 19.9797 87.5162 19.5791 87.7784 19.2495C88.1012 18.836 88.5248 18.6292 89.0426 18.6292C89.6075 18.6292 90.0311 18.8424 90.3068 19.2689Z" fill="black"/>
<path fill-rule="evenodd" clip-rule="evenodd" d="M36.4012 12.0338H37.2334L35.6496 7.28467H34.6832L33.1196 12.0338H33.9249L34.3611 10.6405H35.9449L36.4012 12.0338ZM35.3946 8.80884L35.8039 10.0517H34.4953L34.898 8.80884C34.9763 8.53477 35.0325 8.31007 35.0775 8.13051C35.0979 8.04864 35.1161 7.97616 35.1329 7.91265H35.1463C35.1609 7.96666 35.1749 8.01842 35.1883 8.06794C35.2917 8.45033 35.3589 8.69881 35.3946 8.80884Z" fill="black"/>
<path d="M41.1524 8.60596L39.8237 12.0337H39.0653L37.7769 8.60596H38.6157L39.213 10.418C39.3136 10.7189 39.4009 11.0067 39.468 11.2814H39.4881C39.5485 11.0329 39.6357 10.745 39.7431 10.418L40.3337 8.60596H41.1524" fill="black"/>
<path fill-rule="evenodd" clip-rule="evenodd" d="M43.9241 11.641L43.9845 12.0335L44.6891 12.0466C44.6488 11.8438 44.6354 11.5756 44.6354 11.2289V9.96639C44.6354 9.01787 44.1724 8.54688 43.253 8.54688C42.7765 8.54688 42.3672 8.645 42.0451 8.84124L42.2061 9.3384C42.4745 9.16832 42.7765 9.08328 43.1255 9.08328C43.6087 9.08328 43.857 9.30569 43.857 9.75706V9.82247C42.5551 9.82247 41.8035 10.2608 41.8035 11.1046C41.8035 11.6803 42.2464 12.112 42.8772 12.112C43.3201 12.112 43.6624 11.955 43.9039 11.641H43.9241ZM42.5752 11.0196C42.5752 10.529 43.0114 10.3262 43.8771 10.3262V10.856C43.8771 11.2616 43.508 11.556 43.1121 11.556C42.7967 11.556 42.5752 11.3794 42.5752 11.0196Z" fill="black"/>
<path fill-rule="evenodd" clip-rule="evenodd" d="M45.9104 7.58564C45.9104 7.8473 46.1216 8.04355 46.3962 8.04355C46.699 8.04355 46.9102 7.86039 46.9102 7.58564C46.9173 7.32398 46.692 7.13428 46.4103 7.13428C46.1287 7.13428 45.9104 7.32398 45.9104 7.58564ZM46.8187 12.0273V8.60612H46.0019V12.0273H46.8187Z" fill="black"/>
<path d="M48.1653 7.03613H48.9437V12.0273H48.1653V7.03613Z" fill="black"/>
<path fill-rule="evenodd" clip-rule="evenodd" d="M52.1985 11.6412L52.2589 12.0337V12.0402H52.9568C52.9233 11.8375 52.9098 11.5693 52.9098 11.2226V9.96004C52.9098 9.01152 52.4468 8.54053 51.5274 8.54053C51.0509 8.54053 50.6416 8.63865 50.3195 8.8349L50.4805 9.33859C50.749 9.16851 51.0509 9.08347 51.3999 9.08347C51.8831 9.08347 52.1314 9.30589 52.1314 9.75725V9.82267C50.8295 9.82267 50.0779 10.2609 50.0779 11.1048C50.0779 11.6805 50.5208 12.1122 51.1516 12.1122C51.5945 12.1122 51.9368 11.9552 52.1784 11.6412H52.1985ZM50.8496 11.0198C50.8496 10.5292 51.2858 10.3264 52.1515 10.3264V10.8562C52.1515 11.2618 51.7824 11.5562 51.3865 11.5562C51.0711 11.5562 50.8496 11.3796 50.8496 11.0198Z" fill="black"/>
<path fill-rule="evenodd" clip-rule="evenodd" d="M54.9699 11.504C55.2115 11.9096 55.5806 12.1124 56.0772 12.1124C56.9697 12.1124 57.6274 11.3339 57.6274 10.2742C57.6274 9.24717 57.0368 8.54068 56.1912 8.54068C55.6745 8.54068 55.3054 8.73039 55.0705 9.1098H55.0571V7.03613H54.272V11.1115C54.272 11.4517 54.2652 11.7591 54.2451 12.0339H54.9095L54.9565 11.504H54.9699ZM55.0571 10.0452C55.0571 9.51537 55.4665 9.13596 55.9161 9.13596C56.4731 9.13596 56.8355 9.60695 56.8355 10.3004C56.8355 11.0395 56.4865 11.504 55.9027 11.504C55.4262 11.504 55.0571 11.118 55.0571 10.6471V10.0452Z" fill="black"/>
<path d="M58.7817 7.03613H59.5602V12.0273H58.7817V7.03613Z" fill="black"/>
<path fill-rule="evenodd" clip-rule="evenodd" d="M61.466 10.5029H63.808C63.8349 10.4113 63.8416 10.2936 63.8416 10.1562C63.8416 9.17496 63.2712 8.52734 62.3786 8.52734C61.3787 8.52734 60.7144 9.31887 60.7144 10.3655C60.7144 11.4187 61.3653 12.0925 62.4659 12.0925C62.9222 12.0925 63.3114 12.0271 63.6403 11.8831L63.5195 11.3533C63.2376 11.4579 62.9222 11.5168 62.5732 11.5168C61.9223 11.5168 61.4794 11.1505 61.466 10.5029ZM62.3249 9.05721C62.8215 9.05721 63.0967 9.43007 63.0967 9.95994H61.4727C61.5264 9.43662 61.8753 9.05721 62.3249 9.05721Z" fill="black"/>
<path fill-rule="evenodd" clip-rule="evenodd" d="M66.8481 10.3525C66.8481 11.3665 67.5125 12.1122 68.5393 12.1122C69.5929 12.1122 70.2908 11.3599 70.2908 10.2937C70.2908 9.25355 69.613 8.54053 68.5997 8.54053C67.5259 8.54053 66.8481 9.2928 66.8481 10.3525ZM67.6467 10.3264C67.6467 9.61334 68.0091 9.09656 68.5728 9.09656C69.1231 9.09656 69.4788 9.61334 69.4855 10.3067C69.4855 10.9936 69.1164 11.5431 68.5661 11.5431C68.0158 11.5431 67.6467 11.0328 67.6467 10.3264Z" fill="black"/>
<path d="M74.4849 12.0339H73.7065V10.0649C73.7065 9.45654 73.4649 9.15562 72.9951 9.15562C72.5321 9.15562 72.2167 9.54157 72.2167 9.99294V12.0274H71.4382V9.58737C71.4382 9.28646 71.4315 8.95938 71.4114 8.60614H72.0959L72.1294 9.136H72.1496C72.3576 8.76967 72.7871 8.53418 73.2636 8.53418C74.0017 8.53418 74.4849 9.08367 74.4849 9.97986V12.0339Z" fill="black"/>
<path d="M79.5919 9.18142H78.7329V10.843C78.7329 11.2682 78.8873 11.4775 79.1893 11.4775C79.3235 11.4775 79.4443 11.4644 79.5382 11.4448L79.5584 12.0204C79.404 12.0793 79.2027 12.1055 78.9544 12.1055C78.337 12.1055 77.9746 11.7719 77.9746 10.9084V9.18142H77.4646V8.61231H77.9746V7.98432L78.7397 7.75537V8.60577H79.5986V9.18142" fill="black"/>
<path d="M83.7259 12.0339H82.9475V10.0779C82.9475 9.46304 82.7059 9.15559 82.2361 9.15559C81.8335 9.15559 81.4577 9.42379 81.4577 9.96674V12.0273H80.6792V7.03613H81.4577V9.09017H81.4711C81.7194 8.71731 82.0683 8.53414 82.5247 8.53414C83.2696 8.53414 83.7259 9.09671 83.7259 9.9929V12.0339Z" fill="black"/>
<path fill-rule="evenodd" clip-rule="evenodd" d="M85.37 10.5029H87.7121C87.7389 10.4113 87.7456 10.2936 87.7456 10.1562C87.7456 9.17496 87.1752 8.52734 86.2827 8.52734C85.2828 8.52734 84.6184 9.31887 84.6184 10.3655C84.6184 11.4187 85.2694 12.0925 86.3699 12.0925C86.8263 12.0925 87.2155 12.0271 87.5443 11.8831L87.4235 11.3533C87.1417 11.4579 86.8263 11.5168 86.4773 11.5168C85.8264 11.5168 85.3834 11.1505 85.37 10.5029ZM86.229 9.05721C86.7256 9.05721 87.0007 9.43007 87.0007 9.95994H85.3767C85.4237 9.43662 85.7794 9.05721 86.229 9.05721Z" fill="black"/>
</svg>
