<svg width="100" height="32" viewBox="0 0 100 32" fill="none" xmlns="http://www.w3.org/2000/svg">
<path d="M99.728 27.6752C99.728 30.0633 97.7586 32 95.3293 32H4.59936C2.16992 32.0002 0.199707 30.0635 0.199707 27.6752V4.3244C0.199707 1.93651 2.16992 0 4.59936 0H95.3291C97.7584 0 99.7278 1.93651 99.7278 4.3244V27.6752H99.728Z" fill="black"/>
<mask id="mask0_0_1712" style="mask-type:luminance" maskUnits="userSpaceOnUse" x="7" y="6" width="20" height="22">
<path fill-rule="evenodd" clip-rule="evenodd" d="M21.4381 14.0047L16.9326 11.4862C16.9326 11.4862 8.72464 6.8972 8.2421 6.62747C7.75957 6.35774 7.27881 6.52117 7.27881 7.08484V26.8796C7.27881 27.3022 7.62242 27.4843 8.04165 27.2501C8.46068 27.0156 16.9326 22.2795 16.9326 22.2795L21.4379 19.7611C21.4379 19.7611 25.2605 17.6243 25.7686 17.3404C26.2768 17.0561 26.2279 16.6664 25.7991 16.4429C25.3705 16.2191 21.4381 14.0047 21.4381 14.0047Z" fill="white"/>
</mask>
<g mask="url(#mask0_0_1712)">
<path d="M7.27905 6.16699V27.5983L18.4404 16.8827L7.27905 6.16699Z" fill="url(#paint0_linear_0_1712)"/>
</g>
<mask id="mask1_0_1712" style="mask-type:luminance" maskUnits="userSpaceOnUse" x="7" y="6" width="20" height="22">
<path fill-rule="evenodd" clip-rule="evenodd" d="M21.4381 14.0047L16.9326 11.4862C16.9326 11.4862 8.72464 6.8972 8.2421 6.62747C7.75957 6.35774 7.27881 6.52117 7.27881 7.08484V26.8796C7.27881 27.3022 7.62242 27.4843 8.04165 27.2501C8.46068 27.0156 16.9326 22.2795 16.9326 22.2795L21.4379 19.7611C21.4379 19.7611 25.2605 17.6243 25.7686 17.3404C26.2768 17.0561 26.2279 16.6664 25.7991 16.4429C25.3705 16.2191 21.4381 14.0047 21.4381 14.0047Z" fill="white"/>
</mask>
<g mask="url(#mask1_0_1712)">
<path d="M21.4381 14.0047L16.9327 11.4862L7.27905 6.08936V6.16729L18.4404 16.883L21.4381 14.0047Z" fill="url(#paint1_linear_0_1712)"/>
</g>
<mask id="mask2_0_1712" style="mask-type:luminance" maskUnits="userSpaceOnUse" x="7" y="6" width="20" height="22">
<path fill-rule="evenodd" clip-rule="evenodd" d="M21.4381 14.0047L16.9326 11.4862C16.9326 11.4862 8.72464 6.8972 8.2421 6.62747C7.75957 6.35774 7.27881 6.52117 7.27881 7.08484V26.8796C7.27881 27.3022 7.62242 27.4843 8.04165 27.2501C8.46068 27.0156 16.9326 22.2795 16.9326 22.2795L21.4379 19.7611C21.4379 19.7611 25.2605 17.6243 25.7686 17.3404C26.2768 17.0561 26.2279 16.6664 25.7991 16.4429C25.3705 16.2191 21.4381 14.0047 21.4381 14.0047Z" fill="white"/>
</mask>
<g mask="url(#mask2_0_1712)">
<path d="M7.27905 27.5984V27.6763L16.9327 22.2793L21.4379 19.7607L18.4404 16.8828L7.27905 27.5984Z" fill="url(#paint2_linear_0_1712)"/>
</g>
<mask id="mask3_0_1712" style="mask-type:luminance" maskUnits="userSpaceOnUse" x="7" y="6" width="20" height="22">
<path fill-rule="evenodd" clip-rule="evenodd" d="M21.4381 14.0047L16.9326 11.4862C16.9326 11.4862 8.72464 6.8972 8.2421 6.62747C7.75957 6.35774 7.27881 6.52117 7.27881 7.08484V26.8796C7.27881 27.3022 7.62242 27.4843 8.04165 27.2501C8.46068 27.0156 16.9326 22.2795 16.9326 22.2795L21.4379 19.7611C21.4379 19.7611 25.2605 17.6243 25.7686 17.3404C26.2768 17.0561 26.2279 16.6664 25.7991 16.4429C25.3705 16.2191 21.4381 14.0047 21.4381 14.0047Z" fill="white"/>
</mask>
<g mask="url(#mask3_0_1712)">
<path d="M21.4381 14.0044L18.4404 16.8827L21.4379 19.7606L26.5869 16.8825L21.4381 14.0044Z" fill="url(#paint3_linear_0_1712)"/>
</g>
<path fill-rule="evenodd" clip-rule="evenodd" d="M39.1984 20.9798L39.1985 20.9798V20.9798H39.1984ZM37.2718 21.409L39.1984 20.9798H39.1981V19.3926C39.1981 19.2626 39.2108 18.8851 39.2248 18.7678C39.2517 18.6648 39.2647 18.6385 39.3597 18.5601L39.7097 18.235H36.8535L35.7763 18.7949L37.8101 18.6909V20.7843C37.4056 20.9407 36.962 21.1095 36.0989 21.1095C33.1628 21.1095 31.3303 18.8075 31.3303 16.3631C31.3303 14.0874 32.9337 12.526 35.0624 12.526C36.6408 12.526 37.4762 13.3087 37.936 13.7394L37.9452 13.748L37.6085 14.2684L38.0798 14.1648L39.1983 13.1374C39.1809 13.126 39.1629 13.114 39.1442 13.1016C38.8445 12.9026 38.3709 12.5882 37.42 12.3311C36.7869 12.1619 36.0871 12.0581 35.3593 12.0581C31.9237 12.0581 29.9167 14.3985 29.9167 16.9213C29.9167 18.9893 31.3307 21.6296 35.0493 21.6296C35.7899 21.6296 36.4901 21.5263 37.2718 21.409ZM40.222 18.1294C40.222 19.5785 41.3612 21.1827 43.4918 21.1827C45.6761 21.1827 46.8951 19.5649 46.8949 18.0391C46.8949 16.4735 45.6623 14.9864 43.6929 14.9864C41.656 14.9864 40.222 16.4345 40.222 18.1294ZM47.4852 18.1294C47.4852 19.5785 48.6242 21.1827 50.7543 21.1827C52.939 21.1827 54.1579 19.5649 54.1577 18.0391C54.1577 16.4735 52.9248 14.9864 50.9561 14.9864C48.9186 14.9864 47.4852 16.4345 47.4852 18.1294ZM90.0341 15.0612H88.9923L91.5799 21.2904L91.2229 22.1719C90.9377 22.8955 90.4619 23.2572 89.7944 23.2572C89.5289 23.2572 89.2887 23.2345 89.0741 23.1894V23.941C89.3633 24.0049 89.6559 24.0369 89.9527 24.0369C90.483 24.0369 90.931 23.8912 91.2958 23.5994C91.6611 23.3069 91.9803 22.8123 92.2533 22.1152L95.0111 15.0612H93.9685C93.0711 17.4578 92.5411 18.8883 92.3791 19.3538C92.2174 19.8197 92.1109 20.1481 92.0601 20.3406H92.0134C91.939 19.9825 91.7476 19.4004 91.4393 18.5939L90.0341 15.0612ZM60.1562 17.3864C60.1562 16.4013 59.5124 15.8836 59.2038 15.6371H60.0353L60.8943 15.1706H58.1303C57.4049 15.1706 56.4924 15.2746 55.7271 15.8835C55.1507 16.3624 54.8685 17.0236 54.8685 17.6197C54.8685 18.6298 55.6737 19.6535 57.0958 19.6535C57.2302 19.6535 57.3776 19.6405 57.5258 19.6274L57.5054 19.6744C57.446 19.811 57.3916 19.9357 57.3916 20.1333C57.3916 20.5174 57.5882 20.7596 57.7705 20.9841L57.7943 21.0135L57.7534 21.0162C57.1408 21.0564 56.0442 21.1283 55.2311 21.6098C54.4381 22.0638 54.1976 22.7243 54.1976 23.1905C54.1976 24.1499 55.1366 25.0436 57.083 25.0436C59.3909 25.0436 60.6123 23.8132 60.6123 22.5953C60.6123 21.701 60.076 21.2601 59.4856 20.7805L59.0022 20.4185L58.998 20.4151C58.8502 20.2987 58.6529 20.1433 58.6529 19.8616C58.6529 19.5874 58.8388 19.4086 59.0081 19.2458L59.0287 19.226C59.5925 18.799 60.1562 18.3446 60.1562 17.3864ZM57.9421 21.3765C58.0757 21.3765 58.1431 21.3765 58.2504 21.39C59.2708 22.09 59.7138 22.4383 59.7138 23.1005C59.7138 23.903 59.0285 24.5003 57.741 24.5003C56.3048 24.5003 55.3783 23.8385 55.3783 22.919C55.3783 21.9986 56.2374 21.6876 56.5326 21.5848C57.0956 21.403 57.8214 21.3765 57.9421 21.3765ZM58.6398 18.9278C58.9481 18.6295 58.9746 18.2153 58.9746 17.9818C58.9746 17.0491 58.3978 15.598 57.2841 15.598C56.9348 15.598 56.5593 15.7662 56.3445 16.0257C56.1167 16.2977 56.0489 16.6472 56.0489 16.9845C56.0489 17.8524 56.5724 19.2908 57.7271 19.2908C58.0627 19.2908 58.4243 19.1354 58.6398 18.9278ZM52.4291 20.135C52.7511 19.7206 52.8316 19.2034 52.8316 18.6985C52.8316 17.5597 52.2688 15.3868 50.6071 15.3868C50.1651 15.3868 49.723 15.5553 49.4015 15.8275C48.8789 16.2796 48.7846 16.8491 48.7846 17.406C48.7846 18.6857 49.4413 20.7937 51.063 20.7937C51.5855 20.7937 52.1215 20.5484 52.4291 20.135ZM45.1669 20.135C45.4884 19.7206 45.569 19.2034 45.569 18.6985C45.569 17.5597 45.0058 15.3868 43.3441 15.3868C42.9023 15.3868 42.4599 15.5553 42.1386 15.8275C41.6159 16.2796 41.5222 16.8491 41.5222 17.406C41.5222 18.6857 42.1785 20.7937 43.8004 20.7937C44.3231 20.7937 44.8588 20.5484 45.1669 20.135Z" fill="#F9F9F9"/>
<path fill-rule="evenodd" clip-rule="evenodd" d="M63.8879 20.7164C63.4466 20.676 63.3542 20.5959 63.3542 20.0717V12.473C63.3556 12.4589 63.3566 12.4447 63.3577 12.4306L63.3577 12.4305L63.3577 12.4305C63.3589 12.4156 63.36 12.4008 63.3614 12.3864C63.4153 11.9168 63.5488 11.8362 63.9636 11.5942H62.0516L61.0488 12.0777H62.0707V12.0837L62.07 12.0788V20.3675C62.07 20.6104 62.0266 20.6666 61.7894 20.9745C61.7648 21.0064 61.7382 21.0409 61.7094 21.0786H64.0756L64.5702 20.7839C64.4526 20.7696 64.3349 20.7592 64.2172 20.7487L64.2171 20.7487C64.1074 20.739 63.9977 20.7293 63.8879 20.7164ZM69.3269 20.8398C69.2793 20.8661 69.2317 20.8937 69.184 20.9214C69.086 20.9784 68.9878 21.0354 68.8899 21.0799C68.4511 21.2798 67.9999 21.3334 67.6009 21.3334C67.1772 21.3334 66.5129 21.3058 65.8353 20.8131C64.8936 20.1458 64.4821 18.9993 64.4821 17.9996C64.4821 15.9333 66.1545 14.9201 67.5217 14.9201C67.9997 14.9201 68.4915 15.0398 68.8897 15.2937C69.5527 15.7327 69.7253 16.3059 69.8177 16.6128L69.8177 16.6129L66.699 17.8801L65.6767 17.96C66.0081 19.6533 67.1496 20.6392 68.4111 20.6392C69.0879 20.6392 69.5793 20.3997 70.0305 20.1734L69.3269 20.8398ZM68.464 16.5062C68.464 16.6927 68.3313 16.7731 68.0796 16.866L65.6636 17.9202C65.659 17.8392 65.6529 17.7583 65.6468 17.678L65.6468 17.678L65.6468 17.6779C65.6349 17.5195 65.6232 17.3633 65.6232 17.2128C65.6232 15.7732 66.618 15.3596 67.1496 15.3596C67.867 15.3596 68.464 15.9733 68.464 16.5062ZM70.6082 15.0113V15.891H70.5017V15.0113H70.2119V14.92H70.8978V15.0113H70.6082ZM71.8022 15.0031V15.891H71.8979V14.9201H71.73L71.4875 15.7049H71.484L71.2378 14.9201H71.0723V15.891H71.1689V15.0031H71.1724L71.4444 15.891H71.5277L71.7974 15.0031H71.8022Z" fill="#F9F9F9"/>
<path fill-rule="evenodd" clip-rule="evenodd" d="M44.1484 7.82897C44.1484 8.2452 44.0168 8.59038 43.7535 8.86438C43.4902 9.13821 43.1647 9.27528 42.777 9.27528C42.4073 9.27528 42.0979 9.14955 41.8488 8.89789C41.5995 8.64643 41.475 8.32662 41.475 7.93899C41.475 7.52278 41.6066 7.17758 41.8699 6.90358C42.1331 6.62977 42.4586 6.49268 42.8464 6.49268C43.2161 6.49268 43.5254 6.61803 43.7746 6.86893C44.0239 7.11984 44.1484 7.43967 44.1484 7.82897ZM38.3314 7.78621C38.3314 8.17135 38.204 8.50766 37.9493 8.79511C37.6943 9.08274 37.3373 9.22627 36.8781 9.22627C36.6709 9.22627 36.3853 9.21811 36.0213 9.20183C36.0394 8.79226 36.0487 8.33041 36.0487 7.8167C36.0487 7.32323 36.0395 6.9021 36.0213 6.55348H36.3888C36.449 6.55348 36.5386 6.55139 36.6576 6.54742C36.7765 6.54344 36.8543 6.54136 36.8906 6.54136C37.396 6.54136 37.7624 6.66349 37.9901 6.90757C38.2177 7.15166 38.3314 7.4444 38.3314 7.78621ZM32.5798 9.20202H31.9077C31.9077 9.11245 31.8439 8.8589 31.7165 8.44118H30.7462C30.6147 8.85209 30.5488 9.10562 30.5488 9.20202H29.9167C29.9167 9.14917 30.0802 8.71516 30.4071 7.90019C30.7339 7.08519 30.8974 6.63621 30.8974 6.55366H31.6913C31.6913 6.63092 31.8392 7.07326 32.1354 7.88087C32.4316 8.68848 32.5798 9.12874 32.5798 9.20202ZM31.6095 8.05262C31.3701 7.35293 31.2504 6.97461 31.2504 6.91759H31.2168C31.2168 6.97044 31.0928 7.34876 30.8452 8.05262H31.6095ZM34.7691 9.20202H35.2878C35.268 8.78827 35.2583 8.32662 35.2585 7.81707C35.2585 7.3113 35.2681 6.89017 35.2878 6.55387H34.7627C34.7822 6.94035 34.792 7.31756 34.792 7.6849C34.792 7.92499 34.8089 8.19617 34.8425 8.49857H34.811C34.7564 8.30865 34.5449 7.94716 34.1768 7.41431C33.831 6.9127 33.6582 6.62583 33.6582 6.55387H33.0345C33.0555 6.90096 33.066 7.32211 33.066 7.81707C33.066 8.3202 33.0554 8.78185 33.0345 9.20222H33.5512C33.5317 8.72088 33.5219 8.31262 33.5219 7.97765C33.5219 7.73753 33.5043 7.46902 33.4693 7.17212H33.5029C33.5588 7.37832 33.7885 7.7612 34.1916 8.32132C34.5766 8.85284 34.7691 9.14635 34.7691 9.20202ZM37.5231 7.21545C37.6798 7.39402 37.7582 7.61329 37.7582 7.87366C37.7582 8.13403 37.6853 8.35464 37.5405 8.53567C37.3956 8.71671 37.1727 8.8074 36.8717 8.8074C36.78 8.8073 36.6886 8.79842 36.5987 8.78089C36.5849 8.4622 36.5778 8.14086 36.5778 7.81668C36.5778 7.52108 36.5708 7.2378 36.5569 6.96646C36.6621 6.95416 36.7446 6.9481 36.8048 6.9481C37.1268 6.9481 37.3663 7.03727 37.5231 7.21545ZM41.1382 9.20202H40.5165C40.354 8.722 40.2295 8.42565 40.1427 8.31317C40.0559 8.20051 39.916 8.14427 39.7228 8.14427C39.6415 8.14427 39.5639 8.14503 39.4898 8.14635C39.4898 8.49497 39.496 8.84678 39.5087 9.20202H38.925C38.9432 8.79244 38.9524 8.3306 38.9524 7.81687C38.9524 7.32342 38.9432 6.90227 38.925 6.55366H39.2882C39.3302 6.55366 39.418 6.55158 39.5517 6.54761C39.6855 6.54363 39.809 6.54153 39.9224 6.54153C40.565 6.54153 40.8864 6.75437 40.8864 7.18025C40.8864 7.51787 40.703 7.75306 40.3363 7.88617V7.91666C40.4776 7.95453 40.6016 8.06152 40.7079 8.23686C40.814 8.4124 40.9575 8.73412 41.1382 9.20202ZM39.8131 6.92575C40.1715 6.92575 40.3507 7.06075 40.3507 7.33058C40.3507 7.63035 40.1281 7.78013 39.6829 7.77994C39.6298 7.77994 39.5647 7.77881 39.4876 7.77597C39.4876 7.43834 39.48 7.16434 39.4645 6.95416C39.5652 6.93522 39.6815 6.92575 39.8131 6.92575ZM43.3443 7.19824C43.4941 7.37453 43.569 7.60441 43.569 7.88788C43.569 8.1577 43.4974 8.38191 43.3547 8.5601C43.212 8.73849 43.0382 8.82767 42.8339 8.82767C42.6153 8.82767 42.431 8.73924 42.2804 8.5622C42.1299 8.38513 42.0547 8.15563 42.0547 7.87368C42.0547 7.60234 42.1264 7.37794 42.2691 7.20032C42.4118 7.0227 42.5854 6.93389 42.7899 6.93389C43.0097 6.93389 43.1944 7.02195 43.3443 7.19824ZM45.3358 9.20202H44.7415C44.7597 8.78165 44.7689 8.31999 44.7689 7.81687C44.7689 7.32189 44.7597 6.90076 44.7415 6.55366H45.3358C45.3177 6.89546 45.3085 7.3164 45.3085 7.81687C45.3085 8.32794 45.3177 8.78979 45.3358 9.20202ZM47.9975 8.79511C48.2522 8.50766 48.3797 8.17135 48.3797 7.78621C48.3797 7.4444 48.2659 7.15166 48.0384 6.90757C47.8106 6.66349 47.4443 6.54136 46.9389 6.54136C46.9025 6.54136 46.8248 6.54344 46.7059 6.54742C46.5868 6.55139 46.4973 6.55348 46.4371 6.55348H46.0695C46.0877 6.9021 46.0969 7.32323 46.0969 7.8167C46.0969 8.33041 46.0877 8.79226 46.0695 9.20183C46.4336 9.21811 46.7192 9.22627 46.9264 9.22627C47.3856 9.22627 47.7426 9.08274 47.9975 8.79511ZM47.8065 7.87366C47.8065 7.61329 47.7281 7.39402 47.5713 7.21545C47.4145 7.03727 47.1751 6.9481 46.8531 6.9481C46.7929 6.9481 46.7104 6.95416 46.6052 6.96646C46.6191 7.2378 46.6261 7.52108 46.6261 7.81668C46.6261 8.14086 46.6331 8.4622 46.647 8.78089C46.7368 8.79842 46.8283 8.8073 46.9199 8.8074C47.221 8.8074 47.4438 8.71671 47.5887 8.53567C47.7336 8.35464 47.8065 8.13403 47.8065 7.87366ZM51.7457 9.20202H52.4179C52.4179 9.12874 52.2695 8.68848 51.9735 7.88087C51.6775 7.07326 51.5293 6.63092 51.5293 6.55366H50.7354C50.7354 6.63621 50.572 7.08519 50.2451 7.90019C49.9182 8.71516 49.7548 9.14917 49.7548 9.20202H50.3866C50.3866 9.10562 50.4525 8.85209 50.5841 8.44118H51.5544C51.682 8.8589 51.7457 9.11245 51.7457 9.20202ZM51.4476 8.05262C51.2081 7.35293 51.0883 6.97461 51.0883 6.91759H51.0547C51.0547 6.97044 50.9309 7.34876 50.6832 8.05262H51.4476ZM54.4946 7.96514C54.7431 7.81062 54.8674 7.57127 54.8674 7.24709C54.8674 7.00983 54.7753 6.83316 54.5919 6.7165C54.4086 6.59985 54.1837 6.54153 53.9179 6.54153C53.81 6.54153 53.6827 6.54363 53.5357 6.54761C53.3886 6.55158 53.2893 6.55366 53.2375 6.55366H52.8722C52.8904 6.90757 52.8995 7.32871 52.8995 7.81687C52.8995 8.34838 52.8903 8.81024 52.8722 9.20202H53.4624C53.4469 8.7843 53.4393 8.44817 53.4393 8.19311C53.4675 8.19576 53.5142 8.19708 53.58 8.19708C53.9413 8.19708 54.2461 8.11965 54.4946 7.96514ZM54.3257 7.359C54.3257 7.06889 54.1269 6.92367 53.7292 6.92367C53.6297 6.92367 53.5248 6.93388 53.4143 6.95416C53.4297 7.21055 53.4374 7.50064 53.4374 7.82482C53.4723 7.82766 53.513 7.8288 53.5592 7.8288C54.0702 7.82897 54.3257 7.67239 54.3257 7.359ZM57.0136 7.96514C57.2618 7.81062 57.3862 7.57127 57.3862 7.24709C57.3862 7.00983 57.2941 6.83316 57.1107 6.7165C56.9273 6.59985 56.7025 6.54153 56.4367 6.54153C56.3287 6.54153 56.2015 6.54363 56.0545 6.54761C55.9074 6.55158 55.8082 6.55366 55.7563 6.55366H55.391C55.4091 6.90757 55.4183 7.32871 55.4183 7.81687C55.4183 8.34838 55.4091 8.81024 55.391 9.20202H55.9812C55.9657 8.7843 55.9581 8.44817 55.9581 8.19311C55.9862 8.19576 56.033 8.19708 56.0989 8.19708C56.4601 8.19708 56.7651 8.11965 57.0136 7.96514ZM56.8445 7.359C56.8445 7.06889 56.6456 6.92367 56.248 6.92367C56.1485 6.92367 56.0435 6.93388 55.9331 6.95416C55.9485 7.21055 55.9561 7.50064 55.9561 7.82482C55.9911 7.82766 56.0318 7.8288 56.0779 7.8288C56.5889 7.82897 56.8445 7.67239 56.8445 7.359ZM61.1094 8.86438C61.3727 8.59038 61.5043 8.2452 61.5043 7.82897C61.5043 7.43967 61.3796 7.11984 61.1305 6.86893C60.8814 6.61803 60.572 6.49268 60.2023 6.49268C59.8146 6.49268 59.4891 6.62958 59.2258 6.90358C58.9625 7.17758 58.8309 7.52278 58.8309 7.93899C58.8309 8.32662 58.9556 8.64643 59.2047 8.89789C59.4537 9.14955 59.7632 9.27528 60.1329 9.27528C60.5206 9.27528 60.8461 9.13838 61.1094 8.86438ZM60.9246 7.88788C60.9246 7.60441 60.8498 7.37453 60.7 7.19824C60.5503 7.02195 60.3653 6.93389 60.1456 6.93389C59.9411 6.93389 59.7675 7.0227 59.6248 7.20032C59.4821 7.37794 59.4105 7.60234 59.4105 7.87368C59.4105 8.15563 59.4858 8.38513 59.6363 8.5622C59.7868 8.73924 59.9712 8.82767 60.1896 8.82767C60.3941 8.82767 60.5677 8.73849 60.7104 8.56011C60.8533 8.38191 60.9246 8.1577 60.9246 7.88788ZM63.832 9.20202H64.3507C64.3311 8.78827 64.3214 8.32662 64.3214 7.81707C64.3214 7.3113 64.331 6.89017 64.3507 6.55387H63.8256C63.8452 6.94035 63.8549 7.31756 63.8549 7.6849C63.8549 7.92499 63.8718 8.19617 63.9054 8.49857H63.8739C63.8194 8.30865 63.608 7.94716 63.2397 7.41431C62.8941 6.9127 62.7211 6.62583 62.7211 6.55387H62.0974C62.1184 6.90096 62.1289 7.32211 62.1289 7.81707C62.1289 8.3202 62.1184 8.78185 62.0974 9.20222H62.6141C62.5946 8.72088 62.5848 8.31262 62.5848 7.97765C62.5848 7.73753 62.5672 7.46902 62.5322 7.17212H62.5658C62.6217 7.37832 62.8514 7.7612 63.2546 8.32132C63.6397 8.85284 63.832 9.14635 63.832 9.20202Z" fill="#F9F9FA"/>
<defs>
<linearGradient id="paint0_linear_0_1712" x1="7.27904" y1="6.16702" x2="7.27904" y2="27.5983" gradientUnits="userSpaceOnUse">
<stop stop-color="#257CB0"/>
<stop offset="0.286" stop-color="#4A93B5"/>
<stop offset="0.767" stop-color="#78BCBB"/>
<stop offset="1" stop-color="#89CFBD"/>
</linearGradient>
<linearGradient id="paint1_linear_0_1712" x1="7.27923" y1="16.8829" x2="21.4383" y2="16.8829" gradientUnits="userSpaceOnUse">
<stop stop-color="#52C1AD"/>
<stop offset="1" stop-color="#DEE89A"/>
</linearGradient>
<linearGradient id="paint2_linear_0_1712" x1="7.27904" y1="16.8828" x2="7.27904" y2="27.6763" gradientUnits="userSpaceOnUse">
<stop stop-color="#EC413D"/>
<stop offset="0.167" stop-color="#DA4452"/>
<stop offset="0.575" stop-color="#B0487A"/>
<stop offset="0.862" stop-color="#954A92"/>
<stop offset="1" stop-color="#8A4A9D"/>
</linearGradient>
<linearGradient id="paint3_linear_0_1712" x1="18.4407" y1="14.0044" x2="18.4407" y2="19.7605" gradientUnits="userSpaceOnUse">
<stop stop-color="#F58879"/>
<stop offset="0.119" stop-color="#F69079"/>
<stop offset="0.713" stop-color="#FCB877"/>
<stop offset="1" stop-color="#FEC874"/>
</linearGradient>
</defs>
</svg>
