<svg width="100" height="32" viewBox="0 0 100 32" fill="none" xmlns="http://www.w3.org/2000/svg">
<path d="M99.728 27.6752C99.728 30.0633 97.7586 32 95.3293 32H4.59936C2.16992 32.0002 0.199707 30.0635 0.199707 27.6752V4.3244C0.199707 1.93651 2.16992 0 4.59936 0H95.3291C97.7584 0 99.7278 1.93651 99.7278 4.3244V27.6752H99.728Z" fill="black"/>
<rect x="5.66016" y="5.10156" width="21.6981" height="21.3333" rx="3" fill="#E14459"/>
<path fill-rule="evenodd" clip-rule="evenodd" d="M21.4077 7.18902C21.4074 6.80495 21.6831 6.49325 22.0236 6.49273V6.49268C22.364 6.49215 22.6405 6.80296 22.6411 7.18701V7.1884C22.6411 7.57241 22.3652 7.88376 22.0248 7.88398C21.6843 7.88421 21.408 7.57311 21.4077 7.18902ZM10.377 7.18902C10.3766 6.80494 10.6523 6.49324 10.9928 6.49273V6.49268C11.3333 6.49216 11.6097 6.80296 11.6104 7.18701V7.1884C11.6103 7.57245 11.3344 7.88381 10.9939 7.88398C10.6535 7.88416 10.3773 7.57307 10.377 7.18902Z" fill="#C73148"/>
<path fill-rule="evenodd" clip-rule="evenodd" d="M10.8323 7.73081C10.8323 7.73081 10.8216 7.43176 11.0338 7.42072C11.0828 7.41818 11.1436 7.43106 11.2192 7.46641C12.3898 9.34586 14.3457 10.444 16.4975 10.4434C18.6451 10.4399 20.6081 9.33018 21.7764 7.45429C22.2211 7.31402 22.1759 7.7187 22.1759 7.7187C21.0366 9.86777 18.9152 10.9349 16.496 10.9383C14.0737 10.9382 11.9731 9.88272 10.8323 7.73081ZM18.1057 17.6576L18.7547 15.7853H19.2277L19.8767 17.6576L20.5096 15.7867H21.1109L20.1173 18.5083H19.6332L18.9835 16.7204L18.333 18.5083H17.8529L16.8571 15.7867H17.4739L18.1057 17.6576ZM15.3073 15.7859L14.048 18.5069H14.64L14.8832 17.9801L14.9004 17.9403H16.2088L16.4652 18.5069H17.0733L15.8255 15.8019L15.8144 15.786L15.3073 15.7859ZM24.4274 18.5051V15.7863L24.9997 15.7863V18.5051H24.4274ZM8.01855 15.7866V18.5093H8.59873V17.4036H9.90825V18.5093H10.4884V15.7867H9.90825V16.8851H8.59873V15.7867L8.01855 15.7866ZM13.1731 17.3457V15.7873L13.7529 15.7874V17.3233C13.7529 18.1033 13.3021 18.5508 12.5158 18.5508C11.7369 18.5508 11.2898 18.1118 11.2898 17.3458V15.7891H11.8697V17.3271C11.8697 17.7818 12.1019 18.0248 12.5234 18.0248C12.9424 18.0248 13.1731 17.7884 13.1731 17.3457ZM21.5785 15.7883V18.5072H23.7371V18.0116H22.1504V17.3374H23.2054V16.8415H22.1504V16.2843H23.6819V15.7884L21.5785 15.7883ZM15.9668 17.3866L15.553 16.475L15.1453 17.3866L15.1177 17.4492H15.9947L15.9668 17.3866Z" fill="white"/>
<path fill-rule="evenodd" clip-rule="evenodd" d="M67.0821 6.58547V11.4075L63.7107 7.94847V11.1308H63.0131V6.27637L66.3845 9.74421V6.58547H67.0821ZM50.5633 10.5273C50.0862 10.9845 49.5103 11.2132 48.8356 11.2132C48.2388 11.2132 47.7028 11.0101 47.2278 10.6038C46.7048 10.1544 46.4433 9.56562 46.4433 8.83751C46.4433 8.19771 46.6818 7.6482 47.1589 7.18896C47.634 6.72972 48.2049 6.5001 48.8716 6.5001C49.5303 6.5001 50.0952 6.73168 50.5663 7.19485C51.0393 7.65801 51.2759 8.2144 51.2759 8.864C51.2759 9.51754 51.0384 10.072 50.5633 10.5273ZM35.9397 10.4861V11.1308H33.3887V6.58547H35.9397V7.23017H34.0863V8.32234H35.8858V8.96704H34.0863V10.4861H35.9397ZM38.2153 9.39095L37.1613 11.1308H36.3709L37.823 8.75508L36.5505 6.58547H37.344L38.2273 8.1251L39.1555 6.58547H39.9549L38.6225 8.75508L40.0208 11.1308H39.2393L38.2153 9.39095ZM41.3412 11.1308V9.28497H41.6646C42.1456 9.28497 42.5279 9.16329 42.8113 8.91994C43.0948 8.67658 43.2365 8.34687 43.2365 7.93081C43.2365 7.54222 43.1038 7.22036 42.8383 6.96523C42.6866 6.81803 42.5109 6.71794 42.3113 6.66495C42.1137 6.61197 41.8213 6.58547 41.434 6.58547H40.6436V11.1308H41.3412ZM41.3412 8.6491H41.6017C42.2425 8.6491 42.5628 8.40673 42.5628 7.92197C42.5628 7.45292 42.2325 7.2184 41.5718 7.2184H41.3412V8.6491ZM46.0121 11.1308V10.4861H44.6528V6.58547H43.9551V11.1308H46.0121ZM48.8446 10.5714C48.3975 10.5714 48.0033 10.4095 47.6619 10.0857C47.3186 9.76187 47.1469 9.34876 47.1469 8.84634C47.1469 8.36748 47.3126 7.96515 47.644 7.63937C47.9753 7.30966 48.3815 7.1448 48.8626 7.1448C49.3456 7.1448 49.7509 7.30966 50.0782 7.63937C50.4076 7.96711 50.5723 8.37336 50.5723 8.85812C50.5723 9.33698 50.4056 9.74323 50.0722 10.0769C49.7389 10.4066 49.3297 10.5714 48.8446 10.5714ZM52.8508 9.27025V11.1308H52.1532V6.58547H52.9706C53.5814 6.58547 54.0225 6.69832 54.294 6.92401C54.5934 7.17522 54.7431 7.50689 54.7431 7.91903C54.7431 8.24089 54.6493 8.51761 54.4617 8.74919C54.2741 8.98078 54.0265 9.12895 53.7191 9.19371L55.1504 11.1308H54.297L52.9766 9.27025H52.8508ZM53.0724 8.67265H52.8508V7.23017H53.0993C53.7421 7.23017 54.0635 7.46273 54.0635 7.92786C54.0635 8.42439 53.7331 8.67265 53.0724 8.67265ZM58.396 10.4861V11.1308H55.845V6.58547H58.396V7.23017H56.5426V8.32234H58.3421V8.96704H56.5426V10.4861H58.396ZM61.9022 11.1308V6.58547H61.2046V11.1308H61.9022Z" fill="white"/>
<path fill-rule="evenodd" clip-rule="evenodd" d="M70.5707 24.116V16.4175H68.8631V24.116H70.5707ZM58.665 24.1624C58.3002 24.2613 57.9166 24.3108 57.5141 24.3108C56.9606 24.3108 56.4559 24.2212 55.9999 24.0418C55.544 23.8625 55.1524 23.6105 54.8254 23.2859C54.4984 22.9612 54.2436 22.5717 54.0612 22.1172C53.8789 21.6627 53.7877 21.1603 53.7877 20.6099C53.7877 20.0658 53.8773 19.5665 54.0565 19.112C54.2358 18.6575 54.4905 18.2695 54.8207 17.9479C55.1509 17.6264 55.5487 17.3759 56.0141 17.1966C56.4795 17.0173 56.9984 16.9276 57.5707 16.9276C58.3128 16.9276 58.9638 17.0853 59.5235 17.4007C60.0833 17.716 60.5267 18.2045 60.8537 18.8662L59.099 19.5804C58.9355 19.197 58.7232 18.9218 58.4622 18.7549C58.2012 18.5879 57.904 18.5044 57.5707 18.5044C57.294 18.5044 57.0424 18.5555 56.816 18.6575C56.5896 18.7595 56.3962 18.9048 56.2358 19.0934C56.0754 19.282 55.9496 19.5093 55.8584 19.7752C55.7672 20.0411 55.7216 20.3379 55.7216 20.6656C55.7216 20.9624 55.7609 21.2376 55.8396 21.4911C55.9182 21.7446 56.0361 21.9641 56.1933 22.1497C56.3506 22.3352 56.5455 22.4789 56.7782 22.581C57.0109 22.683 57.2814 22.734 57.5896 22.734C57.7719 22.734 57.948 22.7139 58.1179 22.6737C58.2877 22.6335 58.4402 22.5686 58.5754 22.4789C58.7106 22.3893 58.8223 22.2733 58.9103 22.1311C58.9984 21.9889 59.0581 21.8157 59.0896 21.6117H57.5707V20.2018H61.2405C61.2405 20.5728 61.2248 20.9098 61.1933 21.2128C61.1619 21.5158 61.099 21.7972 61.0046 22.0569C60.8726 22.4217 60.6933 22.7448 60.4669 23.0262C60.2405 23.3075 59.9748 23.5425 59.6697 23.7311C59.3647 23.9197 59.0298 24.0635 58.665 24.1624ZM34.6084 24.116L35.0329 22.901H37.6745L38.099 24.116H40.0707L37.3631 17.1224H35.3443L32.6367 24.116H34.6084ZM37.1839 21.5189H35.5235L36.3537 19.1908L37.1839 21.5189ZM42.4292 23.6523V26.4905H40.7216V19.3578H42.4292V19.8865C42.794 19.4351 43.2908 19.2094 43.9197 19.2094C44.2656 19.2094 44.588 19.2758 44.8867 19.4088C45.1855 19.5417 45.4449 19.7226 45.665 19.9514C45.8851 20.1802 46.0565 20.4492 46.1792 20.7583C46.3018 21.0675 46.3631 21.3983 46.3631 21.7508C46.3631 22.1033 46.3018 22.431 46.1792 22.734C46.0565 23.037 45.8867 23.3029 45.6697 23.5317C45.4528 23.7605 45.1965 23.9398 44.9009 24.0697C44.6053 24.1995 44.2845 24.2644 43.9386 24.2644C43.3348 24.2644 42.8317 24.0604 42.4292 23.6523ZM43.4858 22.8175C43.3348 22.8175 43.1918 22.7881 43.0565 22.7294C42.9213 22.6706 42.8034 22.5933 42.7028 22.4975C42.6021 22.4016 42.5235 22.2888 42.4669 22.1589C42.4103 22.0291 42.382 21.8899 42.382 21.7415C42.382 21.5931 42.4119 21.4525 42.4716 21.3195C42.5314 21.1866 42.61 21.0706 42.7075 20.9717C42.805 20.8727 42.9197 20.7955 43.0518 20.7398C43.1839 20.6841 43.3254 20.6563 43.4763 20.6563C43.6336 20.6563 43.7798 20.6857 43.915 20.7444C44.0502 20.8032 44.1682 20.882 44.2688 20.981C44.3694 21.0799 44.4465 21.1958 44.4999 21.3288C44.5534 21.4617 44.5801 21.6024 44.5801 21.7508C44.5801 21.893 44.5502 22.0291 44.4905 22.1589C44.4307 22.2888 44.3521 22.4032 44.2546 22.5021C44.1572 22.6011 44.0424 22.6783 43.9103 22.734C43.7782 22.7897 43.6367 22.8175 43.4858 22.8175ZM49.0424 23.6523V26.4905H47.3348V19.3578H49.0424V19.8865C49.4072 19.4351 49.904 19.2094 50.5329 19.2094C50.8789 19.2094 51.2012 19.2758 51.4999 19.4088C51.7987 19.5417 52.0581 19.7226 52.2782 19.9514C52.4984 20.1802 52.6697 20.4492 52.7924 20.7583C52.915 21.0675 52.9763 21.3983 52.9763 21.7508C52.9763 22.1033 52.915 22.431 52.7924 22.734C52.6697 23.037 52.4999 23.3029 52.2829 23.5317C52.066 23.7605 51.8097 23.9398 51.5141 24.0697C51.2185 24.1995 50.8977 24.2644 50.5518 24.2644C49.948 24.2644 49.4449 24.0604 49.0424 23.6523ZM50.099 22.8175C49.948 22.8175 49.805 22.7881 49.6697 22.7294C49.5345 22.6706 49.4166 22.5933 49.316 22.4975C49.2153 22.4016 49.1367 22.2888 49.0801 22.1589C49.0235 22.0291 48.9952 21.8899 48.9952 21.7415C48.9952 21.5931 49.0251 21.4525 49.0848 21.3195C49.1446 21.1866 49.2232 21.0706 49.3207 20.9717C49.4182 20.8727 49.5329 20.7955 49.665 20.7398C49.7971 20.6841 49.9386 20.6563 50.0895 20.6563C50.2468 20.6563 50.393 20.6857 50.5282 20.7444C50.6634 20.8032 50.7814 20.882 50.882 20.981C50.9826 21.0799 51.0597 21.1958 51.1131 21.3288C51.1666 21.4617 51.1933 21.6024 51.1933 21.7508C51.1933 21.893 51.1634 22.0291 51.1037 22.1589C51.044 22.2888 50.9653 22.4032 50.8679 22.5021C50.7704 22.6011 50.6556 22.6783 50.5235 22.734C50.3914 22.7897 50.2499 22.8175 50.099 22.8175ZM64.5046 24.2644C65.1273 24.2644 65.621 24.0387 65.9858 23.5873V24.116H67.7028V19.3578H65.9858V19.8308C65.5896 19.4165 65.0896 19.2094 64.4858 19.2094C64.1273 19.2094 63.8002 19.2758 63.5046 19.4088C63.209 19.5417 62.9543 19.7226 62.7405 19.9514C62.5267 20.1802 62.36 20.4476 62.2405 20.7537C62.121 21.0598 62.0612 21.3829 62.0612 21.723C62.0612 22.0878 62.1226 22.4248 62.2452 22.734C62.3679 23.0432 62.5392 23.3122 62.7594 23.541C62.9795 23.7698 63.2373 23.9475 63.5329 24.0743C63.8285 24.2011 64.1524 24.2644 64.5046 24.2644ZM64.4999 22.734C64.6351 22.7897 64.7814 22.8175 64.9386 22.8175C65.0896 22.8175 65.2326 22.7897 65.3679 22.734C65.5031 22.6783 65.6194 22.6011 65.7169 22.5021C65.8144 22.4032 65.893 22.2888 65.9528 22.1589C66.0125 22.0291 66.0424 21.8899 66.0424 21.7415C66.0424 21.5931 66.0125 21.4525 65.9528 21.3195C65.893 21.1866 65.8144 21.0706 65.7169 20.9717C65.6194 20.8727 65.5031 20.7955 65.3679 20.7398C65.2326 20.6841 65.0896 20.6563 64.9386 20.6563C64.7814 20.6563 64.6351 20.6841 64.4999 20.7398C64.3647 20.7955 64.2484 20.8727 64.1509 20.9717C64.0534 21.0706 63.9763 21.1835 63.9197 21.3102C63.8631 21.437 63.8348 21.5746 63.8348 21.723C63.8348 21.8776 63.8631 22.0213 63.9197 22.1543C63.9763 22.2872 64.0534 22.4032 64.1509 22.5021C64.2484 22.6011 64.3647 22.6783 64.4999 22.734ZM73.448 16.4175V24.116H71.7405V16.4175H73.448ZM77.1839 24.2923C78.5172 24.2923 79.3506 23.7481 79.6839 22.6598H78.0329C77.8443 22.9566 77.5644 23.105 77.1933 23.105C76.5015 23.105 76.1556 22.7433 76.1556 22.0198H79.7499V21.8436C79.7499 21.4293 79.6902 21.0567 79.5707 20.7259C79.4512 20.3951 79.2782 20.1153 79.0518 19.8865C78.8254 19.6577 78.5487 19.483 78.2216 19.3624C77.8946 19.2418 77.5267 19.1815 77.1179 19.1815C76.7028 19.1815 76.3301 19.2418 75.9999 19.3624C75.6697 19.483 75.3883 19.6546 75.1556 19.8772C74.9229 20.0998 74.7436 20.3703 74.6179 20.6888C74.4921 21.0072 74.4292 21.3643 74.4292 21.7601C74.4292 22.1435 74.4952 22.4898 74.6273 22.7989C74.7594 23.1081 74.9465 23.374 75.1886 23.5966C75.4307 23.8192 75.7216 23.9908 76.0612 24.1114C76.4009 24.232 76.7751 24.2923 77.1839 24.2923ZM76.2028 21.0459H78.1556C78.099 20.8109 77.9826 20.6223 77.8065 20.4801C77.6304 20.3379 77.4166 20.2668 77.165 20.2668C76.9009 20.2668 76.6855 20.3348 76.5188 20.4708C76.3521 20.6069 76.2468 20.7985 76.2028 21.0459ZM82.4292 24.116V22.0755C82.4292 21.6302 82.5282 21.2917 82.7263 21.0598C82.9245 20.8279 83.2216 20.712 83.6179 20.712C83.882 20.712 84.1273 20.7676 84.3537 20.8789V19.2743C84.2845 19.2619 84.2232 19.2557 84.1697 19.2557H84.0235C83.6713 19.2557 83.3631 19.3315 83.099 19.483C82.8348 19.6345 82.6116 19.8525 82.4292 20.1369V19.3578H80.7216V24.116H82.4292ZM91.0141 19.3578L87.1273 26.4905H85.2122L86.8631 23.4668L84.5235 19.3578H86.5046L87.7971 21.7972L89.0518 19.3578H91.0141Z" fill="white"/>
</svg>
