<svg width="36" height="36" viewBox="0 0 36 36" fill="none" xmlns="http://www.w3.org/2000/svg">
<path fill-rule="evenodd" clip-rule="evenodd" d="M11.25 0H24.75C30.9622 0 36 5.03775 36 11.25V24.75C36 30.9622 30.9622 36 24.75 36H11.25C5.03775 36 0 30.9622 0 24.75V11.25C0 5.03775 5.03775 0 11.25 0ZM24.75 32.625C29.0925 32.625 32.625 29.0925 32.625 24.75V11.25C32.625 6.9075 29.0925 3.375 24.75 3.375H11.25C6.9075 3.375 3.375 6.9075 3.375 11.25V24.75C3.375 29.0925 6.9075 32.625 11.25 32.625H24.75Z" fill="#BFBEBE"/>
<path fill-rule="evenodd" clip-rule="evenodd" d="M9 18C9 13.0297 13.0297 9 18 9C22.9703 9 27 13.0297 27 18C27 22.9703 22.9703 27 18 27C13.0297 27 9 22.9703 9 18ZM12.375 18C12.375 21.1005 14.8995 23.625 18 23.625C21.1005 23.625 23.625 21.1005 23.625 18C23.625 14.8973 21.1005 12.375 18 12.375C14.8995 12.375 12.375 14.8973 12.375 18Z" fill="#BFBEBE"/>
<circle cx="27" cy="8" r="1" fill="#BFBEBE"/>
</svg>
