<svg width="60" height="66" viewBox="0 0 60 66" fill="none" xmlns="http://www.w3.org/2000/svg">
<path d="M10.8919 61.0717C-6.74561 45.6625 15.9528 30.726 13.7909 13.8884C12.8297 6.40253 15.8832 -0.753822 25.8733 0.0639572C38.048 1.06066 33.6286 12.5948 36.1781 20.2736C40.5651 33.4866 67.5529 30.4005 56.3658 50.7532C49.2265 63.7416 23.0314 71.6774 10.8919 61.0717Z" fill="#81CFFA"/>
<path d="M45.9839 28.106C45.9839 35.9641 34.6823 53.4336 29.8365 60.563C28.8028 62.0838 26.542 62.0838 25.5083 60.563C20.6624 53.4336 9.36084 35.9642 9.36084 28.106C9.36084 18.1033 17.5592 9.99463 27.6725 9.99463C37.7857 9.99463 45.9839 18.1033 45.9839 28.106Z" fill="#2149FE"/>
<ellipse cx="27.6723" cy="28.1059" rx="13.3047" ry="13.1591" fill="white"/>
<path d="M24.5627 39.2244C24.4852 39.5938 24.6083 40.363 24.6096 40.9141C23.1835 40.5816 21.8467 40.0231 20.6391 39.2775C20.1935 38.1146 20.4179 36.9512 20.3744 35.6034C20.3125 33.7018 19.1498 33.6088 17.7305 32.7516C16.5473 32.0363 15.4607 31.3135 14.5845 30.4818C14.4423 29.7113 14.3682 28.9173 14.3682 28.1057C14.3682 25.4794 15.1459 23.0332 16.4868 20.9795C16.7201 21.2762 17.0611 21.3692 17.6353 21.3947C17.9898 21.0401 18.364 20.9546 18.7586 21.1383C18.8144 21.2655 18.8702 21.3926 18.926 21.5199C18.8947 21.8026 18.9743 22.0488 19.1641 22.2594C19.575 22.3213 19.9731 22.2715 20.3589 22.11C20.9399 21.9936 21.5807 21.6087 22.1748 21.5899C24.5941 21.5138 23.0524 23.1692 22.3204 24.231C21.4841 25.4449 21.108 27.1643 19.5588 27.7275C18.4259 28.1393 17.0456 27.5774 16.9932 29.3425C16.9517 30.7349 18.5839 32.2125 19.8146 32.6311C21.321 33.1424 23.2593 32.3841 24.7234 33.2603C25.8235 33.9183 25.5235 36.0704 25.252 37.3401C25.1131 37.9889 24.7022 38.5575 24.5627 39.2244Z" fill="#8CC27B"/>
<path d="M26.3357 18.0989C26.001 18.5902 25.4826 18.9797 25.322 19.5498C25.1506 20.1574 25.3976 20.9171 24.9478 21.364C24.2519 20.8984 23.9491 20.0087 23.979 19.179C23.9973 18.6871 24.0721 18.093 23.6714 17.8009C23.3162 17.5418 22.6773 17.6151 22.5529 17.1959C22.4998 17.0169 22.5808 16.8164 22.5175 16.6407C22.4489 16.4476 22.2359 16.3521 22.0794 16.2182C22.0658 16.2067 22.0528 16.194 22.0405 16.1805C23.5155 15.4982 25.1375 15.0756 26.8466 14.9719C26.9079 16.0473 26.944 17.2066 26.3357 18.0989Z" fill="#8CC27B"/>
<path d="M40.977 28.106C40.977 33.4282 37.7827 38.0121 33.1876 40.0846C33.3584 39.5819 33.6897 39.1029 33.9394 38.6223C34.3782 37.7778 34.5844 36.833 34.6966 35.8903C34.7564 35.3869 34.7368 34.7698 34.2952 34.5128C34.0653 34.3788 33.7829 34.3863 33.5162 34.3822C33.0447 34.3748 32.5746 34.3183 32.1154 34.2133C31.6229 34.1003 31.1159 33.9145 30.7996 33.5235C30.3274 32.9395 30.4206 32.1024 30.5376 31.3635C30.658 30.6045 30.7785 29.846 30.8989 29.087C30.9975 28.4632 31.1786 27.7324 31.7738 27.5022C32.1813 27.3447 32.6358 27.4894 33.0726 27.5217C34.3565 27.6153 35.5491 26.7136 36.8342 26.7808C37.0594 26.793 37.2893 26.834 37.5064 26.7754C37.6622 26.733 37.801 26.6409 37.9187 26.5312C38.5943 25.906 38.5718 24.8442 38.3746 23.9498C38.2882 23.5575 38.169 23.1537 37.8935 22.859C37.6174 22.5635 37.1424 22.4156 36.7927 22.6208C36.2308 22.9505 36.2899 23.9404 35.6694 24.1443C35.1218 24.3234 34.5556 23.6915 34.0039 23.857C33.2338 24.0871 33.5236 25.4202 32.8385 25.8367C32.4833 26.052 32.0206 25.9174 31.6506 25.7297C31.1907 25.4955 30.7335 25.1275 30.6737 24.6201C30.594 23.9431 31.2363 23.4136 31.8336 23.0738C32.4309 22.734 33.1243 22.3551 33.2597 21.6875C33.3053 21.4654 33.2802 21.234 33.3284 21.0125C33.4672 20.3685 34.153 20.0039 34.7871 19.8033C35.4211 19.6027 36.126 19.4487 36.5492 18.9399C36.6512 18.8174 36.7315 18.6795 36.8105 18.5408C39.3762 20.9407 40.977 24.3383 40.977 28.106Z" fill="#8CC27B"/>
<path d="M40.9771 28.1058C40.9771 30.3036 40.4323 32.3764 39.4679 34.1966C39.1863 33.4825 39.0312 32.7039 39.0312 31.8905C39.0312 30.1141 39.7676 28.508 40.9549 27.3542C40.9692 27.603 40.9771 27.8531 40.9771 28.1058Z" fill="#ADADAD"/>
<ellipse cx="45.4638" cy="30.1837" rx="6.43304" ry="6.36268" fill="#2149FE"/>
<path fill-rule="evenodd" clip-rule="evenodd" d="M45.3582 27C46.5858 27 47.5845 27.9878 47.5845 29.202C47.5845 29.8009 47.3408 30.3438 46.9473 30.7412C47.3409 31.1387 47.5845 31.6817 47.5845 32.2805C47.5845 32.6465 47.2845 32.9432 46.9145 32.9432C46.5444 32.9432 46.2444 32.6465 46.2444 32.2805C46.2444 31.7971 45.8468 31.404 45.3582 31.404C44.8695 31.404 44.4719 31.7972 44.4719 32.2805C44.4719 32.6465 44.1719 32.9432 43.8019 32.9432C43.4319 32.9432 43.1318 32.6465 43.1318 32.2805C43.1318 31.6817 43.3756 31.1387 43.769 30.7412C43.3754 30.3438 43.1318 29.8009 43.1318 29.202C43.1318 27.9878 44.1306 27 45.3582 27ZM46.2444 29.202C46.2444 28.7186 45.8468 28.3254 45.3582 28.3254C44.8694 28.3254 44.4719 28.7187 44.4719 29.202C44.4719 29.6854 44.8695 30.0785 45.3582 30.0785C45.8468 30.0785 46.2444 29.6852 46.2444 29.202Z" fill="white"/>
<ellipse cx="18.0268" cy="49.3546" rx="6.43304" ry="6.36268" fill="#2149FE"/>
<path fill-rule="evenodd" clip-rule="evenodd" d="M18.3582 47C19.5858 47 20.5845 47.9878 20.5845 49.202C20.5845 49.8007 20.3408 50.3438 19.9473 50.7412C20.3409 51.1387 20.5845 51.6817 20.5845 52.2805C20.5845 52.6465 20.2845 52.9432 19.9145 52.9432C19.5444 52.9432 19.2444 52.6465 19.2444 52.2805C19.2444 51.7972 18.8468 51.404 18.3582 51.404C17.8694 51.404 17.4719 51.7972 17.4719 52.2805C17.4719 52.6465 17.1719 52.9432 16.8019 52.9432C16.4319 52.9432 16.1318 52.6465 16.1318 52.2805C16.1318 51.6817 16.3756 51.1387 16.769 50.7412C16.3754 50.3438 16.1318 49.8009 16.1318 49.202C16.1318 47.9878 17.1306 47 18.3582 47ZM19.2444 49.202C19.2444 48.7186 18.8468 48.3254 18.3582 48.3254C17.8695 48.3254 17.4719 48.7186 17.4719 49.202C17.4719 49.6854 17.8695 50.0785 18.3582 50.0785C18.8469 50.0785 19.2444 49.6854 19.2444 49.202Z" fill="white"/>
<ellipse cx="18.0268" cy="12.6593" rx="6.43304" ry="6.36268" fill="#2149FE"/>
<path fill-rule="evenodd" clip-rule="evenodd" d="M18.3582 11C19.5858 11 20.5845 11.9878 20.5845 13.202C20.5845 13.8009 20.3408 14.344 19.9473 14.7412C20.3409 15.1387 20.5845 15.6817 20.5845 16.2805C20.5845 16.6465 20.2845 16.9432 19.9145 16.9432C19.5444 16.9432 19.2444 16.6465 19.2444 16.2805C19.2444 15.7971 18.8468 15.404 18.3582 15.404C17.8694 15.404 17.4719 15.7972 17.4719 16.2805C17.4719 16.6465 17.1719 16.9432 16.8019 16.9432C16.4319 16.9432 16.1318 16.6465 16.1318 16.2805C16.1318 15.6817 16.3756 15.1385 16.769 14.7412C16.3754 14.3438 16.1318 13.8009 16.1318 13.202C16.1318 11.9878 17.1306 11 18.3582 11ZM19.2444 13.202C19.2444 12.7186 18.8468 12.3254 18.3582 12.3254C17.8695 12.3254 17.4719 12.7186 17.4719 13.202C17.4719 13.6854 17.8695 14.0785 18.3582 14.0785C18.8469 14.0785 19.2444 13.6854 19.2444 13.202Z" fill="white"/>
<path d="M6.08238 19.1855C5.72253 19.1855 5.43072 18.8971 5.43072 18.541C5.43072 18.1145 5.08 17.7676 4.64873 17.7676C4.28888 17.7676 3.99707 17.4791 3.99707 17.123C3.99707 16.767 4.28888 16.4785 4.64873 16.4785C5.08 16.4785 5.43072 16.1316 5.43072 15.7051C5.43072 15.349 5.72253 15.0605 6.08238 15.0605C6.44222 15.0605 6.73404 15.349 6.73404 15.7051C6.73404 16.1316 7.08476 16.4785 7.51603 16.4785C7.87587 16.4785 8.16769 16.767 8.16769 17.123C8.16769 17.4791 7.87587 17.7676 7.51603 17.7676C7.08476 17.7676 6.73404 18.1145 6.73404 18.541C6.73404 18.8971 6.44222 19.1855 6.08238 19.1855Z" fill="black"/>
<path d="M42.5077 56.4688C42.1477 56.4688 41.856 56.1803 41.856 55.8242C41.856 55.3977 41.5053 55.0508 41.074 55.0508C40.714 55.0508 40.4224 54.7623 40.4224 54.4062C40.4224 54.0502 40.714 53.7617 41.074 53.7617C41.5053 53.7617 41.856 53.4148 41.856 52.9883C41.856 52.6322 42.1477 52.3438 42.5077 52.3438C42.8676 52.3438 43.1593 52.6322 43.1593 52.9883C43.1593 53.4148 43.5101 53.7617 43.9413 53.7617C44.3013 53.7617 44.593 54.0502 44.593 54.4062C44.593 54.7623 44.3013 55.0508 43.9413 55.0508C43.5101 55.0508 43.1593 55.3977 43.1593 55.8242C43.1593 56.1801 42.8675 56.4688 42.5077 56.4688Z" fill="black"/>
<path d="M3.03453 27.5901C2.67468 27.5901 2.38287 27.3016 2.38287 26.9456C2.38287 26.519 2.03215 26.1721 1.60088 26.1721C1.24103 26.1721 0.949219 25.8836 0.949219 25.5276C0.949219 25.1715 1.24103 24.8831 1.60088 24.8831C2.03215 24.8831 2.38287 24.5362 2.38287 24.1096C2.38287 23.7536 2.67468 23.4651 3.03453 23.4651C3.39437 23.4651 3.68619 23.7536 3.68619 24.1096C3.68619 24.5362 4.03691 24.8831 4.46818 24.8831C4.82802 24.8831 5.11983 25.1715 5.11983 25.5276C5.11983 25.8836 4.82802 26.1721 4.46818 26.1721C4.03691 26.1721 3.68619 26.519 3.68619 26.9456C3.68619 27.3016 3.39437 27.5901 3.03453 27.5901Z" fill="black"/>
<path fill-rule="evenodd" clip-rule="evenodd" d="M45.003 49.5821C45.13 49.7081 45.297 49.771 45.4637 49.771C45.6305 49.771 45.7973 49.7079 45.9244 49.5821L47.3581 48.1641C47.6126 47.9125 47.6126 47.5044 47.3581 47.2528L45.9244 45.8348C45.6701 45.5831 45.2572 45.5831 45.003 45.8348L43.5693 47.2528C43.3148 47.5044 43.3148 47.9125 43.5693 48.1641L45.003 49.5821ZM45.4638 48.2149L44.9518 47.7085L45.4638 47.202L45.9759 47.7085L45.4638 48.2149Z" fill="black"/>
<path fill-rule="evenodd" clip-rule="evenodd" d="M43.7559 7.93612C43.883 8.06206 44.0499 8.12497 44.2166 8.12497C44.3834 8.12497 44.5503 8.06206 44.6773 7.93612L46.111 6.51815C46.3655 6.26653 46.3655 5.85841 46.111 5.60678L44.6773 4.18882C44.4231 3.93706 44.0102 3.93706 43.7559 4.18882L42.3223 5.60678C42.0677 5.85841 42.0677 6.26653 42.3223 6.51815L43.7559 7.93612ZM44.2168 6.56894L43.7047 6.06247L44.2168 5.556L44.7288 6.06247L44.2168 6.56894Z" fill="black"/>
<path fill-rule="evenodd" clip-rule="evenodd" d="M27.7453 62.9889C26.6843 62.9889 25.6973 62.4626 25.1051 61.5812C24.6105 60.8452 24.1094 60.0905 23.6155 59.3377C23.4229 59.0438 23.5047 58.6493 23.7984 58.4564C24.0922 58.2636 24.4864 58.3456 24.6793 58.6395C25.1702 59.3881 25.6687 60.1389 26.1606 60.8709C26.5214 61.4079 27.099 61.7159 27.7452 61.7159C28.3914 61.7159 28.969 61.4079 29.3298 60.8709C37.7077 48.4035 41.4362 40.6324 42.9923 36.8295C40.2129 35.9321 38.1961 33.3202 38.1961 30.2448C38.1961 26.8097 40.7118 23.9525 43.9967 23.4175C42.9262 20.3918 41.0397 17.7372 38.5132 15.7128C35.7956 13.5351 32.5267 12.2459 29.06 11.9845C28.7096 11.958 28.4471 11.6525 28.4735 11.302C28.4999 10.9515 28.8055 10.6923 29.1556 10.7153C32.8792 10.9962 36.3901 12.3808 39.3086 14.7195C42.1143 16.9678 44.1834 19.9418 45.31 23.3316C49.0316 23.4373 52.0271 26.4969 52.0271 30.245C52.0271 34.0598 48.9248 37.1633 45.1116 37.1633C44.8206 37.1633 44.5345 37.1432 44.253 37.1081C40.8935 45.4405 34.1471 55.9838 30.3856 61.5812C29.7934 62.4626 28.8063 62.9889 27.7453 62.9889ZM45.1116 24.5992C41.9999 24.5992 39.4684 27.1318 39.4684 30.2449C39.4684 33.3579 41.9999 35.8905 45.1116 35.8905C48.2233 35.8905 50.7549 33.3579 50.7549 30.2449C50.7549 27.1318 48.2233 24.5992 45.1116 24.5992Z" fill="#1B3CD1"/>
<path fill-rule="evenodd" clip-rule="evenodd" d="M11.4141 49.1599C11.4141 52.9747 14.5164 56.0783 18.3296 56.0783C22.1429 56.0783 25.2451 52.9746 25.2451 49.1599C25.2451 45.3451 22.1429 42.2414 18.3296 42.2414C17.4255 42.2414 16.5622 42.4177 15.7698 42.7348C12.2783 36.1042 10.5071 31.2078 10.5071 28.1804C10.5071 24.5248 11.6296 21.0546 13.7533 18.1102C14.9736 19.1903 16.5759 19.8479 18.3295 19.8479C22.1428 19.8479 25.245 16.7443 25.245 12.9295C25.245 9.11478 22.1428 6.01123 18.3295 6.01123C14.5162 6.01123 11.414 9.11478 11.414 12.9295C11.414 14.5237 11.9572 15.9925 12.8662 17.1638C10.49 20.3685 9.23486 24.1715 9.23486 28.1804C9.23486 31.4133 11.0531 36.5045 14.6372 43.3145C12.7022 44.5423 11.4141 46.7027 11.4141 49.1599ZM18.3296 7.28396C21.4413 7.28396 23.9729 9.81656 23.9729 12.9295C23.9729 16.0426 21.4414 18.5752 18.3296 18.5752C15.2178 18.5752 12.6863 16.0426 12.6863 12.9295C12.6863 9.81656 15.2178 7.28396 18.3296 7.28396ZM23.9729 49.1599C23.9729 46.0468 21.4413 43.5142 18.3296 43.5142C15.2178 43.5142 12.6863 46.0468 12.6863 49.1599C12.6863 52.273 15.2178 54.8056 18.3296 54.8056C21.4414 54.8056 23.9729 52.273 23.9729 49.1599Z" fill="#1B3CD1"/>
</svg>
