<svg width="76" height="61" viewBox="0 0 76 61" fill="none" xmlns="http://www.w3.org/2000/svg">
<path d="M74.4968 15.3168C71.1781 6.7858 60.9554 1.66987 52.2971 5.0554C42.4138 8.91975 45.6907 24.8013 36.7137 28.0127C31.8644 29.7474 24.6957 23.2673 19.7964 22.2737C10.7683 20.4426 2.59534 26.8782 0.582824 35.7903C-1.47036 44.8824 1.82272 57.0263 11.7107 59.4941C23.4892 62.4336 29.6246 51.7367 39.5055 48.6652C49.6452 45.5132 60.9195 52.9574 69.3138 43.9C75.5155 37.2086 77.7829 23.7644 74.4968 15.3168Z" fill="#81CFFA"/>
<path d="M65.5515 50.495H12.8598C11.2081 50.495 9.86914 49.1563 9.86914 47.5048V14.4018C9.86914 12.7503 11.2081 11.4116 12.8598 11.4116H65.5514C67.2031 11.4116 68.542 12.7503 68.542 14.4018V47.5048C68.5422 49.1563 67.2031 50.495 65.5515 50.495Z" fill="#2149FE"/>
<path d="M40.1166 25.6725L68.5422 47.5047C68.5422 49.1562 67.2033 50.4949 65.5515 50.4949H12.8598C11.2081 50.4949 9.86914 49.1562 9.86914 47.5047L38.2947 25.6725C38.832 25.2599 39.5793 25.2599 40.1166 25.6725Z" fill="#2149FE"/>
<path d="M38.2947 36.2341L9.86914 14.4018C9.86914 12.7503 11.2081 11.4116 12.8598 11.4116H65.5514C67.2031 11.4116 68.542 12.7503 68.542 14.4018L40.1166 36.2341C39.5793 36.6466 38.832 36.6466 38.2947 36.2341Z" fill="#2149FE"/>
<path d="M56.3941 46.5163H51.589C51.1761 46.5163 50.8413 46.1816 50.8413 45.7688V42.4565C50.8413 42.0437 51.1761 41.709 51.589 41.709H56.3941C56.8069 41.709 57.1417 42.0437 57.1417 42.4565V45.7688C57.1417 46.1817 56.8069 46.5163 56.3941 46.5163Z" fill="white"/>
<path d="M47.5605 43.469H43.3985C42.9855 43.469 42.6509 43.1342 42.6509 42.7214C42.6509 42.3086 42.9855 41.9739 43.3985 41.9739H47.5605C47.9735 41.9739 48.3081 42.3086 48.3081 42.7214C48.3081 43.1342 47.9735 43.469 47.5605 43.469Z" fill="white"/>
<path d="M47.5605 46.5163H32.9313C32.5182 46.5163 32.1836 46.1816 32.1836 45.7688C32.1836 45.356 32.5182 45.0212 32.9313 45.0212H47.5605C47.9735 45.0212 48.3082 45.356 48.3082 45.7688C48.3082 46.1816 47.9735 46.5163 47.5605 46.5163Z" fill="white"/>
<ellipse cx="61.5354" cy="15.1893" rx="10.6941" ry="10.6925" fill="#8CC27B"/>
<path fill-rule="evenodd" clip-rule="evenodd" d="M72.9771 15.1893C72.9771 21.4974 67.8443 26.6294 61.5353 26.6294C59.4612 26.6294 57.5159 26.0718 55.8366 25.103L48.2195 30.9533L67.7945 45.9879V27.7486C67.7945 27.3358 68.1291 27.001 68.5421 27.001C68.9552 27.001 69.2898 27.3358 69.2898 27.7486V47.5048C69.2898 49.5658 67.6128 51.2426 65.5515 51.2426H12.8599C10.7986 51.2426 9.12158 49.5658 9.12158 47.5048V14.4018C9.12158 12.3408 10.7986 10.6641 12.8599 10.6641H47.1575C47.5705 10.6641 47.9051 10.9988 47.9051 11.4116C47.9051 11.8244 47.5705 12.1592 47.1575 12.1592H12.8598C11.7414 12.1592 10.8113 12.9821 10.6437 14.0541L38.7501 35.6412C39.0186 35.8474 39.3933 35.8472 39.6611 35.6412L54.5276 24.2228C51.8325 22.1281 50.0935 18.8589 50.0935 15.1893C50.0935 8.88119 55.2263 3.74927 61.5353 3.74927C67.8444 3.74927 72.9771 8.88119 72.9771 15.1893ZM10.6169 45.9879L30.1918 30.9533L10.6169 15.9188V45.9879ZM67.7649 47.8506C67.5977 48.9232 66.6703 49.7475 65.5513 49.7475H12.8599C11.7409 49.7475 10.8135 48.9232 10.6464 47.8506L31.4193 31.896L37.8393 36.8268C38.2416 37.1357 38.7237 37.2903 39.2058 37.2903C39.6879 37.2903 40.1698 37.1359 40.5722 36.8268L46.9922 31.8958L67.7649 47.8506ZM61.5353 5.24437C56.0508 5.24437 51.5889 9.70574 51.5889 15.1893C51.5889 20.6729 56.0508 25.1343 61.5353 25.1343C67.0199 25.1343 71.4818 20.673 71.4818 15.1893C71.4818 9.70559 67.0199 5.24437 61.5353 5.24437Z" fill="#1B3CD1"/>
<path d="M56.8677 11.5427L58.3939 15.1891L56.8677 18.8355C56.6086 19.4548 57.2338 20.0752 57.8511 19.8115L67.0651 15.8766C67.6704 15.6181 67.6704 14.7602 67.0651 14.5017L57.8511 10.5667C57.2338 10.303 56.6086 10.9234 56.8677 11.5427V11.5427Z" fill="white"/>
<path d="M61.875 15.8871L57.2806 17.8501L58.3935 15.1889L57.2793 12.5276L61.875 14.4907C62.4482 14.7358 62.4482 15.6434 61.875 15.8871V15.8871Z" fill="#D9DBE7"/>
<path fill-rule="evenodd" clip-rule="evenodd" d="M48.8616 3.80227C49.2842 4.22494 49.8394 4.43619 50.3948 4.43619C50.95 4.43619 51.5052 4.22494 51.9278 3.80227C52.7733 2.95709 52.7733 1.58175 51.9278 0.736423C51.0825 -0.108905 49.7066 -0.108606 48.8616 0.736423C48.0162 1.5816 48.0162 2.95694 48.8616 3.80227ZM49.9188 1.79361C50.0501 1.66234 50.2225 1.59685 50.3948 1.59685C50.5669 1.59685 50.7393 1.66249 50.8705 1.79361C51.1327 2.056 51.1327 2.48285 50.8705 2.74509C50.6079 3.00748 50.1814 3.00733 49.9188 2.74509C49.6565 2.4827 49.6565 2.05585 49.9188 1.79361Z" fill="black"/>
<path fill-rule="evenodd" clip-rule="evenodd" d="M32.0706 60.2637C32.4932 60.6862 33.0486 60.8976 33.6038 60.8976C34.159 60.8976 34.7144 60.6864 35.1369 60.2637C35.9824 59.4185 35.9824 58.0432 35.1369 57.1978C34.2918 56.3527 32.9158 56.3527 32.0706 57.1978C31.2252 58.043 31.2252 59.4184 32.0706 60.2637ZM33.1278 58.255C33.2591 58.1238 33.4315 58.0583 33.6038 58.0583C33.776 58.0583 33.9484 58.1239 34.0796 58.255C34.3419 58.5174 34.3419 58.9443 34.0796 59.2065C33.817 59.4689 33.3904 59.4689 33.1278 59.2065C32.8655 58.9441 32.8655 58.5173 33.1278 58.255Z" fill="black"/>
<path d="M15.5887 7.91529C15.3975 7.91529 15.2059 7.84233 15.0601 7.69641L14.1682 6.80473L13.2762 7.69641C12.9845 7.98825 12.5108 7.98825 12.219 7.69641C11.927 7.40442 11.927 6.93107 12.219 6.63923L13.6396 5.21888C13.9313 4.92704 14.405 4.92704 14.6968 5.21888L16.1173 6.63923C16.4094 6.93122 16.4094 7.40457 16.1173 7.69641C15.9716 7.84218 15.7801 7.91529 15.5887 7.91529Z" fill="black"/>
<path d="M66.6815 58.0579C66.4903 58.0579 66.2987 57.9849 66.1529 57.839L65.261 56.9473L64.369 57.839C64.0773 58.1308 63.6035 58.1308 63.3118 57.839C63.0198 57.547 63.0198 57.0736 63.3118 56.7818L64.7324 55.3615C65.0241 55.0696 65.4978 55.0696 65.7896 55.3615L67.2101 56.7818C67.5022 57.0738 67.5022 57.5471 67.2101 57.839C67.0643 57.9848 66.8728 58.0579 66.6815 58.0579Z" fill="black"/>
<path d="M13.5887 57.9153C13.3975 57.9153 13.2059 57.8423 13.0601 57.6964L12.1682 56.8047L11.2762 57.6964C10.9845 57.9883 10.5108 57.9883 10.219 57.6964C9.92699 57.4044 9.92699 56.9311 10.219 56.6392L11.6396 55.2189C11.9313 54.927 12.405 54.927 12.6968 55.2189L14.1173 56.6392C14.4094 56.9312 14.4094 57.4046 14.1173 57.6964C13.9714 57.8422 13.78 57.9153 13.5887 57.9153Z" fill="black"/>
</svg>
