<svg width="360" height="179" viewBox="0 0 360 179" fill="none" xmlns="http://www.w3.org/2000/svg">
<path fill-rule="evenodd" clip-rule="evenodd" d="M0 0H360V178.79L0 179V0Z" fill="#81CFFA"/>
<mask id="mask0_0_1482" style="mask-type:luminance" maskUnits="userSpaceOnUse" x="0" y="0" width="360" height="179">
<path fill-rule="evenodd" clip-rule="evenodd" d="M0 0H360V178.79L0 179V0Z" fill="white"/>
</mask>
<g mask="url(#mask0_0_1482)">
<mask id="mask1_0_1482" style="mask-type:luminance" maskUnits="userSpaceOnUse" x="119" y="122" width="181" height="14">
<path fill-rule="evenodd" clip-rule="evenodd" d="M177.495 122.884C158.662 124.297 147.922 134.069 147.922 134.069L143.253 131.543C130.697 132.055 119.283 134.88 119.283 134.88L299.682 135.298C299.682 135.298 277.18 130.928 263.939 133.249C250.696 135.57 218.42 132.843 218.42 132.843L205.124 133.491C198.929 123.271 180.608 122.881 177.846 122.881C177.618 122.881 177.495 122.884 177.495 122.884Z" fill="white"/>
</mask>
<g mask="url(#mask1_0_1482)">
<path fill-rule="evenodd" clip-rule="evenodd" d="M177.495 122.884C158.662 124.297 147.922 134.069 147.922 134.069L143.253 131.543C130.697 132.055 119.283 134.88 119.283 134.88L299.682 135.298C299.682 135.298 277.18 130.928 263.939 133.249C250.696 135.57 218.42 132.843 218.42 132.843L205.124 133.491C198.929 123.271 180.608 122.881 177.846 122.881C177.618 122.881 177.495 122.884 177.495 122.884Z" fill="white"/>
</g>
<mask id="mask2_0_1482" style="mask-type:luminance" maskUnits="userSpaceOnUse" x="279" y="12" width="182" height="41">
<path fill-rule="evenodd" clip-rule="evenodd" d="M362.412 15.3744C358.968 16.6661 350.835 30.2346 348.015 32.0954C345.193 33.9562 336.888 36.936 336.888 36.936C336.888 36.936 331.15 26.6055 321.514 26.8049C311.878 27.005 308.611 42.8086 308.611 42.8086C308.611 42.8086 302.758 45.2904 301.2 45.8977C299.642 46.5057 296.821 50.9369 296.821 50.9369C294.228 51.9742 279.866 52.6602 279.866 52.6602C279.866 52.6602 290.33 53.6807 307.643 51.9933C314.626 51.1149 321.617 51.6465 330.227 52.1782C340.069 52.7855 352.029 53.3927 368.516 51.8948C409.327 48.1862 427.758 42.8651 427.758 42.8651C440.364 40.4865 460.214 38.7685 460.214 38.7685L443.901 39.0878C444.015 26.4856 432.173 24.7837 432.173 24.7837C417.159 24.0305 399.006 25.5353 399.006 25.5353L400.133 17.9005C394.452 13.8795 387.075 12.6191 380.266 12.6191C372.36 12.6199 365.223 14.3203 362.412 15.3744Z" fill="white"/>
</mask>
<g mask="url(#mask2_0_1482)">
<path fill-rule="evenodd" clip-rule="evenodd" d="M362.412 15.3744C358.968 16.6661 350.835 30.2346 348.015 32.0954C345.193 33.9562 336.888 36.936 336.888 36.936C336.888 36.936 331.15 26.6055 321.514 26.8049C311.878 27.005 308.611 42.8086 308.611 42.8086C308.611 42.8086 302.758 45.2904 301.2 45.8977C299.642 46.5057 296.821 50.9369 296.821 50.9369C294.228 51.9742 279.866 52.6602 279.866 52.6602C279.866 52.6602 290.33 53.6807 307.643 51.9933C314.626 51.1149 321.617 51.6465 330.227 52.1782C340.069 52.7855 352.029 53.3927 368.516 51.8948C409.327 48.1862 427.758 42.8651 427.758 42.8651C440.364 40.4865 460.214 38.7685 460.214 38.7685L443.901 39.0878C444.015 26.4856 432.173 24.7837 432.173 24.7837C417.159 24.0305 399.006 25.5353 399.006 25.5353L400.133 17.9005C394.452 13.8795 387.075 12.6191 380.266 12.6191C372.36 12.6199 365.223 14.3203 362.412 15.3744Z" fill="white"/>
</g>
<path fill-rule="evenodd" clip-rule="evenodd" d="M349.107 31.3196C349.107 31.3196 339.664 36.3126 337.188 36.9881C337.188 36.9881 349.12 37.2019 352.419 39.5991C356.179 42.3308 358.365 52.3749 358.365 52.3749C358.365 52.3749 367.677 49.6089 369.52 48.6378C369.52 48.6378 362.162 33.353 363.107 32.7116C364.053 32.0702 369.717 20.3733 370.484 17.5646C370.919 15.9683 367.948 15.624 365.303 15.624C363.294 15.624 361.473 15.8221 361.473 15.8221C361.473 15.8221 355.391 22.5832 349.107 31.3196Z" fill="url(#paint0_linear_0_1482)"/>
<mask id="mask3_0_1482" style="mask-type:luminance" maskUnits="userSpaceOnUse" x="300" y="42" width="21" height="5">
<path fill-rule="evenodd" clip-rule="evenodd" d="M300.187 46.3744C300.187 46.3744 309.534 46.8081 320.097 45.1026C320.097 45.1026 312.264 43.8254 308.49 42.7036C308.49 42.7036 301.222 45.3114 300.187 46.3744Z" fill="white"/>
</mask>
<g mask="url(#mask3_0_1482)">
<path fill-rule="evenodd" clip-rule="evenodd" d="M300.187 46.3744C300.187 46.3744 309.534 46.8081 320.097 45.1026C320.097 45.1026 312.264 43.8254 308.49 42.7036C308.49 42.7036 301.222 45.3114 300.187 46.3744Z" fill="url(#paint1_linear_0_1482)"/>
</g>
<mask id="mask4_0_1482" style="mask-type:luminance" maskUnits="userSpaceOnUse" x="309" y="26" width="22" height="16">
<path fill-rule="evenodd" clip-rule="evenodd" d="M318.029 27.4852C311.356 30.3207 309.059 41.2193 309.059 41.2193C309.059 41.2193 316.055 40.3336 319.997 37.4399C319.997 37.4399 322.581 30.0438 324.644 28.7809C326.706 27.5196 330.108 29.3156 330.108 29.3156C330.108 29.3156 326.928 26.5703 322.436 26.5703C321.071 26.5703 319.584 26.8235 318.029 27.4852Z" fill="white"/>
</mask>
<g mask="url(#mask4_0_1482)">
<path fill-rule="evenodd" clip-rule="evenodd" d="M318.029 27.4852C311.356 30.3207 309.059 41.2193 309.059 41.2193C309.059 41.2193 316.055 40.3336 319.997 37.4399C319.997 37.4399 322.581 30.0438 324.644 28.7809C326.706 27.5196 330.108 29.3156 330.108 29.3156C330.108 29.3156 326.928 26.5703 322.436 26.5703C321.071 26.5703 319.584 26.8235 318.029 27.4852Z" fill="url(#paint2_linear_0_1482)"/>
</g>
<mask id="mask5_0_1482" style="mask-type:luminance" maskUnits="userSpaceOnUse" x="358" y="38" width="30" height="10">
<path fill-rule="evenodd" clip-rule="evenodd" d="M368.527 39.1858C362.418 40.7591 358.842 46.3005 358.842 46.3005C364.481 49.4449 371.813 46.4309 371.813 46.4309C371.813 46.4309 375.816 40.0673 377.037 40.0249C378.259 39.9825 387.396 39.1973 387.396 39.1973C387.396 39.1973 379.819 38.9536 374.216 38.9536C371.472 38.9536 369.202 39.0122 368.527 39.1858Z" fill="white"/>
</mask>
<g mask="url(#mask5_0_1482)">
<path fill-rule="evenodd" clip-rule="evenodd" d="M368.527 39.1858C362.418 40.7591 358.842 46.3005 358.842 46.3005C364.481 49.4449 371.813 46.4309 371.813 46.4309C371.813 46.4309 375.816 40.0673 377.037 40.0249C378.259 39.9825 387.396 39.1973 387.396 39.1973C387.396 39.1973 379.819 38.9536 374.216 38.9536C371.472 38.9536 369.202 39.0122 368.527 39.1858Z" fill="url(#paint3_linear_0_1482)"/>
</g>
<mask id="mask6_0_1482" style="mask-type:luminance" maskUnits="userSpaceOnUse" x="188" y="65" width="86" height="16">
<path fill-rule="evenodd" clip-rule="evenodd" d="M219.534 70.7531C218.429 72.7679 217.057 75.8326 217.057 75.8326C217.057 75.8326 213.36 74.2353 210.322 74.0393C207.284 73.8433 201.715 75.6197 201.571 76.2762C201.426 76.9326 201.531 78.0841 201.531 78.0841L188.916 80.5431C188.916 80.5431 197.698 81.019 203.184 80.4839C203.184 80.4839 227.684 79.2187 239.445 77.4999C251.209 75.7811 273.083 72.6718 273.083 72.6718L262.745 72.887C262.745 72.887 257.078 70.4787 252.036 70.6863C246.995 70.893 244.695 73.5804 244.695 73.5804C244.695 73.5804 239.336 66.3201 234.63 65.3977C234.18 65.3093 233.688 65.2686 233.166 65.2686C228.224 65.2686 220.533 68.9306 219.534 70.7531Z" fill="white"/>
</mask>
<g mask="url(#mask6_0_1482)">
<path fill-rule="evenodd" clip-rule="evenodd" d="M219.534 70.7531C218.429 72.7679 217.057 75.8326 217.057 75.8326C217.057 75.8326 213.36 74.2353 210.322 74.0393C207.284 73.8433 201.715 75.6197 201.571 76.2762C201.426 76.9326 201.531 78.0841 201.531 78.0841L188.916 80.5431C188.916 80.5431 197.698 81.019 203.184 80.4839C203.184 80.4839 227.684 79.2187 239.445 77.4999C251.209 75.7811 273.083 72.6718 273.083 72.6718L262.745 72.887C262.745 72.887 257.078 70.4787 252.036 70.6863C246.995 70.893 244.695 73.5804 244.695 73.5804C244.695 73.5804 239.336 66.3201 234.63 65.3977C234.18 65.3093 233.688 65.2686 233.166 65.2686C228.224 65.2686 220.533 68.9306 219.534 70.7531Z" fill="white"/>
</g>
<mask id="mask7_0_1482" style="mask-type:luminance" maskUnits="userSpaceOnUse" x="217" y="65" width="19" height="12">
<path fill-rule="evenodd" clip-rule="evenodd" d="M230.425 65.679C226.37 66.1793 220.634 69.1141 219.749 70.2783C218.862 71.4432 217.138 76.0342 217.138 76.0342C217.138 76.0342 224.317 76.5255 227.301 76.0342C227.301 76.0342 227.394 70.325 228.607 69.1141C229.818 67.9033 233.707 66.0083 235.772 66.2569C235.772 66.2569 234.921 65.5464 232.432 65.5464C231.854 65.5464 231.189 65.5848 230.425 65.679Z" fill="white"/>
</mask>
<g mask="url(#mask7_0_1482)">
<path fill-rule="evenodd" clip-rule="evenodd" d="M230.425 65.679C226.37 66.1793 220.634 69.1141 219.749 70.2783C218.862 71.4432 217.138 76.0342 217.138 76.0342C217.138 76.0342 224.317 76.5255 227.301 76.0342C227.301 76.0342 227.394 70.325 228.607 69.1141C229.818 67.9033 233.707 66.0083 235.772 66.2569C235.772 66.2569 234.921 65.5464 232.432 65.5464C231.854 65.5464 231.189 65.5848 230.425 65.679Z" fill="url(#paint4_linear_0_1482)"/>
</g>
<mask id="mask8_0_1482" style="mask-type:luminance" maskUnits="userSpaceOnUse" x="201" y="74" width="13" height="3">
<path fill-rule="evenodd" clip-rule="evenodd" d="M208.641 74.287C205.906 74.7556 201.801 75.6359 201.729 76.3097C201.729 76.3097 202.863 76.7121 204.931 76.9129C206.998 77.1145 213.298 75.2458 213.298 75.2458L213.745 74.7419C213.745 74.7419 212.238 74.1538 210.241 74.1538C209.734 74.1538 209.195 74.192 208.641 74.287Z" fill="white"/>
</mask>
<g mask="url(#mask8_0_1482)">
<path fill-rule="evenodd" clip-rule="evenodd" d="M208.641 74.287C205.906 74.7556 201.801 75.6359 201.729 76.3097C201.729 76.3097 202.863 76.7121 204.931 76.9129C206.998 77.1145 213.298 75.2458 213.298 75.2458L213.745 74.7419C213.745 74.7419 212.238 74.1538 210.241 74.1538C209.734 74.1538 209.195 74.192 208.641 74.287Z" fill="url(#paint5_linear_0_1482)"/>
</g>
<mask id="mask9_0_1482" style="mask-type:luminance" maskUnits="userSpaceOnUse" x="241" y="70" width="19" height="7">
<path fill-rule="evenodd" clip-rule="evenodd" d="M250.292 70.8934C246.07 71.5308 244.711 73.8237 244.711 73.8237L241.302 76.2517C241.302 76.2517 249.394 74.701 249.834 74.5146C250.273 74.3283 252.97 72.2767 253.661 72.0278C254.351 71.7789 259.283 72.0278 259.283 72.0278C259.283 72.0278 255.858 70.7554 252.242 70.7554C251.592 70.7554 250.936 70.7961 250.292 70.8934Z" fill="white"/>
</mask>
<g mask="url(#mask9_0_1482)">
<path fill-rule="evenodd" clip-rule="evenodd" d="M250.292 70.8934C246.07 71.5308 244.711 73.8237 244.711 73.8237L241.302 76.2517C241.302 76.2517 249.394 74.701 249.834 74.5146C250.273 74.3283 252.97 72.2767 253.661 72.0278C254.351 71.7789 259.283 72.0278 259.283 72.0278C259.283 72.0278 255.858 70.7554 252.242 70.7554C251.592 70.7554 250.936 70.7961 250.292 70.8934Z" fill="url(#paint6_linear_0_1482)"/>
</g>
<mask id="mask10_0_1482" style="mask-type:luminance" maskUnits="userSpaceOnUse" x="227" y="6" width="49" height="10">
<path fill-rule="evenodd" clip-rule="evenodd" d="M257.899 9.87947C258.527 11.023 259.308 12.7624 259.308 12.7624C259.308 12.7624 261.41 11.8558 263.137 11.7446C264.864 11.6333 268.031 12.6416 268.113 13.0142C268.195 13.3867 268.135 14.0403 268.135 14.0403L275.308 15.436C275.308 15.436 270.315 15.706 267.195 15.4024C267.195 15.4024 253.265 14.6842 246.578 13.7087C239.889 12.7332 227.452 10.9684 227.452 10.9684L233.33 11.0906C233.33 11.0906 236.552 9.72372 239.419 9.84152C242.285 9.95888 243.593 11.4841 243.593 11.4841C243.593 11.4841 246.64 7.36344 249.316 6.8399C249.571 6.78972 249.851 6.7666 250.148 6.7666C252.958 6.7666 257.331 8.84505 257.899 9.87947Z" fill="white"/>
</mask>
<g mask="url(#mask10_0_1482)">
<path fill-rule="evenodd" clip-rule="evenodd" d="M257.899 9.87947C258.527 11.023 259.308 12.7624 259.308 12.7624C259.308 12.7624 261.41 11.8558 263.137 11.7446C264.864 11.6333 268.031 12.6416 268.113 13.0142C268.195 13.3867 268.135 14.0403 268.135 14.0403L275.308 15.436C275.308 15.436 270.315 15.706 267.195 15.4024C267.195 15.4024 253.265 14.6842 246.578 13.7087C239.889 12.7332 227.452 10.9684 227.452 10.9684L233.33 11.0906C233.33 11.0906 236.552 9.72372 239.419 9.84152C242.285 9.95888 243.593 11.4841 243.593 11.4841C243.593 11.4841 246.64 7.36344 249.316 6.8399C249.571 6.78972 249.851 6.7666 250.148 6.7666C252.958 6.7666 257.331 8.84505 257.899 9.87947Z" fill="white"/>
</g>
<mask id="mask11_0_1482" style="mask-type:luminance" maskUnits="userSpaceOnUse" x="248" y="6" width="12" height="7">
<path fill-rule="evenodd" clip-rule="evenodd" d="M251.688 6.88266C254.011 7.1713 257.298 8.86448 257.805 9.5361C258.313 10.2081 259.301 12.8568 259.301 12.8568C259.301 12.8568 255.187 13.1402 253.478 12.8568C253.478 12.8568 253.424 9.56305 252.729 8.86448C252.035 8.16591 249.807 7.07263 248.623 7.21608C248.623 7.21608 249.111 6.80615 250.538 6.80615C250.869 6.80615 251.25 6.82832 251.688 6.88266Z" fill="white"/>
</mask>
<g mask="url(#mask11_0_1482)">
<path fill-rule="evenodd" clip-rule="evenodd" d="M251.688 6.88266C254.011 7.1713 257.298 8.86448 257.805 9.5361C258.313 10.2081 259.301 12.8568 259.301 12.8568C259.301 12.8568 255.187 13.1402 253.478 12.8568C253.478 12.8568 253.424 9.56305 252.729 8.86448C252.035 8.16591 249.807 7.07263 248.623 7.21608C248.623 7.21608 249.111 6.80615 250.538 6.80615C250.869 6.80615 251.25 6.82832 251.688 6.88266Z" fill="url(#paint7_linear_0_1482)"/>
</g>
<mask id="mask12_0_1482" style="mask-type:luminance" maskUnits="userSpaceOnUse" x="261" y="11" width="7" height="3">
<path fill-rule="evenodd" clip-rule="evenodd" d="M264.023 11.9203C265.58 12.1881 267.915 12.6912 267.957 13.0762C267.957 13.0762 267.311 13.3061 266.135 13.4209C264.958 13.5361 261.374 12.4682 261.374 12.4682L261.12 12.1803C261.12 12.1803 261.977 11.8442 263.113 11.8442C263.402 11.8442 263.708 11.866 264.023 11.9203Z" fill="white"/>
</mask>
<g mask="url(#mask12_0_1482)">
<path fill-rule="evenodd" clip-rule="evenodd" d="M264.023 11.9203C265.58 12.1881 267.915 12.6912 267.957 13.0762C267.957 13.0762 267.311 13.3061 266.135 13.4209C264.958 13.5361 261.374 12.4682 261.374 12.4682L261.12 12.1803C261.12 12.1803 261.977 11.8442 263.113 11.8442C263.402 11.8442 263.708 11.866 264.023 11.9203Z" fill="url(#paint8_linear_0_1482)"/>
</g>
<mask id="mask13_0_1482" style="mask-type:luminance" maskUnits="userSpaceOnUse" x="235" y="9" width="11" height="4">
<path fill-rule="evenodd" clip-rule="evenodd" d="M240.311 10.0078C242.717 10.3619 243.491 11.6358 243.491 11.6358L245.433 12.9847C245.433 12.9847 240.822 12.1231 240.572 12.0196C240.322 11.9161 238.785 10.7764 238.392 10.6381C237.998 10.4998 235.188 10.6381 235.188 10.6381C235.188 10.6381 237.14 9.93115 239.2 9.93115C239.57 9.93115 239.944 9.95378 240.311 10.0078Z" fill="white"/>
</mask>
<g mask="url(#mask13_0_1482)">
<path fill-rule="evenodd" clip-rule="evenodd" d="M240.311 10.0078C242.717 10.3619 243.491 11.6358 243.491 11.6358L245.433 12.9847C245.433 12.9847 240.822 12.1231 240.572 12.0196C240.322 11.9161 238.785 10.7764 238.392 10.6381C237.998 10.4998 235.188 10.6381 235.188 10.6381C235.188 10.6381 237.14 9.93115 239.2 9.93115C239.57 9.93115 239.944 9.95378 240.311 10.0078Z" fill="url(#paint9_linear_0_1482)"/>
</g>
<path fill-rule="evenodd" clip-rule="evenodd" d="M320.449 82.874V86.7882H316.692L314.056 96.1606L313.03 159.443L334.011 161.771V95.9836L330.719 86.7882H327.23V82.874H320.449Z" fill="#679359"/>
<path fill-rule="evenodd" clip-rule="evenodd" d="M231.853 75.366V92.9079L227.354 95.7666H219.142V85.8173L218.463 82.7874L215.779 82.7753V79.2711H209.237V82.7753H207.562L206.022 86.1703V110.459L190.777 122.186L171.86 145.131H175.406L172.424 178.973L544.841 178.559L543.01 139.873H544.869L535.918 126.01L511.257 124.92V83.6914L502.448 78.2085L501.688 56.6553H501.418L501.905 78.1516L479.681 79.2711L479.296 86.1726L477.761 87.7672L477.317 103.414L457.315 133.006H439.365V129.053L438.639 128.148L438.343 118.962L437.575 116.186L436.334 118.608V128.116L435.624 128.592V132.811L428.578 146.183H430.187L428.578 163.148L425.114 166.469L416.535 164.929L394.377 161.55L385.348 157.809L385.698 115.602L374.386 95.7666H369.26L368.487 84.9316L367.311 83.5138V54.8008H366.625V83.1586L342.08 99.1366L339.547 98.8837L319.85 115.778L322.211 115.602L321.138 150.784L319.256 151.686L307.82 161.626L305.439 156.618L303.864 90.3076L292.189 84.1635L252.14 87.472L252.027 93.144L249.741 95.7666H244.112V75.366H231.853Z" fill="url(#paint10_linear_0_1482)"/>
<path fill-rule="evenodd" clip-rule="evenodd" d="M307.194 160.261L305.439 156.618V91.2878L292.156 84.1362L292.728 164.374L307.194 160.261Z" fill="#679359"/>
<path fill-rule="evenodd" clip-rule="evenodd" d="M243.988 95.7051V180.399L251.486 189.096L249.602 95.7051H243.988Z" fill="#679359"/>
<path fill-rule="evenodd" clip-rule="evenodd" d="M226.884 96.0298L226.74 180.262H231.578L231.47 93.1812L226.884 96.0298Z" fill="#679359"/>
<path fill-rule="evenodd" clip-rule="evenodd" d="M339.693 178.332L341.582 178.614L342.118 99.1128L339.693 98.8604V178.332Z" fill="#679359"/>
<mask id="mask14_0_1482" style="mask-type:luminance" maskUnits="userSpaceOnUse" x="346" y="96" width="2" height="80">
<path fill-rule="evenodd" clip-rule="evenodd" d="M346.527 97.9883L346.19 175.469L347.487 175.919V96.9863L346.527 97.9883Z" fill="white"/>
</mask>
<g mask="url(#mask14_0_1482)">
<path fill-rule="evenodd" clip-rule="evenodd" d="M346.527 97.9883L346.19 175.469L347.487 175.919V96.9863L346.527 97.9883Z" fill="#679359"/>
</g>
<mask id="mask15_0_1482" style="mask-type:luminance" maskUnits="userSpaceOnUse" x="350" y="94" width="3" height="80">
<path fill-rule="evenodd" clip-rule="evenodd" d="M351.179 95.1064L350.842 172.623L352.138 173.071V94.104L351.179 95.1064Z" fill="white"/>
</mask>
<g mask="url(#mask15_0_1482)">
<path fill-rule="evenodd" clip-rule="evenodd" d="M351.179 95.1064L350.842 172.623L352.138 173.071V94.104L351.179 95.1064Z" fill="#679359"/>
</g>
<mask id="mask16_0_1482" style="mask-type:luminance" maskUnits="userSpaceOnUse" x="356" y="91" width="2" height="80">
<path fill-rule="evenodd" clip-rule="evenodd" d="M356.359 92.3544L356.021 169.871L357.318 170.32V91.3521L356.359 92.3544Z" fill="white"/>
</mask>
<g mask="url(#mask16_0_1482)">
<path fill-rule="evenodd" clip-rule="evenodd" d="M356.359 92.3544L356.021 169.871L357.318 170.32V91.3521L356.359 92.3544Z" fill="#679359"/>
</g>
<path d="M211.429 60.8165C211.099 60.9693 210.955 61.3612 211.106 61.6931L211.263 62.0241C212.106 61.8575 212.746 61.6993 213.708 60.9743C213.764 60.9329 213.822 60.8948 213.882 60.86L213.709 60.489C213.619 60.291 213.436 60.1512 213.222 60.1169C213.09 60.0923 212.954 60.1103 212.834 60.1683L211.429 60.8165Z" fill="#98C883"/>
<path d="M199.211 62.9932C199.211 62.9932 198.686 62.0079 197.805 61.489C197.65 61.404 197.494 61.319 197.339 61.2259C197.238 62.8332 198.629 64.2121 197.27 64.9446C197.798 65.5085 198.122 65.8774 198.122 65.8774C199.222 66.7274 198.122 65.8774 202.1 65.9144C206.078 65.9515 207.749 63.7938 209.682 62.395C209.409 62.4715 209.115 62.565 208.789 62.6818C206.761 63.4049 203.571 63.8545 199.847 62.4393L199.211 62.9932Z" fill="#2149FE"/>
<path d="M187.901 56.602C189.761 58.0371 192.711 58.3027 192.093 59.7121C193.08 59.7037 193.481 59.6584 193.481 59.6584C195.347 61.1742 196.822 60.9114 196.822 60.9114C196.997 61.0222 197.169 61.1254 197.34 61.2269C197.512 61.3284 197.651 61.405 197.807 61.49C198.465 61.8537 199.147 62.1705 199.85 62.4383C203.575 63.8541 206.764 63.4038 208.792 62.6807C209.118 62.564 209.412 62.4705 209.685 62.394C210.321 62.2093 210.822 62.1166 211.266 62.0265L211.11 61.6954C211.055 61.5759 211.036 61.4428 211.056 61.3128C210.599 60.3251 209.904 58.3818 210.256 56.2757C208.77 55.9582 206.761 55.8438 205.115 57.4417C205.115 57.4417 202.539 56.8021 198.567 57.4058C198.175 57.4633 197.77 57.5371 197.352 57.6213C196.789 57.4619 196.197 57.4319 195.621 57.5334C195.621 57.5334 193.669 54.8754 189.943 55.9472C189.126 56.183 188.461 56.404 187.901 56.602Z" fill="#2149FE"/>
<path d="M188.978 56.2407C191 57.3109 193.1 57.8916 195.206 57.0892C195.356 57.2256 195.495 57.3742 195.621 57.5334C196.196 57.4313 196.788 57.4608 197.351 57.6195C197.769 57.5353 198.174 57.4615 198.567 57.404C201.188 57.0054 203.194 57.1484 204.263 57.2946C205.238 58.2866 206.789 58.8481 208.222 59.0862C208.928 59.1995 209.651 59.0572 210.261 58.6846C210.405 59.5931 210.673 60.4774 211.059 61.3123C211.039 61.4422 211.058 61.5753 211.113 61.6949L211.269 62.0259C210.825 62.116 210.324 62.2087 209.688 62.3934C209.415 62.4699 209.121 62.5634 208.795 62.6801C208.757 62.6943 208.713 62.7066 208.673 62.7211C206.669 59.6194 202.066 58.7958 198.61 60.0061C198.043 60.2532 197.542 60.6303 197.147 61.107C197.039 61.0418 196.93 60.9766 196.822 60.9094C196.771 60.9171 196.718 60.9217 196.666 60.9232C196.689 60.72 196.689 60.5147 196.664 60.3115C196.254 58.9786 195.027 58.7733 193.697 59.1834C193.48 59.3171 193.287 59.4856 193.125 59.682C192.901 59.6938 192.566 59.706 192.093 59.711C192.711 58.3016 189.761 58.0361 187.901 56.6009C188.221 56.4888 188.581 56.3668 188.978 56.2407Z" fill="#2149FE"/>
<path d="M213.374 50.2587C213.183 50.4532 213.012 50.6668 212.864 50.896C216.584 49.6738 218.873 50.376 218.873 50.376C220.612 49.0313 223.332 49.1295 223.934 50.8566C223.859 50.5123 223.831 50.1595 223.851 49.8078C221.817 48.0606 217.951 46.1339 212.18 45.7074C206.409 45.281 202.471 45.0646 197.12 42.3485C197.12 42.3485 194.756 43.1374 195.184 45.5294C195.612 47.9214 196.258 48.7436 194.688 50.5485C193.118 52.3535 193.509 54.5784 195.021 55.0204C196.532 55.4624 198.407 56.5241 198.567 57.4059C202.539 56.8022 205.114 57.4418 205.114 57.4418C206.761 55.8439 208.774 55.9613 210.26 56.2788C210.899 56.4132 211.441 56.5875 211.81 56.6768C212.047 56.7287 212.292 56.7355 212.532 56.6967C213.739 56.5187 215.275 55.3917 215.937 53.6595C214.661 53.6055 213.424 53.199 212.363 52.485C212.366 52.696 212.403 52.9051 212.475 53.1037C212.475 53.1037 209.299 53.9764 205.961 53.412C205.776 53.3991 205.595 53.4695 205.467 53.604C203.971 54.9863 203.923 55.0889 202.873 54.7343C201.2 54.1666 201.542 53.6645 202.522 52.9873C203.18 52.5295 204.031 52.2775 204.888 52.0788C205.745 51.8801 209.941 50.2939 211.628 49.927C215.078 49.1793 213.815 49.6884 213.374 50.2587Z" fill="#D95214"/>
<g style="mix-blend-mode:multiply">
<path d="M212.359 52.4817C212.378 52.4951 212.396 52.5085 212.415 52.5226L212.358 52.5171C212.361 52.5021 212.359 52.4926 212.359 52.4817Z" fill="#F5D2BD"/>
</g>
<path d="M202.999 52.7017C202.834 52.7828 202.674 52.8755 202.522 52.9789C201.541 53.6561 201.199 54.1582 202.873 54.7259C203.923 55.0805 203.971 54.9779 205.467 53.5955C205.595 53.4611 205.775 53.3907 205.96 53.4036C209.3 53.9624 212.474 53.0953 212.474 53.0953C212.407 52.9065 212.37 52.7082 212.365 52.5079L212.422 52.5134C213.47 53.2036 214.684 53.5968 215.936 53.6511C215.274 55.3833 213.738 56.5103 212.531 56.6883C212.292 56.7271 212.047 56.7203 211.809 56.6683C211.44 56.5791 210.899 56.4048 210.26 56.2704C208.774 55.9529 206.764 55.8384 205.118 57.4364C205.118 57.4364 202.542 56.7968 198.571 57.4004C198.411 56.5186 196.536 55.4587 195.024 55.0149C194.542 54.8728 194.144 54.5307 193.93 54.0753C196.97 53.5444 199.989 53.0268 202.999 52.7017Z" fill="#D95214"/>
<path d="M195.602 47.5469C195.502 46.9897 195.33 46.3542 195.186 45.526C194.758 43.134 197.123 42.3451 197.123 42.3451C202.472 45.0597 206.414 45.2798 212.184 45.7083C217.953 46.1368 221.821 48.0615 223.855 49.8087C223.835 50.1604 223.863 50.5132 223.938 50.8575C223.435 49.4152 221.457 49.1129 219.805 49.8347C218.503 49.3452 217.117 49.1975 215.571 48.9365C209.086 47.9321 202.086 48.6555 195.602 47.5469Z" fill="#DD3A18"/>
<path d="M227.054 55.3812L226.164 55.5326C226.164 55.5326 226.844 55.9628 227.834 55.5955C227.884 55.4755 227.933 55.3546 227.993 55.2192C228.06 55.0602 228.131 54.8915 228.21 54.7053C227.972 55.0896 227.717 55.2728 227.054 55.3812Z" fill="#DD3A18"/>
<path d="M223.94 50.8644C224.053 51.2064 224.088 51.5689 224.045 51.9261C224.045 51.9261 223.33 54.1772 226.161 55.5306C226.161 55.5306 224.252 54.1538 224.802 51.3892L223.94 50.8644Z" fill="#DD3A18"/>
<path d="M227.022 51.0178C226.789 50.9685 226.611 51.2328 226.847 51.5152C227.082 51.7976 227.298 51.6015 227.298 51.6015C227.198 51.5352 227.119 51.4428 227.068 51.3345C227.022 51.2358 227.006 51.1256 227.022 51.0178Z" fill="#C1936C"/>
<path d="M224.802 51.3892C225.08 51.5572 225.416 51.7595 225.79 51.9883C226.129 52.1935 226.833 52.106 226.833 52.106C226.275 51.756 225.941 50.4301 227.121 50.7072C227.248 50.7788 227.393 50.8109 227.539 50.7995C227.539 50.7995 225.626 48.2067 227.404 47.476C226.474 47.8012 225.515 48.36 224.559 48.4206C224.472 48.4261 224.394 48.432 224.317 48.4306C224.288 48.4705 223.902 48.909 223.852 49.8095C223.832 50.1611 223.859 50.514 223.934 50.8583L224.802 51.3892Z" fill="#472A18"/>
<path d="M224.641 47.2378C224.176 47.766 223.492 48.0479 222.79 48.0009C222.79 48.0009 222.871 48.4797 224.319 48.4366C224.395 48.4373 224.476 48.4343 224.56 48.4265C225.519 48.3675 226.475 47.8072 227.405 47.482C227.492 47.4435 227.582 47.4135 227.675 47.3924C227.703 47.3851 227.733 47.3769 227.766 47.3698C228.348 47.2117 228.909 47.1794 229.461 47.4569C229.461 47.4569 231.333 45.1489 229.282 44.9053C227.23 44.6618 225.436 46.3428 224.641 47.2378Z" fill="#78402A"/>
<path d="M230.338 49.7047C230.005 49.8789 229.733 50.1516 229.559 50.4859C229.559 50.4859 229.779 50.6466 230.604 50.2873C230.604 50.2873 230.787 49.9488 230.338 49.7047Z" fill="white"/>
<path fill-rule="evenodd" clip-rule="evenodd" d="M226.828 52.1021C226.27 51.7518 225.936 50.4259 227.116 50.7034L227.12 50.7064C227.248 50.7781 227.395 50.8099 227.541 50.7976C227.541 50.7976 225.627 48.2132 227.406 47.4802C227.495 47.4481 227.585 47.4186 227.676 47.3907C227.676 47.3907 227.72 47.3782 227.767 47.3682C227.903 47.3377 228.56 47.3546 229.454 47.4346L229.478 47.4426C229.478 47.4426 229.574 47.4747 229.654 47.5117C229.754 47.5597 229.849 47.6168 229.938 47.6825C230.21 47.9102 230.431 48.1924 230.586 48.511C230.693 48.7394 230.765 48.9827 230.799 49.2325C231.115 49.878 231.335 50.1149 231.485 50.2008C231.564 50.2454 231.639 50.2906 231.717 50.3379C231.743 50.3537 231.77 50.3697 231.797 50.386C231.894 50.4319 231.983 50.4909 232.063 50.5614C232.064 50.562 232.065 50.5626 232.065 50.5634C232.098 50.5964 232.274 50.7772 232.225 50.9432C232.202 50.9965 232.167 51.0442 232.124 51.0832C232.077 51.1446 232.022 51.1997 231.961 51.2473C231.826 51.3404 231.684 51.4227 231.536 51.4935C231.767 52.1452 231.893 52.4593 231.966 52.6234C231.973 52.636 232.018 52.7375 232.074 52.8763C232.133 53.0064 232.183 53.1403 232.225 53.277C232.264 53.4619 232.257 53.6533 232.206 53.8349C232.184 53.8783 232.157 53.9197 232.128 53.9586C232.004 54.1293 231.737 54.3642 231.007 54.4285C230.664 54.4587 230.446 54.4307 230.061 54.3811C229.951 54.3669 229.826 54.3509 229.681 54.334C229.203 54.2772 228.784 54.2437 228.46 54.2249C228.371 54.4047 228.293 54.5545 228.214 54.6828C228.212 54.6889 228.208 54.6945 228.203 54.6991C227.965 55.0833 227.712 55.2671 227.048 55.3753L226.158 55.5263C226.158 55.5263 224.248 54.1488 224.798 51.3845C224.843 51.4121 224.891 51.4407 224.939 51.4701C225.187 51.6198 225.473 51.7926 225.785 51.9839C226.125 52.1893 226.828 52.1021 226.828 52.1021ZM227.016 51.0168C226.785 50.9654 226.608 51.2296 226.842 51.5141C227.074 51.796 227.291 51.6026 227.291 51.6026C227.191 51.5363 227.112 51.4439 227.061 51.3355C227.015 51.2361 226.999 51.1251 227.016 51.0168Z" fill="#EBCAB2"/>
<path d="M231.753 51.7577C231.711 51.7535 231.669 51.7656 231.636 51.7915C231.559 51.832 231.487 51.8792 231.418 51.9327C231.346 52.0003 231.129 52.1061 230.477 52.2715C230.683 52.2921 230.891 52.3013 231.098 52.2992C231.195 52.3013 231.292 52.298 231.389 52.2894C231.584 52.2737 231.775 52.2334 231.96 52.1694C231.943 52.0659 231.91 51.9655 231.864 51.8714C231.821 51.8012 231.793 51.7667 231.753 51.7577Z" fill="#F1F1F0"/>
<path d="M215.933 53.6563C215.27 55.3885 213.735 56.5155 212.527 56.6935C212.357 58.0059 212.823 59.3001 213.225 60.1192C213.439 60.1535 213.622 60.2932 213.712 60.4913L213.885 60.8623C215.694 59.789 220.074 60.8308 221.833 59.1951C222.352 59.2378 222.873 59.1702 223.364 58.9968L224.526 58.5797L226.589 57.392C227.254 56.905 227.47 56.4563 227.831 55.5963C226.838 55.9659 226.16 55.5334 226.16 55.5334C223.329 54.18 224.045 51.9288 224.045 51.9288C224.088 51.5717 224.052 51.2092 223.94 50.8672C223.338 49.14 220.618 49.0419 218.879 50.3865C218.879 50.3865 216.59 49.6843 212.87 50.9065C212.607 51.3119 212.344 51.8741 212.36 52.4889C213.421 53.2002 214.658 53.6042 215.933 53.6563Z" fill="#2149FE"/>
<path d="M212.359 52.4821C212.339 51.8643 212.607 51.3051 212.869 50.8997C212.892 50.8915 212.915 50.8862 212.938 50.878C213.897 52.4781 217.334 53.5891 218.654 50.8632C218.695 51.9222 219.277 53.0189 220.323 53.7815C222.053 54.7702 223.369 53.9513 223.967 52.4646C223.956 52.7844 223.999 53.104 224.096 53.4093C222.407 54.6626 220.782 55.8056 220.103 57.4119C219.824 58.3015 220.695 58.6754 221.75 59.1235C221.656 59.3818 221.095 59.685 220.856 59.7751C219.557 59.2787 218.861 57.5972 217.547 57.6156C216.164 57.9653 214.021 58.9518 213.37 60.1627C213.324 60.1428 213.276 60.1286 213.226 60.1202C212.828 59.3033 212.357 58.0062 212.529 56.6945C213.736 56.5165 215.272 55.3895 215.934 53.6573C214.657 53.6033 213.42 53.1966 212.359 52.4821Z" fill="#2149FE"/>
<g style="mix-blend-mode:multiply">
<path d="M218.45 50.2876C218.539 50.3025 218.619 50.318 218.68 50.3318C218.676 50.3643 218.674 50.3972 218.67 50.4303C218.604 50.3721 218.53 50.324 218.45 50.2876Z" fill="#BFD7DA"/>
</g>
<path d="M228.209 54.705C228.129 54.8905 228.056 55.0623 227.993 55.2189C228.617 54.8879 229.183 54.5934 229.689 54.3354C229.28 54.3372 228.871 54.3008 228.468 54.2268C228.378 54.4067 228.301 54.5565 228.222 54.6848C228.219 54.6924 228.215 54.6993 228.209 54.705Z" fill="#3555A2"/>
<path d="M232.849 50.1391L231.579 50.2555L231.73 50.334C231.819 50.3818 231.906 50.4343 231.99 50.4911C232.054 50.531 232.11 50.5819 232.156 50.6415C232.173 50.665 232.188 50.6898 232.188 50.6898L232.199 50.7089C232.209 50.7276 232.218 50.7471 232.225 50.7672C232.238 50.8016 232.245 50.8376 232.248 50.8741C232.248 50.8885 232.247 50.9029 232.245 50.9171C232.241 50.9434 232.232 50.9687 232.219 50.9918C232.202 51.0223 232.182 51.0505 232.158 51.0757C232.113 51.1218 232.064 51.1648 232.013 51.2044C231.811 51.3431 231.817 51.3395 231.802 51.3491C231.711 51.4039 231.614 51.4473 231.512 51.4782C231.544 51.5877 231.587 51.6937 231.64 51.7947C231.662 51.8299 231.681 51.8665 231.698 51.9042C231.714 51.9424 231.725 51.9723 231.738 52.0065C231.75 52.0407 231.764 52.0785 231.78 52.1374C231.797 52.1963 231.791 52.1909 231.803 52.2208C231.814 52.2507 231.828 52.2801 231.845 52.3345L231.85 52.3554C231.861 52.3892 231.875 52.4222 231.891 52.454C231.918 52.5095 231.941 52.5665 231.966 52.6223C231.991 52.6781 232.025 52.756 232.073 52.8752C232.097 52.9302 232.13 53.0109 232.168 53.11L232.607 52.9102C232.751 52.8459 232.893 52.7809 233.035 52.7159C232.721 52.1952 232.439 51.3245 232.849 50.1391Z" fill="#3555A2"/>
<path d="M192.091 59.7142C191.941 59.7161 191.777 59.7167 191.602 59.7154C193.533 61.0443 195.996 63.5757 197.274 64.9416C198.631 64.2122 197.244 62.8309 197.343 61.2229C197.172 61.1214 197 61.0182 196.824 60.9074C196.824 60.9074 195.347 61.1661 193.484 59.6544C193.484 59.6544 193.083 59.6996 192.095 59.708L192.091 59.7142Z" fill="#98C883"/>
<path d="M182.004 56.9839C180.748 57.4259 177.472 57.5213 177.487 58.0929C177.487 58.0929 177.564 58.5723 180.026 59.2255C182.487 59.8786 183.882 59.3796 187.967 59.6024C189.556 59.6901 190.744 59.717 191.6 59.7175C191.777 59.7195 191.94 59.7182 192.089 59.7163C192.708 58.3069 189.758 58.0414 187.898 56.6062C185.908 57.3106 185.316 57.7227 184.384 57.4372C183.192 57.0687 183.265 56.5394 182.004 56.9839Z" fill="#98C883"/>
<path d="M211.806 56.6734C211.437 56.5841 210.895 56.4098 210.256 56.2754C209.905 58.3822 210.599 60.3248 211.056 61.3125C211.092 61.0957 211.232 60.9104 211.43 60.8163L212.835 60.1689C212.956 60.1109 213.092 60.0929 213.223 60.1175C212.825 59.3006 212.354 58.0035 212.526 56.6918C212.287 56.7308 212.043 56.7246 211.806 56.6734Z" fill="#98C883"/>
<path d="M212.868 50.8993C213.017 50.6701 213.187 50.4566 213.379 50.262C213.815 49.688 215.078 49.179 211.625 49.9216C209.94 50.2855 205.735 51.8776 204.884 52.0734C204.034 52.2693 203.177 52.5241 202.519 52.982C201.539 53.6592 201.197 54.1613 202.87 54.7289C203.92 55.0835 203.968 54.9809 205.464 53.5986C205.592 53.4641 205.773 53.3937 205.958 53.4066C209.297 53.9654 212.472 53.0983 212.472 53.0983C212.4 52.8998 212.362 52.6906 212.36 52.4796C212.342 51.8669 212.606 51.3047 212.868 50.8993Z" fill="#98C883"/>
<path d="M233.467 53.2579C233.409 53.1874 233.352 53.1177 233.304 53.0519C232.537 52.0433 232.536 51.1283 232.67 50.5405C232.72 50.2968 232.81 50.0632 232.936 49.8493C234.953 49.5036 239.474 49.0366 240.333 48.9418C241.191 48.847 242.248 48.0355 242.723 48.0863C244.008 48.2319 245.838 48.267 245.463 48.48C244.78 48.8712 243.952 48.6282 243.377 48.9407C242.803 49.2532 243.491 49.8434 244.993 49.6215C246.496 49.3996 247.316 50.244 247.316 50.244C245.956 50.5413 244.662 51.1856 243.542 51.1461C242.423 51.1066 240.652 50.6131 240.652 50.6131C237.289 52.2487 233.467 53.2579 233.467 53.2579Z" fill="#98C883"/>
<path d="M197.23 64.9666C197.514 65.2756 197.798 65.5866 198.075 65.9023L198.082 65.9075C198.189 65.9856 198.291 66.0709 198.4 66.1505C198.51 66.2482 198.651 66.3013 198.798 66.2995C198.931 66.275 199.063 66.2433 199.193 66.2045C199.319 66.1719 199.447 66.1445 199.576 66.1214C200.096 66.0372 200.622 65.9911 201.149 65.9834C201.676 65.9644 202.203 65.9953 202.739 65.9704C203.273 65.9494 203.804 65.8743 204.324 65.7462C205.362 65.484 206.341 65.0246 207.206 64.393C208.079 63.7791 208.849 63.0455 209.698 62.418L209.651 62.3504C208.627 62.7637 207.739 63.3973 206.849 63.8782C206.628 64.0028 206.404 64.1178 206.179 64.2212C205.955 64.3245 205.736 64.4341 205.511 64.5231C205.063 64.6983 204.602 64.8406 204.132 64.9491C203.659 65.0463 203.18 65.1147 202.698 65.1539C202.576 65.1632 202.45 65.1696 202.334 65.1743L202.141 65.1776L201.943 65.189C201.671 65.2038 201.398 65.2217 201.122 65.2443C200.563 65.2889 200.008 65.3859 199.466 65.534C199.326 65.5724 199.188 65.625 199.051 65.6765C198.947 65.7154 198.846 65.7604 198.747 65.8114C198.744 65.8165 198.794 65.8375 198.767 65.8382C198.723 65.83 198.681 65.816 198.641 65.7965C198.534 65.7464 198.413 65.6804 198.3 65.6213L198.342 65.6617C198.176 65.5232 198.002 65.3968 197.828 65.2713C197.654 65.1459 197.47 65.0264 197.291 64.9063L197.23 64.9666Z" fill="#1B3EE0"/>
<path d="M191.579 59.725C192.618 60.4833 193.6 61.3169 194.518 62.2191C195.456 63.0993 196.362 64.0154 197.245 64.9513L197.275 64.923C196.94 64.3624 196.558 63.8307 196.135 63.3333C195.717 62.8367 195.273 62.3632 194.803 61.9151C194.331 61.4673 193.831 61.0504 193.305 60.6672C192.778 60.2751 192.206 59.9475 191.601 59.6915L191.579 59.725Z" fill="#7FBA6D"/>
<path d="M197.266 64.9529C197.46 64.9395 197.646 64.8693 197.8 64.751C197.966 64.6136 198.085 64.4261 198.137 64.2161C198.244 63.7882 198.143 63.4113 198.058 63.0807C197.973 62.7502 197.835 62.4497 197.71 62.1526C197.585 61.8555 197.469 61.5633 197.342 61.2222L197.3 61.2198C197.279 61.5565 197.309 61.8946 197.39 62.2222C197.463 62.5519 197.567 62.8731 197.658 63.1983C197.748 63.5235 197.846 63.8447 197.807 64.1695C197.754 64.4978 197.543 64.7785 197.243 64.9203L197.266 64.9529Z" fill="#E0C5AD"/>
<path d="M197.268 64.9509C197.42 64.8744 197.555 64.7694 197.667 64.6417C197.777 64.5095 197.848 64.3486 197.87 64.1777C197.915 63.8357 197.821 63.5002 197.732 63.1775C197.535 62.5405 197.304 61.8955 197.344 61.2219L197.316 61.2201C197.208 61.5564 197.18 61.9137 197.236 62.2629C197.287 62.5995 197.364 62.9318 197.466 63.2567C197.569 63.5438 197.632 63.8436 197.653 64.1477C197.66 64.42 197.508 64.6821 197.255 64.9258L197.268 64.9509Z" fill="#98C883"/>
<g style="mix-blend-mode:multiply">
<path d="M199.82 62.4083C199.599 62.5845 199.384 62.7669 199.169 62.951L199.244 62.9646C199.077 62.6551 198.87 62.3688 198.628 62.1132C198.393 61.8513 198.116 61.6304 197.808 61.4596L197.781 61.5083C197.847 61.6877 197.923 61.863 198.009 62.0336C198.087 62.186 198.162 62.328 198.246 62.4613C198.329 62.5937 198.42 62.7211 198.518 62.8431C198.611 62.9657 198.712 63.0815 198.822 63.1897L199.284 63.6281L199.487 63.3073L199.605 63.1213C199.644 63.0563 199.679 62.9888 199.709 62.9192C199.742 62.8471 199.772 62.7732 199.798 62.6979C199.824 62.6155 199.844 62.5312 199.859 62.4457L199.82 62.4083Z" fill="#E0C5AD"/>
</g>
<path d="M227.815 55.5664C227.548 55.6636 227.264 55.7098 226.98 55.7029C226.697 55.698 226.419 55.6255 226.169 55.4915C225.497 55.1585 224.869 54.701 224.446 54.0799C224.238 53.7654 224.096 53.4122 224.028 53.0415C223.958 52.6708 223.968 52.2894 224.058 51.9233L224.018 51.9115C223.819 52.27 223.728 52.6791 223.756 53.0889C223.78 53.5124 223.904 53.9242 224.119 54.29C224.334 54.652 224.618 54.9683 224.955 55.2207C225.278 55.4675 225.635 55.6653 226.016 55.8081L225.987 55.7872C226.147 55.8626 226.318 55.9126 226.493 55.9355C226.654 55.9557 226.817 55.9564 226.978 55.9376C227.134 55.9181 227.288 55.8796 227.434 55.823C227.576 55.7667 227.711 55.6925 227.834 55.6023L227.815 55.5664Z" fill="#E0C5AD"/>
<path d="M227.822 55.5862C227.547 55.659 227.262 55.6839 226.979 55.6595C226.84 55.6478 226.702 55.6209 226.569 55.5794C226.441 55.5441 226.319 55.4913 226.205 55.4223L226.194 55.4141C225.865 55.246 225.552 55.0461 225.261 54.8174C224.975 54.5911 224.723 54.3232 224.516 54.0227C224.097 53.4049 223.925 52.6528 224.032 51.9147C223.898 52.2802 223.855 52.6728 223.905 53.0591C223.955 53.4524 224.089 53.8302 224.299 54.1664C224.511 54.501 224.78 54.7954 225.094 55.0357C225.402 55.273 225.739 55.4707 226.097 55.6242L226.086 55.6167C226.225 55.6876 226.373 55.7382 226.527 55.7672C226.673 55.7952 226.822 55.806 226.971 55.7992C227.267 55.7882 227.556 55.7157 227.822 55.5862Z" fill="#DD3A18"/>
<path d="M245.497 48.401C245.529 48.3742 245.529 48.3559 245.522 48.3662C245.496 48.3537 245.467 48.3454 245.439 48.3414C245.374 48.3329 245.309 48.3285 245.244 48.3281C245.112 48.3211 244.978 48.319 244.844 48.3196L244.04 48.3366L243.229 48.323L242.817 48.3056C242.787 48.3027 242.758 48.3016 242.729 48.3024C242.677 48.3025 242.711 48.307 242.679 48.3113C242.629 48.3239 242.58 48.3408 242.533 48.3618C242.103 48.5536 241.624 48.8492 241.088 49.0661C240.949 49.1236 240.806 49.1698 240.659 49.2043C240.582 49.2236 240.504 49.2386 240.425 49.249L240.219 49.2746L239.417 49.3709C238.359 49.481 237.29 49.5921 236.218 49.6546L234.608 49.7614C234.069 49.7751 233.533 49.8163 232.987 49.8319L232.98 49.7905C234.045 49.6105 235.113 49.4671 236.177 49.3369L239.385 48.9578L240.188 48.872C240.454 48.8534 240.715 48.7949 240.964 48.6984C241.468 48.5165 241.926 48.2296 242.441 48.054C242.572 48.0063 242.713 47.9922 242.851 48.0131L243.252 48.0514L244.057 48.1157L244.861 48.1837C244.995 48.1968 245.129 48.2126 245.263 48.2337C245.33 48.244 245.397 48.2587 245.463 48.2778C245.5 48.2857 245.534 48.3026 245.563 48.3271C245.583 48.3464 245.583 48.3783 245.564 48.3984C245.553 48.4138 245.54 48.4273 245.524 48.4382L245.497 48.401Z" fill="#7FBA6D"/>
<path d="M243.208 49.17C243.173 49.1114 243.168 49.0395 243.193 48.9759C243.219 48.9116 243.256 48.8528 243.303 48.8026C243.319 48.7811 243.358 48.7549 243.376 48.7395C243.398 48.7198 243.422 48.7018 243.447 48.6855C243.499 48.6514 243.553 48.6216 243.609 48.5963C243.817 48.5105 244.039 48.4605 244.264 48.4482C244.477 48.4359 244.676 48.435 244.877 48.4345C245.078 48.4341 245.269 48.4262 245.501 48.4056L245.514 48.4296C245.144 48.6509 244.705 48.6865 244.288 48.7205C244.079 48.7289 243.871 48.7578 243.668 48.8069C243.567 48.8342 243.471 48.8751 243.382 48.9286C243.288 48.9717 243.23 49.0673 243.235 49.1704L243.208 49.17Z" fill="#7FBA6D"/>
<path d="M247.341 50.1964C247.007 50.0735 246.66 49.9866 246.307 49.9369C246.143 49.9151 245.977 49.9028 245.812 49.9001C245.647 49.8916 245.483 49.8955 245.319 49.9118C245.235 49.9162 245.158 49.9195 245.066 49.9323C244.967 49.9446 244.868 49.9519 244.769 49.9543C244.567 49.9593 244.364 49.9422 244.165 49.9033C243.957 49.8664 243.757 49.7956 243.572 49.6937C243.477 49.6388 243.391 49.5694 243.318 49.488C243.235 49.4071 243.191 49.2942 243.198 49.1784L243.239 49.1709C243.284 49.3413 243.479 49.427 243.643 49.484C243.818 49.5389 243.999 49.5706 244.182 49.5781C244.551 49.5869 244.92 49.5601 245.284 49.4982C245.66 49.4696 246.038 49.5108 246.4 49.6197C246.76 49.7268 247.092 49.9136 247.371 50.1663L247.341 50.1964Z" fill="#7FBA6D"/>
<path d="M233.507 53.1997L235.281 52.4719C235.876 52.2445 236.466 52.0047 237.048 51.7523C237.635 51.5055 238.222 51.2651 238.802 51.0086C239.382 50.7521 239.956 50.4901 240.528 50.2231L240.659 50.1616L240.788 50.1979C241.321 50.35 241.873 50.4738 242.412 50.5987C242.683 50.6551 242.957 50.7064 243.228 50.741C243.488 50.7847 243.752 50.8008 244.015 50.7891C244.548 50.7593 245.095 50.6121 245.644 50.4765C246.206 50.3344 246.777 50.2287 247.352 50.1601L247.362 50.2012C246.804 50.3266 246.266 50.5057 245.723 50.6812C245.184 50.8734 244.628 51.0137 244.062 51.1003C243.488 51.1702 242.916 51.0696 242.356 50.9771C241.795 50.8847 241.238 50.7491 240.685 50.6019L240.714 50.5991C239.56 51.1513 238.377 51.6426 237.172 52.0711C235.969 52.5051 234.751 52.8978 233.517 53.2344L233.507 53.1997Z" fill="#7FBA6D"/>
<path d="M203.721 44.6607C201.431 44.1659 199.215 43.3737 197.129 42.3044L197.091 42.3783C199.073 43.7171 201.268 44.7063 203.581 45.3028C204.738 45.6038 205.911 45.8329 207.096 45.9888C208.273 46.1469 209.45 46.2435 210.62 46.3447L212.367 46.4617C212.937 46.502 213.504 46.5654 214.072 46.6324C215.206 46.7646 216.332 46.9627 217.444 47.2259C219.661 47.7711 221.84 48.5547 223.819 49.84L223.868 49.7725C222.965 49.0143 221.972 48.372 220.911 47.8605C219.853 47.3418 218.752 46.9163 217.62 46.5889C216.491 46.2613 215.341 46.0125 214.178 45.8444" fill="#DA3919"/>
<path d="M221.143 53.6365C220.81 53.633 220.479 53.5937 220.154 53.5192C219.83 53.4514 219.517 53.338 219.225 53.1826L219.201 53.1655L219.171 53.1748C218.609 53.3486 218.031 53.4657 217.445 53.5244C216.86 53.5861 216.27 53.595 215.683 53.551C214.504 53.4669 213.364 53.0844 212.371 52.4392L212.322 52.5077C212.699 53.0332 213.195 53.462 213.769 53.7592C214.058 53.9071 214.358 54.0326 214.666 54.1344C214.976 54.2259 215.291 54.2989 215.609 54.353C216.247 54.4398 216.894 54.4346 217.53 54.3375C218.171 54.2453 218.793 54.0536 219.374 53.7692L218.924 53.7335C219.109 53.8079 219.302 53.8595 219.499 53.887C219.686 53.9191 219.876 53.9328 220.066 53.9279C220.25 53.9253 220.434 53.9066 220.615 53.872C220.795 53.8405 220.972 53.7902 221.142 53.7217L221.143 53.6365Z" fill="#E0C5AD"/>
<path d="M228.45 54.2148C228.326 54.4139 228.19 54.6056 228.043 54.7887C227.9 54.9543 227.711 55.0746 227.501 55.1351C227.279 55.1929 227.053 55.2311 226.825 55.249L226.12 55.3603L226.253 55.3928C225.98 55.1564 225.74 54.8852 225.538 54.586C225.329 54.2835 225.164 53.9529 225.048 53.6043C224.924 53.2547 224.844 52.8912 224.81 52.522C224.776 52.1453 224.776 51.7663 224.81 51.3896L224.788 51.3849C224.624 52.1379 224.655 52.9208 224.877 53.6593C224.993 54.0265 225.16 54.3755 225.374 54.6961C225.585 55.0187 225.846 55.3057 226.146 55.5463L226.153 55.5508L226.851 55.435C227.087 55.4045 227.319 55.3515 227.545 55.2766C227.774 55.199 227.972 55.0515 228.113 54.8547C228.246 54.6576 228.364 54.4504 228.465 54.2351L228.45 54.2148Z" fill="#E0C5AD"/>
<path d="M228.45 54.215C228.348 54.4289 228.231 54.6345 228.098 54.8301C227.958 55.0218 227.763 55.1655 227.539 55.2415C227.314 55.3144 227.082 55.3659 226.847 55.3951L226.148 55.5101L226.155 55.5153C225.859 55.2752 225.601 54.9906 225.391 54.6718C225.179 54.3551 225.012 54.01 224.895 53.6466C224.671 52.914 224.637 52.1365 224.796 51.3875L224.786 51.3801C224.683 51.7528 224.628 52.1372 224.621 52.524C224.619 52.9153 224.673 53.3049 224.782 53.6809C224.897 54.0577 225.065 54.4164 225.28 54.7465C225.496 55.0801 225.767 55.3746 226.081 55.6175L226.12 55.6458L226.168 55.6373L226.867 55.5124C227.107 55.4731 227.342 55.4114 227.57 55.328C227.807 55.2416 228.009 55.0793 228.145 54.8661C228.266 54.6588 228.371 54.4422 228.458 54.2182L228.45 54.215Z" fill="#DD3A18"/>
<g style="mix-blend-mode:multiply">
<path d="M221.91 59.1494L221.832 59.1427C221.373 59.0954 220.932 58.9409 220.544 58.6916C220.153 58.4429 219.795 58.1464 219.478 57.809L219.437 57.848C219.691 58.2635 220.013 58.6332 220.389 58.9414C220.69 59.1832 221.032 59.3679 221.399 59.4863L221.91 59.1494Z" fill="#E2C9C7"/>
</g>
<path d="M227.852 55.5921L228.233 54.6901L228.182 54.6684C227.934 55.0098 227.718 55.3707 227.505 55.7202L227.852 55.5921Z" fill="#DD3A18"/>
<path d="M212.479 53.085C212.495 52.8309 212.537 52.5793 212.606 52.3343C212.636 52.222 212.673 52.1116 212.716 52.0037C212.755 51.8957 212.801 51.79 212.852 51.6872C212.951 51.4745 213.06 51.2672 213.18 51.0659C213.3 50.8642 213.436 50.649 213.56 50.4566L213.623 50.3686L213.593 50.4278C213.62 50.3755 213.652 50.3144 213.687 50.2555C213.721 50.1965 213.772 50.1379 213.805 50.0666C213.838 49.9953 213.888 49.9339 213.925 49.8575C213.945 49.8191 213.962 49.7795 213.977 49.7389C213.986 49.6976 214.011 49.6358 213.973 49.5802L213.938 49.6012C213.948 49.6448 213.878 49.7138 213.832 49.76C213.786 49.8062 213.722 49.8597 213.666 49.9093C213.55 50.0078 213.443 50.1165 213.346 50.2341C213.161 50.4216 212.993 50.6266 212.847 50.8462C212.697 51.0643 212.575 51.2997 212.482 51.5474C212.387 51.7956 212.332 52.0572 212.318 52.3228C212.305 52.5885 212.348 52.854 212.443 53.1024L212.479 53.085Z" fill="#E0C5AD"/>
<g style="mix-blend-mode:multiply">
<path d="M197.803 56.5812C198.248 56.4838 198.697 56.3984 199.151 56.3403C199.823 56.2522 200.5 56.1924 201.181 56.1608C201.864 56.1253 202.549 56.1342 203.231 56.1875C203.573 56.2139 203.917 56.2484 204.261 56.2963C204.434 56.3206 204.607 56.3467 204.781 56.377L204.827 56.3852C205.683 55.7216 206.715 55.3228 207.794 55.2376C208.387 55.1877 208.983 55.2202 209.567 55.3342C210.119 55.4375 210.663 55.5797 211.195 55.7597C211.449 55.84 211.702 55.9431 211.927 56.0197C211.969 56.0346 212.012 56.0472 212.056 56.0573C212.092 56.0672 212.13 56.075 212.167 56.0805C212.262 56.0913 212.358 56.0944 212.454 56.0895C212.904 56.0429 213.341 55.9091 213.739 55.6955C214.628 55.2159 215.365 54.4969 215.868 53.6194L215.972 53.6592C215.59 54.6609 214.912 55.5215 214.028 56.126C213.589 56.4367 213.088 56.6509 212.56 56.7543C212.292 56.8032 212.016 56.7972 211.749 56.7367C211.492 56.6724 211.24 56.5981 210.986 56.5322C209.977 56.2653 208.935 56.0795 207.905 56.2041C206.873 56.3184 205.91 56.7786 205.173 57.5102L205.134 57.5479L205.077 57.5361C204.445 57.4068 203.803 57.3248 203.158 57.2906C202.512 57.2527 201.865 57.2424 201.217 57.2596C200.326 57.2868 199.439 57.366 198.558 57.4967C198.5 57.3416 198.426 57.1928 198.338 57.0525C198.168 56.8861 197.989 56.7288 197.803 56.5812Z" fill="#E0C5AD"/>
</g>
<path d="M212.541 56.627C213.051 56.5303 213.535 56.3281 213.962 56.0333C214.832 55.4476 215.502 54.6097 215.883 53.6315L215.961 53.6617C215.679 54.7323 215.052 55.6792 214.178 56.3559C213.722 56.7246 213.188 56.9847 212.617 57.1166C212.574 57.126 212.532 57.1345 212.49 57.1412L212.541 56.627Z" fill="#3555A2"/>
<path d="M210.243 56.2053C210.506 56.2615 210.767 56.3263 211.023 56.3972L211.782 56.605C212.032 56.6653 212.291 56.6736 212.544 56.6294L212.497 57.1465C212.385 57.1657 212.271 57.1785 212.158 57.1848C212.071 57.1872 211.984 57.1843 211.897 57.1761C211.816 57.17 211.736 57.1591 211.657 57.1434C211.383 57.0907 211.128 57.0342 210.876 56.9771C210.648 56.9235 210.419 56.8773 210.195 56.8403L210.243 56.2053Z" fill="#7FBA6D"/>
<path d="M182.92 56.8355C183.107 56.9459 183.281 57.0783 183.438 57.2299C183.616 57.3801 183.811 57.5097 184.019 57.616C184.123 57.6731 184.232 57.7216 184.345 57.761C184.71 57.8974 185.108 57.9231 185.488 57.8348C185.933 57.723 186.361 57.5537 186.762 57.3312C187.161 57.1272 187.54 56.8873 187.895 56.6146L187.881 56.5751C187.466 56.7177 187.056 56.8703 186.645 57.0239C186.24 57.1876 185.824 57.3225 185.4 57.4277C185.191 57.4756 184.975 57.4902 184.761 57.4708C184.546 57.444 184.335 57.39 184.133 57.3101C183.929 57.2329 183.732 57.141 183.541 57.0352C183.353 56.9176 183.144 56.836 182.926 56.7947L182.92 56.8355Z" fill="#7FBA6D"/>
<path d="M177.491 58.0846C177.522 57.9756 177.641 57.9441 177.742 57.9082C177.853 57.8764 177.966 57.8543 178.08 57.8421C178.309 57.807 178.541 57.7857 178.774 57.7606C179.241 57.7149 179.71 57.6609 180.18 57.5947C180.656 57.5291 181.127 57.4276 181.588 57.2909C181.817 57.2133 182.042 57.1237 182.261 57.0225C182.468 56.9181 182.692 56.8517 182.923 56.8266L182.926 56.798C182.687 56.7773 182.447 56.8054 182.219 56.8807C181.995 56.9586 181.768 57.025 181.538 57.0797C181.078 57.1832 180.608 57.2501 180.139 57.3196C179.671 57.3891 179.202 57.4585 178.73 57.5422C178.497 57.5863 178.263 57.6332 178.034 57.6992C177.919 57.7303 177.807 57.7713 177.699 57.8218C177.599 57.8728 177.465 57.942 177.46 58.0805L177.491 58.0846Z" fill="#7FBA6D"/>
<path d="M192.08 59.6861C191.457 59.6106 190.84 59.5641 190.22 59.4918C189.6 59.4196 188.983 59.3839 188.367 59.3192C187.751 59.2545 187.119 59.213 186.495 59.1813C185.87 59.1496 185.241 59.1594 184.617 59.1656C183.367 59.192 182.148 59.2712 180.953 59.1215C180.347 59.0414 179.747 58.9211 179.157 58.7615C178.858 58.694 178.563 58.6104 178.273 58.511C178.129 58.4614 177.989 58.4029 177.852 58.3357C177.715 58.2817 177.594 58.1933 177.5 58.079L177.458 58.0847C177.539 58.2259 177.658 58.3407 177.803 58.4151C177.936 58.4967 178.075 58.5701 178.218 58.6347C178.503 58.7616 178.794 58.8733 179.091 58.9693C179.682 59.1665 180.286 59.3233 180.899 59.4387C182.132 59.6639 183.387 59.5971 184.627 59.5805C185.867 59.5639 187.111 59.571 188.354 59.6408C189.597 59.7107 190.841 59.735 192.083 59.7227L192.08 59.6861Z" fill="#7FBA6D"/>
<g style="mix-blend-mode:multiply">
<path d="M208.053 63.6764L207.964 63.7004C207.403 63.8516 206.831 63.9571 206.253 64.0159C205.103 64.1404 203.942 64.1114 202.799 63.9296C201.6 63.7318 200.432 63.3793 199.323 62.8809L199.917 62.3923C200.883 62.7557 201.886 63.0113 202.908 63.1547C204.527 63.3848 206.174 63.298 207.758 62.8992C208.288 62.7758 208.791 62.5786 209.318 62.413C209.468 62.3658 209.62 62.3201 209.769 62.2803L208.053 63.6764Z" fill="#E0C5AD"/>
</g>
<g style="mix-blend-mode:multiply">
<path d="M199.064 62.7605C198.229 62.3675 197.431 61.901 196.679 61.3665L196.592 61.3657C196.503 61.3617 196.415 61.3556 196.329 61.3458C196.16 61.3252 195.992 61.2945 195.827 61.2539C195.504 61.1716 195.191 61.0554 194.893 60.9072C194.338 60.6302 193.83 60.2679 193.387 59.8334C193.175 59.8352 192.975 59.8241 192.771 59.8084C192.536 59.793 192.305 59.7716 192.073 59.7476L192.072 59.6644C192.533 59.6568 192.999 59.6475 193.455 59.6035L193.474 59.6022L193.49 59.6134C193.96 60.0001 194.484 60.3157 195.045 60.5499C195.324 60.6651 195.614 60.7513 195.911 60.8071C196.203 60.8672 196.503 60.8824 196.8 60.8522L196.822 60.8496L196.839 60.8615C197.113 61.0335 197.393 61.1996 197.679 61.3597L199.064 62.7605Z" fill="#E0C5AD"/>
</g>
<path d="M213.904 60.9138C213.696 61.0417 213.494 61.2148 213.277 61.3487C213.044 61.4981 212.798 61.6274 212.543 61.7353C212.141 61.8927 211.724 62.0101 211.298 62.0858L211.045 61.3482C211.459 61.2898 211.867 61.1921 212.263 61.0563C212.485 60.9698 212.699 60.8645 212.903 60.7416C213.006 60.6792 213.114 60.6131 213.217 60.5471L213.393 60.4288C213.458 60.3859 213.524 60.3465 213.591 60.3106L213.904 60.9138Z" fill="#7FBA6D"/>
<path d="M192.1 59.7136C192.291 59.5054 192.354 59.2101 192.265 58.9417C192.163 58.6821 191.992 58.4557 191.77 58.2875C191.382 57.9906 190.956 57.7467 190.504 57.5623C190.071 57.3809 189.645 57.2127 189.214 57.0591L187.904 56.5735L187.879 56.6072C188.623 57.185 189.493 57.5627 190.348 57.9373C190.78 58.1092 191.198 58.3157 191.597 58.5548C191.794 58.6712 191.96 58.8361 192.076 59.0339C192.175 59.242 192.173 59.4839 192.069 59.6895L192.1 59.7136Z" fill="#E0C5AD"/>
<path d="M192.094 59.7116C192.203 59.4955 192.208 59.2409 192.106 59.0208C191.988 58.8143 191.819 58.6411 191.616 58.517C191.216 58.2701 190.797 58.0565 190.362 57.8786C189.508 57.5103 188.639 57.146 187.893 56.5811L187.877 56.6036C188.036 56.7827 188.211 56.9478 188.398 57.0971C188.591 57.2377 188.789 57.3712 188.992 57.4967C189.396 57.7358 189.816 57.9478 190.248 58.1311C190.675 58.3153 191.103 58.4867 191.487 58.6949C191.673 58.7881 191.837 58.9203 191.968 59.0824C192.089 59.2626 192.123 59.4874 192.061 59.6951L192.094 59.7116Z" fill="#7FBA6D"/>
<path d="M213.228 60.1052C213.186 59.7967 213.121 59.5101 213.055 59.2281C212.99 58.9461 212.924 58.664 212.864 58.3903C212.803 58.1165 212.745 57.8351 212.688 57.5563L212.536 56.6885L212.509 56.6838C212.431 57.2722 212.458 57.8698 212.588 58.4491C212.727 59.0261 212.932 59.5852 213.199 60.1152L213.228 60.1052Z" fill="#E2C9C7"/>
<path d="M213.223 60.1067C212.965 59.5758 212.768 59.0169 212.638 58.441C212.498 57.8667 212.461 57.2721 212.528 56.685L212.508 56.6828C212.29 57.2549 212.306 57.8943 212.434 58.4859C212.564 59.0808 212.828 59.6383 213.205 60.1158L213.223 60.1067Z" fill="#7FBA6D"/>
<path d="M211.058 61.2989C210.7 60.5153 210.445 59.6883 210.299 58.8389C210.144 57.9916 210.132 57.1244 210.264 56.2736L210.237 56.2697C210.155 56.477 210.09 56.6904 210.041 56.908C210.002 57.1243 209.976 57.3447 209.956 57.566C209.927 58.0094 209.95 58.4549 210.026 58.8929C210.169 59.7686 210.514 60.5989 211.034 61.3173L211.058 61.2989Z" fill="#E0C5AD"/>
<path d="M211.055 61.3009C211.002 61.0875 210.934 60.8846 210.885 60.6742C210.836 60.4637 210.767 60.2636 210.72 60.0557C210.61 59.6457 210.521 59.2305 210.453 58.8115C210.373 58.3964 210.32 57.9767 210.293 57.555C210.273 57.3436 210.264 57.1313 210.263 56.9178C210.262 56.7044 210.26 56.491 210.253 56.2703L210.232 56.2674C210.092 57.122 210.098 57.9943 210.247 58.8476C210.401 59.6989 210.665 60.5266 211.033 61.3098L211.055 61.3009Z" fill="#7FBA6D"/>
<g style="mix-blend-mode:multiply">
<path d="M229.223 54.5599C229.078 54.5448 228.935 54.5266 228.786 54.5005C228.516 54.4621 228.253 54.3824 228.007 54.2641C227.875 54.2002 227.756 54.1133 227.654 54.0074C227.602 53.9485 227.558 53.8822 227.524 53.8108L227.488 53.7142L227.459 53.6228C227.381 53.3799 227.315 53.1323 227.247 52.8859L227.286 52.8689L227.577 53.5744C227.654 53.8153 227.842 54.0046 228.082 54.083C228.548 54.2664 229.069 54.2802 229.57 54.296L229.739 54.2983L229.223 54.5599Z" fill="#E0C5AD"/>
</g>
<path d="M230.749 48.9781L230.472 48.9874C230.454 48.9098 230.429 48.8312 230.407 48.7587C230.355 48.5882 230.286 48.4229 230.203 48.265C230.12 48.1033 230.014 47.9551 229.887 47.8252C229.761 47.6811 229.614 47.5575 229.45 47.4588L229.456 47.4316" fill="#E9C28D"/>
<path d="M227.753 47.3457C227.358 47.3113 226.969 47.458 226.695 47.7446C226.555 47.9055 226.46 48.1006 226.421 48.3102C226.385 48.5094 226.382 48.7132 226.412 48.9135C226.477 49.2858 226.614 49.642 226.816 49.9614C226.915 50.1168 227.019 50.266 227.13 50.4106C227.249 50.5495 227.378 50.6785 227.518 50.7965L227.541 50.7802C227.339 50.492 227.161 50.1872 227.01 49.8691C226.856 49.5538 226.747 49.218 226.688 48.8718C226.632 48.5312 226.66 48.1583 226.87 47.8771C227.08 47.5959 227.423 47.4504 227.762 47.3696L227.753 47.3457Z" fill="#4F3323"/>
<path d="M224.293 48.4135C224.025 48.7517 223.86 49.1607 223.819 49.591C223.775 50.016 223.806 50.4456 223.909 50.8605L223.95 50.853C224.036 50.6464 224.1 50.4312 224.141 50.211C224.184 50.0131 224.203 49.8254 224.239 49.6451C224.244 49.552 224.256 49.4595 224.268 49.3681C224.28 49.2766 224.289 49.1836 224.29 49.0858C224.306 48.8931 224.314 48.6944 224.329 48.4459L224.293 48.4135Z" fill="#593A29"/>
<path d="M230.495 49.1609C230.426 48.9558 230.265 48.7949 230.06 48.7264C229.867 48.6473 229.661 48.7142 229.48 48.751C229.3 48.7884 229.124 48.8471 228.957 48.9259C228.795 49.0031 228.642 49.0971 228.5 49.2064L228.524 49.2569C228.695 49.2476 228.865 49.2283 229.034 49.1989C229.259 49.157 229.326 49.1247 229.546 49.1035C229.676 49.0887 229.806 49.0841 229.937 49.0898C229.991 49.0921 230.034 49.0935 230.087 49.0978C230.188 49.1118 230.223 49.1252 230.334 49.1466C230.377 49.1497 230.431 49.1576 230.495 49.1609Z" fill="#472A18"/>
<path d="M227.111 50.6798C226.997 50.57 226.853 50.4975 226.697 50.4718C226.602 50.4604 226.506 50.4687 226.415 50.4963C226.309 50.5326 226.214 50.598 226.143 50.6851C226.015 50.8479 225.95 51.0512 225.96 51.258C225.969 51.4291 226.008 51.5973 226.076 51.7548C226.222 52.044 226.439 52.3312 226.842 52.4377C226.947 52.4611 227.056 52.4581 227.16 52.4291C227.258 52.3998 227.347 52.3452 227.417 52.2708C227.525 52.1476 227.582 51.9873 227.576 51.823L227.542 51.7984C227.482 51.9124 227.396 52.0102 227.29 52.0835C227.19 52.1515 227.063 52.1669 226.948 52.1248C226.721 52.014 226.544 51.8205 226.454 51.5837C226.357 51.3565 226.291 51.079 226.418 50.8698C226.488 50.7698 226.6 50.7067 226.722 50.6978C226.848 50.6843 226.976 50.6919 227.1 50.7204L227.111 50.6798Z" fill="#D7B6B4"/>
<path d="M229.574 52.1447C229.529 52.25 229.51 52.3643 229.517 52.4785C229.524 52.575 229.546 52.6697 229.584 52.7585C229.624 52.8468 229.678 52.9273 229.746 52.9964C229.824 53.0799 229.92 53.1437 230.027 53.1828L230.053 53.1716L229.838 52.6469L229.599 52.1334L229.574 52.1447Z" fill="#C89969"/>
<path d="M231.743 52.3315C231.698 52.3929 231.632 52.4366 231.558 52.4548C231.486 52.4864 231.41 52.5072 231.332 52.5167L231.336 52.5442C231.367 52.6157 231.423 52.6739 231.493 52.7086C231.547 52.7314 231.608 52.7319 231.662 52.71C231.692 52.6968 231.719 52.6788 231.743 52.6565L231.743 52.3315Z" fill="#C89969"/>
<path d="M231.748 52.3342C231.724 52.3393 231.699 52.3414 231.673 52.3406C231.655 52.3439 231.636 52.3454 231.617 52.345C231.583 52.3467 231.557 52.3607 231.524 52.3643C231.49 52.3678 231.464 52.3909 231.434 52.4174C231.395 52.4472 231.361 52.4831 231.333 52.5238L231.334 52.5372C231.416 52.5325 231.496 52.5162 231.572 52.4887C231.652 52.4611 231.718 52.4063 231.761 52.334L231.748 52.3342Z" fill="#E9C28D"/>
<path d="M213.889 60.8463C213.873 60.7519 213.852 60.663 213.831 60.5695C213.818 60.5226 213.81 60.484 213.794 60.4286C213.781 60.377 213.762 60.3274 213.735 60.2813C213.618 60.0782 213.415 59.939 213.183 59.9023C213.063 59.8801 212.94 59.8871 212.823 59.9229L212.736 59.953L212.673 59.9774L212.545 60.0276L212.041 60.2447L211.552 60.4895L211.298 60.6247C211.245 60.6541 211.196 60.6898 211.152 60.7309C211.109 60.7725 211.07 60.819 211.038 60.8694C210.907 61.0623 210.865 61.3023 210.924 61.5283C210.959 61.6257 211.01 61.7162 211.076 61.7957C211.13 61.8732 211.187 61.9478 211.248 62.0193L211.274 62.0081C211.189 61.8469 211.121 61.6775 211.07 61.5024C211.043 61.3237 211.093 61.1418 211.208 61.0028C211.315 60.8556 211.496 60.8016 211.661 60.7239L212.161 60.4964L212.659 60.2639C212.742 60.2273 212.825 60.1834 212.907 60.1524C212.99 60.1228 213.08 60.1115 213.168 60.1193C213.347 60.1351 213.512 60.2257 213.622 60.3689C213.714 60.5268 213.795 60.6905 213.866 60.859L213.889 60.8463Z" fill="#E2C9C7"/>
<path d="M222.76 47.9975C222.794 48.1643 222.903 48.306 223.056 48.3816C223.193 48.4664 223.341 48.534 223.495 48.5829C223.795 48.6672 224.104 48.7141 224.416 48.7227L224.644 48.7328C224.728 48.7297 224.811 48.724 224.89 48.7156C225.049 48.6984 225.206 48.6723 225.362 48.6375C225.66 48.561 225.952 48.4646 226.237 48.349C226.791 48.1167 227.302 47.8549 227.814 47.6518C228.327 47.4487 228.852 47.3258 229.44 47.4683L229.465 47.4346C228.931 47.1522 228.293 47.1778 227.731 47.3399C227.169 47.502 226.628 47.7496 226.084 47.9658C225.541 48.182 224.988 48.3852 224.403 48.4014C224.112 48.4191 223.82 48.4091 223.531 48.3718C223.388 48.3528 223.247 48.316 223.113 48.2622C222.978 48.2195 222.866 48.1239 222.802 47.9971L222.76 47.9975Z" fill="#4F3323"/>
<path d="M222.753 47.9986C222.817 48.1436 222.939 48.255 223.088 48.3051C223.227 48.3627 223.372 48.4027 223.52 48.4243C223.813 48.467 224.11 48.4812 224.405 48.4664C225.002 48.4591 225.576 48.2652 226.121 48.048C226.665 47.8308 227.19 47.564 227.75 47.4014C228.309 47.2388 228.917 47.2025 229.441 47.4711L229.466 47.4209C229.231 47.1923 228.934 47.0383 228.612 46.9783C228.287 46.9203 227.955 46.9206 227.631 46.9793C227.325 47.0325 227.023 47.1122 226.73 47.2176C226.443 47.3208 226.173 47.4368 225.909 47.5318C225.645 47.6269 225.394 47.7454 225.143 47.8294C225.018 47.8744 224.894 47.9149 224.77 47.9463L224.586 47.9844L224.382 48.0247C224.111 48.0741 223.837 48.1092 223.562 48.1299C223.428 48.1423 223.294 48.1417 223.161 48.128C223.095 48.1215 223.031 48.1074 222.97 48.0858C222.906 48.0694 222.849 48.0347 222.805 47.986L222.753 47.9986Z" fill="#804D37"/>
<path d="M229.486 47.473C229.775 47.1191 230.01 46.7232 230.181 46.2987C230.269 46.0793 230.305 45.8425 230.288 45.6066C230.261 45.3574 230.117 45.1359 229.9 45.0115C229.692 44.8986 229.463 44.8312 229.227 44.8136C228.999 44.7879 228.769 44.7851 228.54 44.8053C228.084 44.8487 227.638 44.9644 227.219 45.148C226.393 45.5342 225.645 46.0693 225.012 46.7267C224.684 47.0438 224.43 47.4225 224.042 47.6349C223.664 47.8634 223.226 47.9735 222.785 47.9512L222.774 48.0343C223.256 48.2187 223.788 48.2166 224.267 48.0284C224.52 47.9263 224.756 47.7856 224.966 47.6112C225.157 47.4588 225.302 47.33 225.476 47.202C225.821 46.952 226.147 46.6896 226.499 46.481C226.829 46.2597 227.179 46.0715 227.546 45.9192C227.883 45.7621 228.242 45.6549 228.61 45.6009C228.699 45.5849 228.786 45.5731 228.879 45.5646L228.998 45.5558C229.042 45.5534 229.107 45.5558 229.162 45.5563C229.295 45.5565 229.429 45.5684 229.56 45.592C229.642 45.6171 229.66 45.5926 229.718 45.6848C229.774 45.8348 229.786 45.9977 229.753 46.1544C229.712 46.551 229.56 46.9806 229.416 47.4252L229.486 47.473Z" fill="#84523D"/>
<path d="M227.107 50.6847C226.979 50.6497 226.847 50.6372 226.715 50.6478C226.578 50.6557 226.451 50.7253 226.371 50.8372C226.223 51.0778 226.293 51.3744 226.39 51.6107C226.492 51.8609 226.685 52.063 226.93 52.1755C227.06 52.2217 227.205 52.2019 227.318 52.1224C227.424 52.0425 227.51 51.9387 227.569 51.8193L227.546 51.803C227.459 51.8896 227.356 51.9582 227.242 52.0048C227.164 52.0313 227.077 52.0196 227.008 51.9731C226.848 51.8517 226.724 51.6886 226.65 51.5018C226.56 51.3386 226.528 51.1498 226.558 50.966C226.59 50.8864 226.656 50.8258 226.738 50.8018C226.857 50.7599 226.982 50.733 227.108 50.7216L227.107 50.6847Z" fill="#E7BD84"/>
<path d="M224.062 51.9199C224.248 51.3132 224.158 50.6549 223.818 50.1191C223.625 49.846 223.378 49.6165 223.092 49.4452C222.808 49.2819 222.5 49.1632 222.18 49.0932C221.548 48.9657 220.896 48.9823 220.272 49.1419C219.653 49.3027 219.073 49.588 218.568 49.9805L219.012 49.8977C218.866 49.8586 218.718 49.8273 218.568 49.804C218.428 49.7817 218.29 49.7574 218.15 49.7478C217.875 49.7178 217.598 49.7055 217.322 49.7112C216.776 49.7146 216.232 49.7663 215.696 49.8656C215.166 49.9592 214.643 50.0959 214.135 50.2742C213.631 50.4541 213.141 50.6715 212.67 50.9248L212.687 50.9781C213.678 50.6408 214.703 50.4107 215.743 50.2918C216.262 50.2336 216.785 50.2119 217.307 50.2268C217.827 50.2358 218.345 50.3029 218.85 50.4266L218.879 50.4348L218.9 50.4188C219.353 50.0711 219.868 49.8136 220.418 49.6603C220.966 49.5004 221.542 49.4591 222.108 49.5391C222.665 49.6322 223.221 49.8675 223.579 50.3079C223.937 50.7483 224.06 51.35 224 51.9153L224.062 51.9199Z" fill="#E0C5AD"/>
<path d="M217.311 50.1273C216.785 50.1175 216.258 50.1441 215.736 50.2069C214.692 50.3353 213.664 50.5749 212.671 50.9217L212.689 50.975C213.217 50.9034 213.728 50.8045 214.249 50.7593C214.771 50.7142 215.276 50.6578 215.787 50.6297C216.297 50.6016 216.802 50.607 217.302 50.6403C217.548 50.6638 217.795 50.6873 218.043 50.7115C218.165 50.7285 218.285 50.7475 218.403 50.7696C218.521 50.7916 218.649 50.8222 218.725 50.8481L218.964 50.9218L219.175 50.7635C219.582 50.4524 220.042 50.217 220.532 50.0685C221.022 49.9109 221.539 49.8509 222.052 49.8918C222.302 49.911 222.548 49.9674 222.781 50.0591C223.014 50.1434 223.226 50.2762 223.404 50.4487C223.593 50.6259 223.74 50.8443 223.832 51.0872C223.882 51.2148 223.919 51.3467 223.944 51.4813C223.975 51.6215 223.996 51.7638 224.006 51.907L224.061 51.9118C224.13 51.337 224.019 50.7145 223.639 50.2549C223.259 49.7953 222.694 49.5379 222.123 49.4442C221.545 49.3572 220.955 49.3943 220.392 49.5528C219.828 49.7043 219.298 49.9653 218.834 50.3213" fill="#9CB9E1"/>
<path d="M213.971 49.5739C213.908 49.4997 213.83 49.5102 213.766 49.4977C213.702 49.4853 213.632 49.4908 213.565 49.4915C213.432 49.4917 213.299 49.4999 213.165 49.513C212.903 49.5362 212.644 49.569 212.385 49.6018L211.607 49.7101C211.344 49.7481 211.079 49.7936 210.823 49.8529C209.799 50.0971 208.799 50.3944 207.797 50.6876C207.297 50.8336 206.8 50.9872 206.304 51.1461C205.808 51.3049 205.308 51.4664 204.84 51.5864C204.618 51.6341 204.33 51.7023 204.08 51.7744C203.829 51.8465 203.555 51.9279 203.293 52.0273C203.026 52.1274 202.766 52.2477 202.517 52.3869C202.269 52.532 202.032 52.6962 201.809 52.8781C201.682 52.9802 201.566 53.0943 201.462 53.2189C201.303 53.3999 201.208 53.6288 201.193 53.8697C201.19 54.0214 201.227 54.1713 201.299 54.3047C201.356 54.4086 201.429 54.5025 201.516 54.5827C201.646 54.6998 201.79 54.7993 201.946 54.8788C202.203 55.0083 202.471 55.1166 202.746 55.2023C203.003 55.2785 203.274 55.395 203.684 55.3764C203.879 55.3616 204.07 55.3053 204.242 55.2114C204.381 55.1344 204.512 55.0445 204.634 54.943C204.859 54.7599 205.054 54.5798 205.242 54.3953L205.783 53.8744C205.803 53.8562 205.824 53.8406 205.848 53.8279C205.869 53.8165 205.881 53.8146 205.882 53.809C205.924 53.81 205.966 53.8143 206.007 53.8219L206.209 53.8442C207.267 53.9462 208.333 53.9381 209.389 53.8199C209.914 53.7527 210.434 53.6625 210.947 53.5494C211.462 53.4432 211.968 53.301 212.462 53.1237L212.447 53.0691C211.438 53.3151 210.408 53.4683 209.371 53.5268C208.334 53.5948 207.294 53.5572 206.265 53.4145C206.134 53.3972 206.016 53.3678 205.872 53.358C205.732 53.3664 205.598 53.4183 205.488 53.5064C205.286 53.6795 205.102 53.8589 204.908 54.0334C204.715 54.2079 204.526 54.3798 204.32 54.5419C204.113 54.7039 203.897 54.8431 203.648 54.8525C203.394 54.8432 203.144 54.7896 202.908 54.6942C202.663 54.6151 202.425 54.5162 202.196 54.3985C202.083 54.3409 201.978 54.2686 201.883 54.1835C201.793 54.11 201.738 54.0007 201.734 53.8839C201.752 53.6548 201.965 53.4653 202.154 53.3043C202.938 52.6264 203.965 52.3294 204.972 52.0933C205.971 51.7917 206.946 51.4312 207.932 51.0981C208.918 50.765 209.9 50.4234 210.899 50.1361C211.396 49.9888 211.906 49.8884 212.414 49.7827C212.67 49.7315 212.922 49.6844 213.181 49.6399C213.308 49.6189 213.437 49.5986 213.566 49.5863C213.629 49.5809 213.694 49.5751 213.76 49.5712C213.825 49.5672 213.896 49.574 213.921 49.6063L213.971 49.5739Z" fill="#E0C5AD"/>
<path d="M201.667 53.859C201.663 53.9885 201.714 54.1137 201.808 54.2034C201.896 54.2915 201.996 54.3671 202.105 54.428C202.321 54.5458 202.547 54.6446 202.781 54.7233C203.01 54.8125 203.249 54.8783 203.492 54.9196C203.745 54.9449 203.998 54.8749 204.202 54.7233C204.593 54.4276 204.966 54.1081 205.318 53.7667C205.403 53.6821 205.494 53.6038 205.59 53.5327C205.684 53.4667 205.797 53.4337 205.911 53.4385C206.146 53.4738 206.394 53.5135 206.635 53.5396C207.611 53.6431 208.594 53.656 209.572 53.5782C210.548 53.5058 211.517 53.3504 212.467 53.1137L212.455 53.0739C211.965 53.1179 211.482 53.1724 210.996 53.1895C210.509 53.2067 210.025 53.2369 209.548 53.2498C208.591 53.2725 207.635 53.2313 206.684 53.1265L206.33 53.0845L206.157 53.0612L206.065 53.0476C206.026 53.0406 205.987 53.036 205.947 53.0336C205.743 53.0225 205.541 53.0799 205.374 53.1967C205.257 53.2796 205.15 53.3739 205.053 53.4782C204.708 53.8187 204.355 54.1776 204.023 54.4464C203.887 54.5696 203.71 54.6376 203.526 54.6372C203.299 54.6189 203.075 54.5773 202.856 54.513C202.625 54.4639 202.398 54.3943 202.179 54.3051C202.072 54.2623 201.973 54.2053 201.882 54.1356C201.788 54.0719 201.726 53.9701 201.714 53.8571L201.667 53.859Z" fill="#7FBA6D"/>
<path d="M213.965 49.5776C213.9 49.5111 213.822 49.5279 213.754 49.5223C213.684 49.5231 213.615 49.5275 213.545 49.5354C213.407 49.549 213.271 49.5697 213.133 49.5914C212.861 49.6353 212.594 49.6902 212.319 49.7417C211.775 49.8467 211.235 49.9627 210.702 50.1256C209.642 50.4342 208.596 50.7905 207.551 51.1439L205.986 51.6843C205.725 51.7725 205.463 51.861 205.202 51.9422C204.94 52.0233 204.671 52.0803 204.402 52.1535C203.863 52.2874 203.342 52.484 202.848 52.7393C202.606 52.8741 202.376 53.0298 202.16 53.2047C202.05 53.2902 201.948 53.3848 201.854 53.4875C201.753 53.5902 201.686 53.7215 201.663 53.8635L201.705 53.8677C201.744 53.742 201.821 53.6317 201.926 53.5522C202.025 53.4649 202.131 53.3857 202.244 53.3155C202.468 53.169 202.705 53.042 202.951 52.9358C203.442 52.7235 203.955 52.5683 204.481 52.4733L204.882 52.3982C205.024 52.3749 205.171 52.3326 205.305 52.297C205.577 52.2223 205.843 52.1423 206.108 52.0624C206.637 51.8965 207.159 51.7162 207.682 51.5441L210.796 50.4348C211.054 50.3426 211.312 50.2547 211.569 50.1789L212.363 49.9593C212.627 49.8786 212.891 49.799 213.155 49.7274C213.288 49.6918 213.421 49.6591 213.554 49.6309C213.62 49.615 213.686 49.6009 213.753 49.5913C213.819 49.5818 213.894 49.5708 213.931 49.6029L213.965 49.5776Z" fill="#7FBA6D"/>
<path d="M212.472 53.0876C212.31 52.5889 212.334 52.0484 212.538 51.5663C212.734 51.0839 213.02 50.6438 213.381 50.27C213.474 50.1539 213.577 50.0459 213.688 49.9472C213.743 49.8951 213.799 49.8454 213.852 49.7918C213.879 49.7645 213.905 49.7354 213.928 49.7048C213.958 49.6734 213.969 49.6288 213.959 49.5867L213.935 49.6005C213.926 49.6517 213.845 49.6915 213.789 49.7285L213.596 49.8458C213.46 49.9307 213.334 50.0321 213.222 50.1476L213.238 50.1251C213.023 50.3009 212.833 50.5058 212.674 50.7339C212.511 50.9619 212.383 51.2121 212.291 51.4768C212.199 51.7467 212.16 52.032 212.175 52.317C212.192 52.5984 212.286 52.8698 212.446 53.1017L212.472 53.0876Z" fill="#7FBA6D"/>
<g style="mix-blend-mode:multiply">
<path fill-rule="evenodd" clip-rule="evenodd" d="M229.175 49.9431C229.177 49.9595 229.18 49.9777 229.181 49.9994C229.183 50.0168 229.151 50.0364 229.108 50.0626C229.105 50.0645 229.101 50.0665 229.098 50.0686C229.233 50.0906 229.37 50.1024 229.506 50.1038C229.566 50.1018 229.625 50.0964 229.684 50.0877C229.772 50.0736 229.859 50.0532 229.945 50.0266C230.118 49.9585 230.276 49.8569 230.409 49.7281C230.374 49.7551 230.333 49.7796 230.304 49.7968C230.303 49.7977 230.301 49.7987 230.3 49.7996C230.196 49.8605 230.085 49.9075 229.969 49.9395C229.767 49.9962 229.56 50.0294 229.351 50.0387C229.333 50.0215 229.309 50.0145 229.29 50.0088C229.272 50.0035 229.259 49.9994 229.257 49.9892C229.254 49.9852 229.25 49.9823 229.246 49.981C229.242 49.9759 229.236 49.972 229.23 49.9698C229.242 49.8598 229.298 49.7595 229.386 49.6928C229.516 49.6117 229.661 49.558 229.812 49.5351C229.887 49.5209 229.963 49.515 230.039 49.5175C230.172 49.5218 230.305 49.5442 230.432 49.584C230.455 49.5876 230.474 49.6017 230.484 49.622C230.487 49.6335 230.484 49.6456 230.477 49.6579C230.49 49.6434 230.503 49.6286 230.516 49.6135L230.536 49.5705L230.376 49.535L230.214 49.4981C229.937 49.4289 229.645 49.4655 229.395 49.6009C229.31 49.636 229.241 49.6998 229.199 49.7811C229.165 49.8571 229.169 49.8918 229.175 49.9431ZM230.409 49.7281C230.439 49.7056 230.465 49.6814 230.477 49.6579C230.455 49.6821 230.433 49.7055 230.409 49.7281Z" fill="#F9CFB2"/>
</g>
<path d="M230.278 49.5555C230.098 49.5127 229.913 49.5022 229.729 49.5244C229.688 49.5318 229.65 49.5397 229.599 49.5531C229.455 49.5756 229.327 49.659 229.247 49.7825C229.217 49.8643 229.207 49.9522 229.218 50.0388C229.448 50.0731 229.682 50.0556 229.904 49.9875C230.104 49.9278 230.288 49.8265 230.446 49.6901C230.432 49.7095 230.477 49.6472 230.488 49.6318" fill="white"/>
<path d="M229.252 49.964C229.25 49.7977 229.363 49.6524 229.524 49.6141C229.731 49.5413 229.952 49.5186 230.169 49.5477C230.21 49.561 230.424 49.6694 230.391 49.7099C230.358 49.7395 230.322 49.7656 230.283 49.7875C230.177 49.8406 230.066 49.8859 229.953 49.923C229.748 49.997 229.4 50.081 229.252 49.964Z" fill="white"/>
<path d="M230.008 49.6836C230.031 49.7458 230.029 49.8148 230 49.8749C229.972 49.935 229.921 49.981 229.858 50.0024C229.795 50.0262 229.725 50.0239 229.664 49.9961C229.603 49.9682 229.555 49.917 229.532 49.8538C229.508 49.7919 229.51 49.723 229.538 49.6629C229.566 49.6028 229.617 49.5567 229.68 49.5353C229.743 49.5109 229.813 49.5129 229.875 49.5407C229.936 49.5686 229.984 49.6201 230.008 49.6836Z" fill="#1A0909"/>
<path d="M229.686 49.5528C229.629 49.5721 229.582 49.6141 229.556 49.6691C229.53 49.7242 229.528 49.7874 229.55 49.8441C229.596 49.963 229.727 50.0243 229.847 49.9827C229.905 49.9629 229.951 49.9206 229.977 49.8655C230.002 49.8105 230.004 49.7473 229.983 49.6907C229.937 49.5721 229.806 49.5111 229.686 49.5528Z" fill="#5C8AC7"/>
<path d="M229.611 49.7743C229.615 49.8138 229.634 49.85 229.665 49.8747C229.696 49.8994 229.736 49.9103 229.775 49.9049C229.859 49.8958 229.919 49.8213 229.911 49.7378C229.907 49.6983 229.887 49.6621 229.856 49.6374C229.825 49.6127 229.785 49.6018 229.746 49.6072C229.663 49.6163 229.603 49.6908 229.611 49.7743Z" fill="#060508"/>
<path d="M229.669 49.6776C229.671 49.7086 229.651 49.7368 229.621 49.744C229.607 49.7469 229.593 49.7439 229.581 49.7356C229.57 49.7274 229.563 49.7148 229.561 49.7009C229.559 49.6698 229.579 49.6416 229.609 49.6344C229.623 49.6315 229.637 49.6345 229.649 49.6428C229.66 49.651 229.667 49.6636 229.669 49.6776Z" fill="#FFFAE4"/>
<path d="M229.927 49.8315C229.899 49.8971 229.834 49.9392 229.763 49.9386C229.692 49.9381 229.628 49.8949 229.6 49.8289C229.6 49.8289 229.577 49.8606 229.576 49.8616C229.613 49.9401 229.695 49.9873 229.781 49.9796C229.861 49.9755 229.931 49.9248 229.959 49.85C229.959 49.85 229.93 49.8274 229.927 49.8315Z" fill="#94BCE4"/>
<path d="M229.908 49.6352C229.945 49.6842 229.957 49.7469 229.941 49.8057L229.965 49.8064C229.991 49.7431 229.967 49.6706 229.908 49.6352Z" fill="#94BCE4"/>
<path d="M222.937 56.5413L222.935 56.4855L222.924 56.0709C222.937 55.9981 222.905 55.9244 222.842 55.885C222.779 55.8455 222.699 55.8483 222.64 55.892C222.58 55.9356 222.553 56.0114 222.572 56.0831L222.58 56.4845L222.371 56.5303C222.307 56.5431 222.241 56.5562 222.183 56.5745C222.135 56.584 222.092 56.6125 222.065 56.6538C222.038 56.695 222.029 56.7453 222.04 56.7935C222.05 56.8404 222.079 56.8811 222.12 56.906C222.161 56.9309 222.21 56.9377 222.257 56.9249L222.677 56.8349C222.691 56.8309 222.706 56.8294 222.728 56.8251C222.719 56.8383 222.713 56.8465 222.707 56.8547C222.662 56.916 222.619 56.9763 222.567 57.0325C222.503 57.1076 222.512 57.2204 222.587 57.2846C222.662 57.3487 222.775 57.3398 222.839 57.2648C222.839 57.2648 222.845 57.2556 222.848 57.2515C223.026 57.0251 223.207 56.7992 223.384 56.5721C223.425 56.5232 223.437 56.4562 223.415 56.3961C223.394 56.3361 223.341 56.2922 223.279 56.281C223.216 56.2698 223.152 56.293 223.111 56.3418C223.061 56.4114 223.004 56.4764 222.954 56.5396L222.937 56.5413Z" fill="white"/>
<path d="M224.753 57.7471C224.792 57.6877 224.835 57.6315 224.883 57.5791C224.908 57.5453 224.949 57.5265 224.991 57.5289C225.033 57.5314 225.071 57.5548 225.092 57.5912C225.105 57.6215 225.106 57.6555 225.094 57.6861C225.049 57.8379 224.942 57.949 224.816 58.1301C224.751 58.219 224.731 58.2621 224.745 58.2798C224.758 58.2976 224.83 58.2745 224.868 58.2603C224.934 58.2338 224.996 58.1969 225.05 58.151C225.173 58.0501 225.191 58.0175 225.291 57.9346C225.392 57.8517 225.465 57.7958 225.511 57.8103C225.591 57.8587 225.62 57.9604 225.579 58.044C225.566 58.0614 225.554 58.0605 225.476 58.1001C225.454 58.1108 225.476 58.1001 225.37 58.1557C225.317 58.1841 225.226 58.2309 225.12 58.2858L224.88 58.4005C224.875 58.4087 224.835 58.4222 224.791 58.4463L224.714 58.4884L224.67 58.5125C224.603 58.5417 224.526 58.534 224.466 58.4922C224.379 58.409 224.37 58.2736 224.443 58.179" fill="white"/>
<path d="M223.152 57.7739C223.297 57.8884 223.483 57.9357 223.665 57.904C223.846 57.8722 224.005 57.7643 224.102 57.6074C224.217 57.4331 224.24 57.2138 224.163 57.0193C224.087 56.8248 223.921 56.6795 223.719 56.6297C223.648 56.6132 223.575 56.6094 223.504 56.6184C223.445 56.6229 223.393 56.6582 223.367 56.7112C223.341 56.7642 223.345 56.827 223.378 56.8764C223.411 56.9285 223.47 56.9583 223.532 56.9544L223.552 56.952C223.78 56.9043 223.908 57.0941 223.843 57.2981C223.805 57.4297 223.701 57.5319 223.57 57.5676C223.499 57.5922 223.42 57.5811 223.359 57.5379C223.298 57.4947 223.261 57.4246 223.26 57.3495C223.259 57.2926 223.235 57.2385 223.193 57.2008C223.149 57.1625 223.089 57.1501 223.035 57.1682C222.98 57.1864 222.939 57.2323 222.927 57.2888C222.913 57.3606 222.921 57.4352 222.951 57.5024C222.991 57.6098 223.061 57.7039 223.152 57.7739Z" fill="white"/>
<path d="M224.141 57.726C224.056 57.8436 223.959 57.954 223.87 58.0703C223.82 58.134 223.819 58.2239 223.868 58.2888C223.914 58.3521 223.996 58.3772 224.07 58.3502C224.104 58.3359 224.134 58.3138 224.157 58.2857C224.336 58.0628 224.512 57.8385 224.689 57.6142C224.728 57.5638 224.738 57.496 224.714 57.4364C224.691 57.3768 224.637 57.3344 224.573 57.3251C224.51 57.3159 224.447 57.3413 224.407 57.3917C224.324 57.5061 224.231 57.615 224.142 57.7268L224.141 57.726Z" fill="white"/>
<path d="M222.258 56.2294C222.341 56.1149 222.435 56.0069 222.523 55.8943C222.568 55.8451 222.582 55.7746 222.559 55.7115C222.537 55.6485 222.481 55.6033 222.414 55.5945C222.348 55.5856 222.282 55.6145 222.244 55.6695C222.064 55.8944 221.886 56.1207 221.707 56.3481C221.649 56.4177 221.652 56.5201 221.714 56.5865C221.776 56.6529 221.878 56.6623 221.951 56.6084C221.968 56.5942 221.983 56.5781 221.996 56.5604C222.084 56.4507 222.17 56.3402 222.258 56.2294Z" fill="white"/>
<path fill-rule="evenodd" clip-rule="evenodd" d="M247.623 47.0431C247.623 48.7082 246.273 50.0581 244.608 50.0581C242.943 50.0581 241.593 48.7083 241.593 47.0431V46.1787H247.623V47.0431Z" fill="#2149FE"/>
<path fill-rule="evenodd" clip-rule="evenodd" d="M247.623 46.5541H241.593V46.1787H247.623V46.5541Z" fill="#1632B2"/>
<path fill-rule="evenodd" clip-rule="evenodd" d="M248 45.4905C248 45.8707 247.691 46.1788 247.311 46.1788H241.778C241.398 46.1788 241.09 45.8707 241.09 45.4905C241.09 45.1104 241.398 44.8022 241.778 44.8022H247.311C247.691 44.8022 248 45.1104 248 45.4905Z" fill="#2149FE"/>
<path fill-rule="evenodd" clip-rule="evenodd" d="M246.241 45.6782H242.849V45.3027H246.241V45.6782Z" fill="#8CC27B"/>
</g>
<defs>
<linearGradient id="paint0_linear_0_1482" x1="371.515" y1="56.3218" x2="374.348" y2="14.9911" gradientUnits="userSpaceOnUse">
<stop stop-color="#DFF0FF"/>
<stop offset="1" stop-color="#D6E4FF"/>
</linearGradient>
<linearGradient id="paint1_linear_0_1482" x1="321.865" y1="47.3728" x2="321.88" y2="42.9318" gradientUnits="userSpaceOnUse">
<stop stop-color="#DFF0FF"/>
<stop offset="1" stop-color="#D6E4FF"/>
</linearGradient>
<linearGradient id="paint2_linear_0_1482" x1="330.292" y1="42.7247" x2="331.052" y2="26.8312" gradientUnits="userSpaceOnUse">
<stop stop-color="#DFF0FF"/>
<stop offset="1" stop-color="#D6E4FF"/>
</linearGradient>
<linearGradient id="paint3_linear_0_1482" x1="389.997" y1="48.7266" x2="390.096" y2="37.9896" gradientUnits="userSpaceOnUse">
<stop stop-color="#DFF0FF"/>
<stop offset="1" stop-color="#D6E4FF"/>
</linearGradient>
<linearGradient id="paint4_linear_0_1482" x1="235.772" y1="76.2525" x2="235.772" y2="65.5463" gradientUnits="userSpaceOnUse">
<stop stop-color="#DFF0FF"/>
<stop offset="1" stop-color="#D6E4FF"/>
</linearGradient>
<linearGradient id="paint5_linear_0_1482" x1="213.746" y1="76.9286" x2="213.746" y2="74.1534" gradientUnits="userSpaceOnUse">
<stop stop-color="#DFF0FF"/>
<stop offset="1" stop-color="#D6E4FF"/>
</linearGradient>
<linearGradient id="paint6_linear_0_1482" x1="259.284" y1="76.2523" x2="259.284" y2="70.7554" gradientUnits="userSpaceOnUse">
<stop stop-color="#DFF0FF"/>
<stop offset="1" stop-color="#D6E4FF"/>
</linearGradient>
<linearGradient id="paint7_linear_0_1482" x1="248.623" y1="12.9828" x2="248.623" y2="6.80611" gradientUnits="userSpaceOnUse">
<stop stop-color="#DFF0FF"/>
<stop offset="1" stop-color="#D6E4FF"/>
</linearGradient>
<linearGradient id="paint8_linear_0_1482" x1="261.119" y1="13.4298" x2="261.119" y2="11.844" gradientUnits="userSpaceOnUse">
<stop stop-color="#DFF0FF"/>
<stop offset="1" stop-color="#D6E4FF"/>
</linearGradient>
<linearGradient id="paint9_linear_0_1482" x1="235.188" y1="12.985" x2="235.188" y2="9.93117" gradientUnits="userSpaceOnUse">
<stop stop-color="#DFF0FF"/>
<stop offset="1" stop-color="#D6E4FF"/>
</linearGradient>
<linearGradient id="paint10_linear_0_1482" x1="392.973" y1="178.973" x2="392.973" y2="87.9289" gradientUnits="userSpaceOnUse">
<stop stop-color="#C0FFAD"/>
<stop offset="1" stop-color="#8CC27B"/>
</linearGradient>
</defs>
</svg>
