<svg width="32" height="28" viewBox="0 0 32 28" fill="none" xmlns="http://www.w3.org/2000/svg">
<path d="M30.0942 11.1058L4.27584 0.241825C3.18815 -0.215905 1.95934 -0.0145467 1.06903 0.767055C0.178714 1.54878 -0.193661 2.75326 0.097339 3.91039L2.3954 13.0493H13.647C14.1648 13.0493 14.5846 13.4749 14.5846 14C14.5846 14.5251 14.1649 14.9508 13.647 14.9508H2.3954L0.097339 24.0896C-0.193661 25.2468 0.178652 26.4513 1.06903 27.233C1.96115 28.0161 3.19009 28.215 4.27591 27.7582L30.0943 16.8943C31.2698 16.3997 32 15.2906 32 14C32 12.7094 31.2698 11.6003 30.0942 11.1058Z" fill="white"/>
</svg>
