<svg width="53" height="65" viewBox="0 0 53 65" fill="none" xmlns="http://www.w3.org/2000/svg">
<path d="M6.51474 5.77898C-10.4814 20.7212 11.3916 35.2051 9.30829 51.5325C8.38205 58.7915 11.3246 65.731 20.9513 64.938C32.6833 63.9715 28.4246 52.7869 30.8814 45.3407C35.1089 32.5281 61.1153 35.5207 50.3351 15.7847C43.4554 3.18998 18.2128 -4.50539 6.51474 5.77898Z" fill="#81CFFA"/>
<g opacity="0.1">
<path d="M42.0228 18.3798C41.6759 18.3798 41.3949 18.0999 41.3949 17.7548C41.3949 15.8888 39.8695 14.3707 37.9947 14.3707H25.4285C22.8612 14.3707 20.7725 12.2918 20.7725 9.73656V6.28906C20.7725 5.94394 21.0537 5.66406 21.4004 5.66406C21.7472 5.66406 22.0284 5.94394 22.0284 6.28906V9.73656C22.0284 11.6026 23.5537 13.1207 25.4285 13.1207H37.9947C40.5621 13.1207 42.6508 15.1996 42.6508 17.7548C42.6508 18.0999 42.3697 18.3798 42.0228 18.3798Z" fill="#2626BC"/>
</g>
<path d="M44.7587 18.8724H39.2866V16.0049C39.2866 15.3145 39.8489 14.7549 40.5425 14.7549H43.5028C44.1964 14.7549 44.7587 15.3145 44.7587 16.0049V18.8724Z" fill="#8CC27B"/>
<path d="M49.7913 53.6226H3.13971C2.44607 53.6226 1.88379 53.0629 1.88379 52.3726V19.2888C1.88379 18.5984 2.44607 18.0388 3.13971 18.0388H49.7913C50.4849 18.0388 51.0472 18.5984 51.0472 19.2888V52.3726C51.0472 53.0628 50.4849 53.6226 49.7913 53.6226Z" fill="#2149FE"/>
<path d="M20.6475 23.2182V16.8254C20.6475 15.4447 19.523 14.3254 18.1357 14.3254H9.59339C8.2061 14.3254 7.08154 15.4447 7.08154 16.8254V23.2182C7.08154 23.8542 7.55905 24.3781 8.17658 24.4568V47.2047C7.55917 47.2834 7.08154 47.8073 7.08154 48.4433V54.8361C7.08154 56.2168 8.2061 57.3361 9.59339 57.3361H18.1357C19.523 57.3361 20.6475 56.2168 20.6475 54.8361V48.4433C20.6475 47.8073 20.17 47.2834 19.5525 47.2047V24.4568C20.17 24.3781 20.6475 23.8542 20.6475 23.2182Z" fill="#8CC27B"/>
<path d="M46.4765 29.6045C46.4765 30.2945 45.9151 30.8545 45.2206 30.8545H26.4659C25.7726 30.8545 25.21 30.2945 25.21 29.6045V25.3757C25.21 24.6845 25.7726 24.1257 26.4659 24.1257H45.2206C45.9151 24.1257 46.4765 24.6845 46.4765 25.3757V29.6045Z" fill="white"/>
<path d="M25.5147 35.4625C25.4508 35.5101 25.4141 35.5306 25.4046 35.521C25.3801 35.4965 25.4209 35.4774 25.5147 35.4625Z" fill="#97FFD2"/>
<path d="M40.7947 24.1257L34.0354 30.8545H30.25C32.586 28.5107 35.2323 25.817 36.8888 24.1257L40.7947 24.1257Z" fill="#D9DBE7"/>
<path d="M46.4762 25.3757V27.372L42.9785 30.8545H36.1538L42.9144 24.1257H45.2203C45.9149 24.1257 46.4762 24.6845 46.4762 25.3757Z" fill="#D9DBE7"/>
<ellipse cx="27.2299" cy="38.3202" rx="2.0199" ry="2.01038" fill="#8CC27B"/>
<ellipse cx="33.2582" cy="38.3202" rx="2.0199" ry="2.01038" fill="#8CC27B"/>
<ellipse cx="39.2865" cy="38.3202" rx="2.0199" ry="2.01038" fill="#8CC27B"/>
<ellipse cx="27.2299" cy="43.5287" rx="2.0199" ry="2.01038" fill="#8CC27B"/>
<ellipse cx="33.2582" cy="43.5287" rx="2.0199" ry="2.01038" fill="#8CC27B"/>
<ellipse cx="39.2865" cy="43.5287" rx="2.0199" ry="2.01038" fill="#8CC27B"/>
<ellipse cx="27.2299" cy="48.7369" rx="2.0199" ry="2.01038" fill="#8CC27B"/>
<ellipse cx="33.2582" cy="48.7369" rx="2.0199" ry="2.01038" fill="#8CC27B"/>
<ellipse cx="39.2865" cy="48.7369" rx="2.0199" ry="2.01038" fill="#8CC27B"/>
<path d="M45.3891 38.7456H44.571C43.9703 38.7456 43.4834 38.2609 43.4834 37.6631C43.4834 37.0652 43.9703 36.5806 44.571 36.5806H45.3891C45.9898 36.5806 46.4768 37.0652 46.4768 37.6631C46.4768 38.2609 45.9898 38.7456 45.3891 38.7456Z" fill="#8CC27B"/>
<path d="M45.3891 42.6906H44.571C43.9703 42.6906 43.4834 42.206 43.4834 41.6081C43.4834 41.0103 43.9703 40.5256 44.571 40.5256H45.3891C45.9898 40.5256 46.4768 41.0103 46.4768 41.6081C46.4768 42.206 45.9898 42.6906 45.3891 42.6906Z" fill="#8CC27B"/>
<path d="M45.3891 46.6357H44.571C43.9703 46.6357 43.4834 46.1511 43.4834 45.5532C43.4834 44.9553 43.9703 44.4707 44.571 44.4707H45.3891C45.9898 44.4707 46.4768 44.9553 46.4768 45.5532C46.4768 46.151 45.9898 46.6357 45.3891 46.6357Z" fill="#8CC27B"/>
<path d="M45.3891 50.5808H44.571C43.9703 50.5808 43.4834 50.0961 43.4834 49.4983C43.4834 48.9004 43.9703 48.4158 44.571 48.4158H45.3891C45.9898 48.4158 46.4768 48.9004 46.4768 49.4983C46.4768 50.0961 45.9898 50.5808 45.3891 50.5808Z" fill="#8CC27B"/>
<path d="M31.9915 62.3359C31.6447 62.3359 31.3636 62.0561 31.3636 61.7109C31.3636 61.2973 31.0255 60.9609 30.6099 60.9609C30.263 60.9609 29.9819 60.6811 29.9819 60.3359C29.9819 59.9908 30.263 59.7109 30.6099 59.7109C31.0255 59.7109 31.3636 59.3746 31.3636 58.9609C31.3636 58.6158 31.6447 58.3359 31.9915 58.3359C32.3384 58.3359 32.6195 58.6158 32.6195 58.9609C32.6195 59.3746 32.9575 59.7109 33.3729 59.7109C33.7198 59.7109 34.0009 59.9908 34.0009 60.3359C34.0009 60.6811 33.7198 60.9609 33.3729 60.9609C32.9575 60.9609 32.6195 61.2973 32.6195 61.7109C32.6195 62.0561 32.3384 62.3359 31.9915 62.3359Z" fill="black"/>
<path d="M39.2863 62.125C38.9394 62.125 38.6584 61.8451 38.6584 61.5C38.6584 61.0864 38.3204 60.75 37.9048 60.75C37.5579 60.75 37.2769 60.4701 37.2769 60.125C37.2769 59.7799 37.5579 59.5 37.9048 59.5C38.3204 59.5 38.6584 59.1636 38.6584 58.75C38.6584 58.4049 38.9394 58.125 39.2863 58.125C39.6332 58.125 39.9143 58.4049 39.9143 58.75C39.9143 59.1636 40.2523 59.5 40.6679 59.5C41.0147 59.5 41.2958 59.7799 41.2958 60.125C41.2958 60.4701 41.0147 60.75 40.6679 60.75C40.2523 60.75 39.9143 61.0864 39.9143 61.5C39.9143 61.8451 39.6332 62.125 39.2863 62.125Z" fill="black"/>
<path d="M48.6955 9.66406C48.3486 9.66406 48.0676 9.38419 48.0676 9.03906C48.0676 8.62544 47.7296 8.28906 47.314 8.28906C46.9671 8.28906 46.686 8.00919 46.686 7.66406C46.686 7.31894 46.9671 7.03906 47.314 7.03906C47.7296 7.03906 48.0676 6.70269 48.0676 6.28906C48.0676 5.94394 48.3486 5.66406 48.6955 5.66406C49.0424 5.66406 49.3235 5.94394 49.3235 6.28906C49.3235 6.70269 49.6614 7.03906 50.077 7.03906C50.4239 7.03906 50.705 7.31894 50.705 7.66406C50.705 8.00919 50.4239 8.28906 50.077 8.28906C49.6614 8.28906 49.3235 8.62544 49.3235 9.03906C49.3235 9.38419 49.0424 9.66406 48.6955 9.66406Z" fill="black"/>
<path fill-rule="evenodd" clip-rule="evenodd" d="M14.3438 10.4001C14.4665 10.5221 14.6271 10.5831 14.7879 10.5831C14.9485 10.5831 15.1093 10.522 15.2319 10.4001L16.6134 9.02513C16.8587 8.78113 16.8587 8.38538 16.6134 8.14125L15.2319 6.76625C14.9866 6.52225 14.5891 6.52225 14.3438 6.76625L12.9623 8.14125C12.717 8.38525 12.717 8.781 12.9623 9.02513L14.3438 10.4001ZM14.7879 9.07425L14.2944 8.58313L14.7879 8.092L15.2813 8.58313L14.7879 9.07425Z" fill="black"/>
<path fill-rule="evenodd" clip-rule="evenodd" d="M40.0884 8.10618C40.2109 8.22818 40.3718 8.28918 40.5324 8.28918C40.693 8.28918 40.8539 8.22806 40.9764 8.10618L42.3579 6.73118C42.6032 6.48718 42.6032 6.09143 42.3579 5.84731L40.9764 4.47231C40.7313 4.22831 40.3335 4.22831 40.0884 4.47231L38.7069 5.84731C38.4616 6.09131 38.4616 6.48706 38.7069 6.73118L40.0884 8.10618ZM40.5324 6.78031L40.0389 6.28918L40.5324 5.79806L41.0258 6.28918L40.5324 6.78031Z" fill="black"/>
<path d="M6.22331 16.8313V17.4203H2.8714C1.82066 17.4203 0.96582 18.2621 0.96582 19.2968V52.4071C0.96582 53.4418 1.82066 54.2836 2.8714 54.2836H6.22331V54.8725C6.22331 56.597 7.64805 58 9.39927 58H18.0399C19.7912 58 21.2159 56.597 21.2159 54.8725V54.2836H50.0602C51.111 54.2836 51.9658 53.4418 51.9658 52.4071V19.2967C51.9658 18.262 51.111 17.4202 50.0602 17.4202H45.6046V16.01C45.6046 14.9753 44.7498 14.1335 43.699 14.1335H42.793C42.4818 11.8711 40.5087 10.1211 38.1273 10.1211H25.4164C23.52 10.1211 21.9771 8.6018 21.9771 6.73428V0.625506C21.9771 0.280102 21.6927 0 21.3419 0C20.9912 0 20.7067 0.280102 20.7067 0.625506V6.73428C20.7067 9.2916 22.8195 11.3722 25.4164 11.3722H38.1273C39.8067 11.3722 41.2079 12.5639 41.5069 14.1335H40.7046C39.6539 14.1335 38.799 14.9753 38.799 16.01V17.4202H24.8568C24.5061 17.4202 24.2216 17.7003 24.2216 18.0457C24.2216 18.3911 24.5061 18.6712 24.8568 18.6712H50.0602C50.4105 18.6712 50.6954 18.9518 50.6954 19.2967V52.4071C50.6954 52.752 50.4105 53.0326 50.0602 53.0326H21.2158V48.4745C21.2158 47.7287 20.7666 47.0714 20.1081 46.7715V42.5887C20.1081 42.2433 19.8237 41.9632 19.4729 41.9632C19.1222 41.9632 18.8377 42.2433 18.8377 42.5887V47.2349C18.8377 47.5497 19.0752 47.8154 19.3921 47.8553C19.7074 47.8951 19.9452 48.1613 19.9452 48.4744V54.8723C19.9452 55.9071 19.0904 56.7489 18.0397 56.7489H9.39902C8.34828 56.7489 7.49344 55.9071 7.49344 54.8723V48.4744C7.49344 48.1613 7.73126 47.8951 8.04657 47.8553C8.36353 47.8153 8.60096 47.5495 8.60096 47.2349V24.4688C8.60096 24.154 8.36353 23.8883 8.04657 23.8484C7.73126 23.8086 7.49344 23.5424 7.49344 23.2291V16.8312C7.49344 15.7965 8.34828 14.9547 9.39902 14.9547H18.0397C19.0904 14.9547 19.9452 15.7965 19.9452 16.8312V23.2291C19.9452 23.5423 19.7074 23.8085 19.3921 23.8484C19.0752 23.8884 18.8377 24.1541 18.8377 24.4688V38.3778C18.8377 38.7232 19.1222 39.0033 19.4729 39.0033C19.8237 39.0033 20.1081 38.7232 20.1081 38.3778V24.9321C20.7666 24.6323 21.2158 23.9751 21.2158 23.2291V16.8312C21.2158 15.1067 19.791 13.7037 18.0398 13.7037H9.39915C7.64805 13.7038 6.22331 15.1067 6.22331 16.8313Z" fill="#1B3CD1"/>
<path d="M39.9658 16.3446C39.9658 16.0036 40.2331 15.7261 40.5616 15.7261H43.3701C43.6986 15.7261 43.9658 16.0036 43.9658 16.3446V17.7391H39.9658V16.3446Z" fill="#1B3CD1"/>
<path d="M5.87865 48.4278V52.9673H2.5892C2.24547 52.9673 1.96582 52.6879 1.96582 52.3444V19.3686C1.96582 19.0251 2.24547 18.7456 2.5892 18.7456H5.87877V23.285C5.87877 24.0279 6.31963 24.6824 6.96582 24.9811V46.7317C6.3195 47.0304 5.87865 47.6849 5.87865 48.4278Z" fill="#2149FE"/>
</svg>
