<svg width="222" height="53" viewBox="0 0 222 53" fill="none" xmlns="http://www.w3.org/2000/svg">
<path fill-rule="evenodd" clip-rule="evenodd" d="M48.0773 38.898C50.4374 34.9708 51.5297 30.6717 51.5497 25.4008C51.5277 25.1795 51.507 24.9055 51.4834 24.5935C51.4212 23.7724 51.3392 22.6888 51.163 21.6136C49.2954 10.8588 40.7791 2.50822 30.0182 0.880312C19.2572 -0.747597 8.66468 4.71224 3.71847 14.4362C-1.22773 24.1602 0.581508 35.968 8.21054 43.753C15.6737 51.6375 27.3603 53.7811 37.1219 49.0559C38.3338 48.472 39.0235 48.564 39.9644 49.5038C42.5597 52.1273 45.8926 52.2593 48.3364 49.9038C50.7802 47.5482 50.8201 43.973 48.2646 41.3415C47.3876 40.4337 47.5112 39.8378 48.0773 38.898ZM32.7286 15.4149C36.5399 19.1861 37.5206 23.8491 36.6754 29.488L36.2926 29.1059C35.7478 28.5618 35.3671 28.1817 34.9811 27.8043C32.5054 25.3968 28.8974 25.3208 26.5254 27.6684C24.1533 30.0159 24.1613 33.6031 26.5891 36.1066C27.5011 36.9497 28.3574 37.8514 29.1526 38.806C27.2691 39.5974 25.1553 39.636 23.2443 38.914C20.4736 37.8423 18.6038 35.7867 17.3082 33.1632C14.4338 27.3324 15.5461 19.646 19.8676 15.4629C23.6669 11.7837 28.9174 11.6437 32.7286 15.4149ZM27.5939 2.3856C10.1083 2.3856 -1.34138 18.6622 4.09246 33.9471C5.26838 37.3424 7.23196 40.4087 9.82131 42.8932C10.0013 43.0655 10.308 43.1069 10.6115 43.1478C10.7518 43.1667 10.8913 43.1855 11.0173 43.2171C10.986 42.7943 10.9043 42.3768 10.7741 41.9734C10.5753 41.6622 10.3383 41.3773 10.0685 41.1256C5.94227 35.9266 4.32767 30.0159 5.43995 23.5292C8.44591 6.04884 28.0284 -1.11767 41.6708 10.156C41.9416 10.3814 42.3375 10.4556 42.7285 10.5289C42.9131 10.5635 43.0967 10.5979 43.2655 10.6479C43.1852 10.4817 43.1176 10.3029 43.05 10.1241C42.9059 9.74341 42.7619 9.36271 42.4961 9.10421C38.0111 4.68912 32.5812 2.45759 27.5939 2.3856ZM36.5797 14.995C39.6614 18.4783 40.8972 22.6374 41.1723 27.2485C41.0968 27.6544 41.0283 28.0591 40.96 28.462L40.96 28.4621C40.7795 29.5277 40.6012 30.5803 40.3032 31.6075C39.9604 32.8273 39.0155 33.8071 37.7278 33.5352C36.9069 33.3638 36.1445 32.8514 35.3899 32.3443C35.1404 32.1766 34.8918 32.0095 34.6421 31.8555C34.5035 31.6476 34.4838 31.3819 34.5903 31.1556C34.8066 30.9579 35.0965 30.8619 35.3876 30.8917C37.5883 31.2516 38.2182 30.8317 38.4893 28.6122C39.0873 23.7932 38.0627 19.3821 35.1006 15.4829C34.9108 15.297 34.7532 15.0808 34.6342 14.843C34.5624 14.5751 34.5425 14.1432 34.694 14.0152C34.957 13.8751 35.2721 13.8751 35.5352 14.0152C35.9262 14.2925 36.2776 14.6222 36.5797 14.995ZM27.3626 43.753C28.7074 43.4902 30.038 43.1592 31.3493 42.7612C32.5094 42.3613 33.5101 41.3935 33.2589 40.1298C33.0842 39.2441 32.5558 38.4222 32.0346 37.6115C31.878 37.368 31.722 37.1254 31.5765 36.8825C31.3296 36.7079 31.011 36.6717 30.7314 36.7865C30.5599 36.8865 30.4842 37.3424 30.54 37.5863C31.0822 40.0258 30.6955 40.6257 28.2118 41.0416C24.9268 41.5935 22.0205 40.7537 19.4411 38.6741C19.2075 38.486 18.8757 38.4206 18.543 38.3549L18.5429 38.3549C18.3874 38.3242 18.2317 38.2935 18.0856 38.2502C18.1326 38.4068 18.1646 38.5776 18.1966 38.7483C18.2651 39.1136 18.3334 39.4784 18.5481 39.7019C20.8568 42.1402 24.0141 43.5913 27.3626 43.753ZM32.9837 30.4118C30.6675 29.564 28.7698 30.6397 28.7698 33.2112C28.9803 33.6662 29.1667 34.1321 29.3279 34.6069C29.3841 34.9438 29.3961 35.2867 29.3638 35.6267C29.2621 35.6143 29.1515 35.6127 29.0408 35.6111C28.7957 35.6075 28.5501 35.604 28.399 35.4827C27.1153 34.439 26.1904 33.1712 26.4456 31.3836C26.6526 29.7341 27.8103 28.3624 29.398 27.8855C30.9856 27.4085 32.7043 27.9162 33.7811 29.1801C33.9634 29.3872 34.0412 29.6921 34.1174 29.9913C34.1545 30.1368 34.1913 30.2809 34.2395 30.4118C33.8237 30.48 33.3996 30.48 32.9837 30.4118Z" fill="#2149FE"/>
<path fill-rule="evenodd" clip-rule="evenodd" d="M179.788 18.6796C179.676 18.8122 179.563 18.9449 179.45 19.0781L179.055 18.8661C179.055 17.7492 179.063 16.6318 179.071 15.5143V15.5143V15.5142C179.087 13.2787 179.103 11.0426 179.055 8.80822C179.029 6.94007 178.246 5.16323 176.886 3.8862C175.526 2.60917 173.708 1.94184 171.848 2.03762C168.06 2.16159 165.198 5.12098 165.178 9.20813C165.151 16.7186 165.16 24.229 165.169 31.7395C165.173 35.4947 165.178 39.2499 165.178 43.0051C165.178 43.2171 165.194 43.433 165.214 43.645C165.573 47.4802 168.686 50.3036 172.39 50.1596C176.136 49.9943 179.084 46.8909 179.067 43.1291C179.083 41.1779 179.078 39.2232 179.073 37.2674V37.2673V37.2669V37.2667V37.2666C179.07 36.2882 179.067 35.3096 179.067 34.3309C179.067 34.0823 179.103 33.8336 179.15 33.5102C179.177 33.329 179.206 33.1244 179.235 32.8832C179.419 33.0955 179.583 33.2836 179.733 33.4556C180.055 33.8248 180.312 34.1201 180.562 34.4229C181.689 35.7957 182.813 37.1705 183.937 38.5453L183.938 38.5464L183.939 38.5476C186.356 41.5054 188.774 44.463 191.223 47.4002C193.942 50.6875 198.032 51.2074 201.118 48.64C204.203 46.0725 204.594 41.7614 201.991 38.4741C201.068 37.3119 200.123 36.1739 199.175 35.0329C198.488 34.2067 197.801 33.379 197.119 32.5393C195.516 30.5874 193.914 28.6288 192.281 26.6327L192.279 26.6314L191.829 26.0806C195.206 21.9895 198.502 17.9903 201.764 13.9911C204.606 10.4959 204.307 6.25275 201.118 3.5933C198.04 1.04183 193.762 1.62571 190.972 5.013C188.912 7.52193 186.863 10.0368 184.816 12.5503C183.496 14.1715 182.176 15.7922 180.853 17.4104C180.502 17.8392 180.146 18.2587 179.788 18.6796L179.788 18.6796L179.788 18.6796ZM169.26 10.4719V27.1284C169.259 28.3938 169.257 29.6596 169.254 30.926C169.245 34.8866 169.236 38.8525 169.284 42.8252C169.295 43.5579 169.456 44.289 169.618 45.0206C169.708 45.427 169.798 45.8335 169.862 46.2405C169.884 46.5807 169.872 46.9223 169.826 47.2602C169.703 47.237 169.568 47.2275 169.434 47.2181C169.153 47.1982 168.874 47.1785 168.698 47.0323C167.279 45.8405 166.908 44.2169 166.908 42.4332V9.76402C166.896 9.33685 166.912 8.90935 166.956 8.48429C167.43 4.94102 170.68 2.90144 173.989 4.14119C174.71 4.41131 175.335 4.98959 175.93 5.54007L175.93 5.54022L175.93 5.54068C175.996 5.60122 176.061 5.66143 176.125 5.72086C176.252 5.83664 176.244 6.10443 176.236 6.3723C176.232 6.49304 176.228 6.6138 176.237 6.72065C175.905 6.74663 175.572 6.74663 175.24 6.72065C174.895 6.67214 174.545 6.58821 174.197 6.50452C173.51 6.33982 172.828 6.17602 172.191 6.28474C170.305 6.60068 169.26 8.23234 169.26 10.4719ZM179.012 21.3456L178.693 20.8057L177.421 21.3456C177.497 21.4867 177.565 21.639 177.633 21.7914C177.779 22.1185 177.925 22.4458 178.151 22.6613C179.526 23.9051 181.527 23.6051 182.891 21.9495C184.953 19.4398 187.006 16.9221 189.059 14.4043C190.84 12.22 192.621 10.0356 194.408 7.85641C195.911 6.02479 197.482 5.66886 199.475 6.55668C199.938 6.6842 200.415 6.74613 200.895 6.74064C200.833 6.58465 200.784 6.4164 200.735 6.24795L200.735 6.24793C200.627 5.88087 200.52 5.51291 200.285 5.26895C198.036 2.96942 194.588 3.30935 192.355 6.04079C190.895 7.82347 189.444 9.61467 187.993 11.4056L187.992 11.4058L187.992 11.4061C185.722 14.2072 183.453 17.0077 181.153 19.7739C180.776 20.2261 180.248 20.5528 179.717 20.8811L179.717 20.8811C179.478 21.0291 179.238 21.1774 179.012 21.3376V21.3456ZM181.371 31.1879C181.459 31.1472 181.555 31.1027 181.643 31.0516V31.0436C182.03 31.3281 182.394 31.6437 182.731 31.9874C186.572 36.6371 190.385 41.3028 194.173 45.9845C194.357 46.2019 194.377 46.5431 194.398 46.885C194.407 47.0462 194.417 47.2076 194.444 47.3562C194.287 47.2909 194.113 47.2399 193.939 47.189C193.571 47.0809 193.203 46.973 192.997 46.7284C190.342 43.5696 187.726 40.3805 185.11 37.1908C184.583 36.548 184.056 35.9053 183.528 35.2627C183.374 35.0758 183.22 34.8892 183.065 34.7024C182.438 33.9463 181.809 33.1883 181.224 32.3993C181.066 32.0917 181.01 31.7413 181.065 31.3995C181.067 31.3289 181.205 31.265 181.371 31.1879Z" fill="#2149FE"/>
<path fill-rule="evenodd" clip-rule="evenodd" d="M68.7761 20.9136C68.7761 22.1607 68.7739 23.4079 68.7717 24.6543V24.6549C68.7672 27.1453 68.7628 29.6327 68.7761 32.1113C68.8 35.9305 71.4791 38.7259 75.095 38.7579C78.7109 38.7899 81.4737 36.0345 81.4976 32.2033C81.5211 28.6821 81.5159 25.1618 81.5106 21.6419V21.6417C81.5043 17.418 81.4979 13.1951 81.5414 8.97207C81.5224 6.53851 82.7786 4.27364 84.85 3.00687C86.9215 1.7401 89.5039 1.65752 91.6516 2.78936C94.0715 4.04909 95.435 6.13266 95.4469 8.8521C95.4551 10.6764 95.4737 12.5028 95.4922 14.3302V14.3304C95.5551 20.5147 95.618 26.7104 95.2795 32.8751C94.7054 43.3769 85.7394 51.4753 75.3063 51.5392C64.8731 51.6032 55.7158 43.6249 55.0779 33.1431C54.6093 25.4862 54.747 17.787 54.8845 10.1052C54.8932 9.61808 54.9019 9.13107 54.9105 8.64414C54.9782 4.62498 58.2274 1.89354 62.0865 2.01352C65.8778 2.13349 68.7243 5.15687 68.7602 9.18003C68.7873 11.8674 68.783 14.5234 68.7788 17.1743V17.1745C68.7768 18.421 68.7748 19.6665 68.7761 20.9136ZM83.2158 20.8496V27.0883C83.2158 27.6576 83.2269 28.2364 83.238 28.8203C83.2676 30.3693 83.2978 31.9534 83.1241 33.487C82.4304 39.5257 75.689 42.4571 70.5063 39.0458C70.2358 38.864 69.8679 38.8221 69.4999 38.7803C69.3257 38.7604 69.1514 38.7406 68.9874 38.7059C69.0528 38.8599 69.1059 39.0262 69.159 39.1924C69.2741 39.5529 69.3891 39.9129 69.6292 40.1456C71.9176 42.3572 74.6684 43.285 77.8139 42.7011C82.4384 41.8413 85.4523 38.174 85.4922 33.267C85.5248 29.0029 85.5193 24.74 85.5139 20.4778V20.4768V20.4765C85.51 17.432 85.5062 14.3878 85.5161 11.3436C85.4952 10.7047 85.5285 10.0652 85.6158 9.43198C86.0942 6.71654 88.6497 5.40882 91.1971 6.49259C91.5006 6.62305 91.8593 6.62421 92.2182 6.62537C92.3873 6.62592 92.5566 6.62647 92.72 6.64056C92.6497 6.4844 92.5917 6.31514 92.5337 6.14604L92.5337 6.14595C92.4075 5.7781 92.2816 5.41098 92.0304 5.18086C90.4357 3.72516 88.554 3.31725 86.5606 4.15308C84.5377 4.89564 83.2104 6.84773 83.2597 9.00807C83.1964 11.9896 83.2037 14.9756 83.2111 17.9611C83.2134 18.924 83.2158 19.8869 83.2158 20.8496ZM58.9363 17.8896C58.9407 19.1698 58.9452 20.4498 58.9452 21.7294V31.6554C58.8826 35.8619 60.295 39.9568 62.9358 43.225C63.1431 43.4876 63.2328 43.8456 63.3224 44.203C63.3638 44.3682 63.4052 44.5332 63.4581 44.6887C63.28 44.6207 63.0851 44.5718 62.8914 44.5232C62.5039 44.4261 62.1212 44.3301 61.8873 44.0848C58.6103 40.6095 56.7565 36.4584 56.6807 31.6874C56.5772 25.1771 56.6081 18.6638 56.639 12.1526C56.6437 11.1404 56.6485 10.1282 56.6528 9.11604C56.6528 6.82852 57.7452 5.09688 59.8422 4.18107C61.8275 3.31725 63.7093 3.68517 65.3039 5.17286C65.5505 5.40387 65.6773 5.76418 65.8046 6.12574C65.8647 6.29621 65.9248 6.46695 65.9976 6.62456C65.8375 6.61336 65.6716 6.61494 65.5056 6.61653C65.1383 6.62003 64.7702 6.62355 64.4627 6.48859C61.7638 5.30883 58.989 7.11646 58.9452 10.2078C58.9186 12.7674 58.9275 15.3288 58.9363 17.8896Z" fill="#2149FE"/>
<path fill-rule="evenodd" clip-rule="evenodd" d="M143.219 51.5554C128.241 51.6553 116.775 38.758 118.218 23.4052C119.813 6.32874 137.713 -4.26906 153.213 2.82147C155.764 4.01868 158.078 5.66892 160.043 7.69246C163.631 11.3877 162.255 17.2225 157.694 18.6542C155.279 19.414 153.07 18.8741 151.108 17.2905C150.901 17.1245 150.711 16.9368 150.542 16.7306C144.722 9.70404 136.246 12.4115 133.348 20.2259C131.39 25.5048 131.801 30.6517 135.162 35.2987C138.969 40.5576 145.459 40.9216 149.857 36.1586C151.411 34.4749 153.11 33.2911 155.478 33.2512C160.389 33.1712 163.451 37.8062 161.426 42.3653C160.23 45.0807 157.989 46.8123 155.574 48.32C152.121 50.4716 147.939 51.5234 143.219 51.5554ZM119.841 27.7443C119.841 32.4113 122.074 37.9702 126.459 42.6452C126.708 42.9167 127.089 43.0573 127.472 43.1984C127.653 43.2652 127.834 43.3321 128.002 43.413C127.869 42.8718 127.708 42.3378 127.519 41.8134C127.352 41.542 127.154 41.2911 126.929 41.0655C121.496 33.6071 120.435 25.5527 124.454 17.2425C128.416 9.04417 135.19 4.78105 144.387 4.73706C149.119 4.66306 153.723 6.28054 157.376 9.30012C157.65 9.51204 158.017 9.58948 158.383 9.6667C158.549 9.70169 158.714 9.73663 158.871 9.78402C158.811 9.61822 158.768 9.4348 158.724 9.2515C158.63 8.8556 158.535 8.46029 158.285 8.24434C157.117 7.15584 155.84 6.19219 154.473 5.36893C138.838 -3.32127 120.037 7.76844 119.841 27.7443ZM143.77 43.5729C143.767 43.5729 143.764 43.573 143.761 43.573H143.777C143.775 43.573 143.773 43.5729 143.77 43.5729ZM153.449 38.87C150.939 41.7871 147.812 43.5104 143.77 43.5729C140.408 43.4992 137.48 42.1197 135.086 39.6698C134.885 39.4658 134.819 39.1269 134.753 38.788C134.723 38.6353 134.694 38.4825 134.651 38.3421C134.793 38.3723 134.945 38.3898 135.097 38.4074C135.428 38.4457 135.76 38.4841 135.995 38.654C141.297 42.5612 146.863 42.0413 151.368 37.0904C153.026 35.2467 154.956 34.5149 157.348 35.2467C157.994 35.4796 158.577 35.8587 159.054 36.3545C159.243 36.5448 159.302 36.868 159.361 37.1907C159.388 37.3361 159.414 37.4813 159.452 37.6143C159.03 37.674 158.601 37.6672 158.181 37.5943C156.299 36.9424 154.748 37.3663 153.449 38.87Z" fill="#2149FE"/>
<path fill-rule="evenodd" clip-rule="evenodd" d="M114.174 31.7914C114.169 29.8878 114.164 27.9842 114.164 26.0806H114.168C114.168 24.2303 114.172 22.38 114.175 20.5297C114.182 16.8292 114.19 13.1286 114.168 9.42803C114.14 5.11693 111.254 2.05356 107.22 2.04956C103.185 2.04557 100.215 5.04894 100.215 9.38004C100.171 20.5337 100.159 31.6914 100.251 42.8451C100.287 44.2764 100.676 45.6764 101.383 46.9203C102.943 49.5358 106.061 50.7717 108.982 49.9316C112.039 49.1475 114.175 46.3791 114.164 43.213C114.194 39.4058 114.184 35.5986 114.174 31.7914ZM102.001 42.8291V25.8646C102.001 20.2098 102.001 14.559 102.017 8.90814C102.025 6.61661 103.257 5.06894 105.25 4.19312C107.091 3.31424 109.286 3.70277 110.716 5.16092C110.969 5.39614 111.102 5.76043 111.234 6.12457C111.295 6.29287 111.356 6.46113 111.429 6.61661C111.267 6.60643 111.099 6.61042 110.93 6.61442C110.569 6.62297 110.208 6.63152 109.906 6.50064C107.184 5.30089 104.377 7.05252 104.297 10.0999C104.249 11.9469 104.259 13.7959 104.269 15.6456C104.273 16.4111 104.277 17.1767 104.277 17.9423C104.277 19.9238 104.276 21.906 104.275 23.8887C104.27 30.1691 104.266 36.4543 104.305 42.7371C104.31 43.4508 104.471 44.1629 104.632 44.8775C104.728 45.3 104.824 45.7234 104.887 46.1484C104.908 46.5306 104.889 46.9139 104.831 47.2922C104.712 47.2591 104.583 47.237 104.454 47.2148C104.176 47.1673 103.899 47.1197 103.719 46.9642C102.487 45.8805 102.001 44.4688 102.001 42.8291Z" fill="#2149FE"/>
<path fill-rule="evenodd" clip-rule="evenodd" d="M207.687 9.39213V26.0487C207.687 27.8819 207.686 29.7147 207.685 31.5472C207.682 35.2114 207.68 38.8743 207.687 42.5373C207.657 43.3888 207.743 44.2405 207.943 45.0687C208.874 48.4005 212.094 50.5489 215.517 50.1237C219.042 49.6558 221.629 46.8204 221.629 43.0372C221.685 31.7728 221.685 20.5098 221.629 9.24816C221.605 4.98504 218.503 1.96967 214.493 2.04965C210.546 2.12963 207.687 5.173 207.687 9.39213ZM209.414 42.5532V26.0487V26.0407C209.414 24.1544 209.413 22.269 209.411 20.3836C209.409 16.6128 209.406 12.8421 209.414 9.06419C209.422 6.81666 210.554 5.20899 212.547 4.26518C214.389 3.39337 216.179 3.65731 217.814 4.85706C218.14 5.055 218.414 5.32948 218.611 5.6569C218.72 6.02378 218.77 6.40591 218.759 6.78866C218.419 6.82436 218.076 6.80682 217.742 6.73667C214.178 5.32496 211.762 6.94063 211.762 10.8198C211.722 21.6069 211.722 32.3953 211.762 43.1851C211.765 43.8036 211.918 44.4221 212.072 45.0426C212.162 45.4051 212.252 45.7682 212.312 46.1325C212.344 46.5171 212.344 46.9037 212.312 47.2883C212.166 47.241 212.011 47.2098 211.859 47.179C211.561 47.1187 211.273 47.0606 211.08 46.8883C209.813 45.7526 209.414 44.2249 209.414 42.5532Z" fill="#2149FE"/>
<path d="M27.5935 2.3855C32.5808 2.45749 38.0107 4.68902 42.5116 9.11611C42.9103 9.49603 43.0299 10.1399 43.281 10.6598C42.7388 10.5038 42.085 10.4998 41.6864 10.1679C28.044 -1.10577 8.46143 6.06074 5.45547 23.5411C4.32724 30.0158 5.94185 35.9265 10.0681 41.1255C10.3372 41.3812 10.573 41.6701 10.7697 41.9853C10.8999 42.3887 10.9816 42.8062 11.0129 43.229C10.6142 43.1291 10.084 43.157 9.81689 42.9051C7.22755 40.4206 5.26397 37.3543 4.08804 33.959C-1.34181 18.6621 10.1079 2.3775 27.5935 2.3855Z" fill="white"/>
<path d="M41.1722 27.2485C40.8971 28.7082 40.7137 30.1919 40.3151 31.6156C39.9722 32.8354 39.0274 33.8152 37.7397 33.5432C36.6394 33.3153 35.6586 32.4834 34.654 31.8636C34.5153 31.6556 34.4956 31.3899 34.6022 31.1637C34.8184 30.966 35.1084 30.87 35.3995 30.8998C37.6001 31.2597 38.23 30.8398 38.5011 28.6202C39.0951 23.8212 38.0746 19.3901 35.1125 15.491C34.9227 15.3051 34.7651 15.0888 34.646 14.8511C34.5743 14.5831 34.5543 14.1512 34.7058 14.0233C34.9688 13.8832 35.284 13.8832 35.547 14.0233C35.9381 14.3006 36.2895 14.6302 36.5915 15.0031C39.6613 18.4783 40.8971 22.6375 41.1722 27.2485Z" fill="white"/>
<path d="M27.3624 43.7529C24.0072 43.6004 20.8405 42.1533 18.524 39.7137C18.209 39.3858 18.209 38.7539 18.0615 38.2621C18.52 38.398 19.0741 38.41 19.417 38.686C22.0123 40.7655 24.9186 41.6054 28.1877 41.0535C30.6714 40.6536 31.0581 40.0377 30.5159 37.5982C30.4601 37.3422 30.5159 36.8863 30.7073 36.7984C30.9868 36.6835 31.3055 36.7197 31.5524 36.8943C32.1823 37.9461 33.0076 38.9899 33.2348 40.1417C33.486 41.4054 32.4853 42.3612 31.3252 42.7731C30.0215 43.1662 28.6989 43.4932 27.3624 43.7529Z" fill="white"/>
<path d="M28.77 33.2112C28.9804 33.6649 29.1667 34.1295 29.3282 34.6029C29.3843 34.9399 29.3963 35.2827 29.364 35.6227C29.0371 35.5827 28.6185 35.6547 28.3993 35.4788C27.1156 34.435 26.1906 33.1672 26.4458 31.3796C26.6528 29.7301 27.8105 28.3584 29.3982 27.8815C30.9859 27.4046 32.7045 27.9122 33.7813 29.1761C34.0524 29.484 34.0922 29.9759 34.2397 30.4078C33.8239 30.476 33.3998 30.476 32.9839 30.4078C30.6677 29.564 28.7581 30.6398 28.77 33.2112Z" fill="white"/>
<path d="M169.26 27.1285C169.26 32.3594 169.22 37.5903 169.284 42.8212C169.284 43.961 169.682 45.0968 169.862 46.2365C169.884 46.5768 169.872 46.9184 169.826 47.2563C169.427 47.1843 168.957 47.2563 168.698 47.0284C167.278 45.8286 166.908 44.2289 166.908 42.4293C166.908 31.5382 166.908 20.6485 166.908 9.76008C166.896 9.33291 166.912 8.90541 166.956 8.48034C167.43 4.94507 170.679 2.8815 173.988 4.13724C174.785 4.43718 175.471 5.11704 176.125 5.71691C176.308 5.88488 176.209 6.37278 176.236 6.71671C175.905 6.74269 175.572 6.74269 175.24 6.71671C174.215 6.57274 173.151 6.11683 172.19 6.2808C170.304 6.59673 169.268 8.22839 169.26 10.4679C169.248 16.0188 169.26 21.5696 169.26 27.1285Z" fill="white"/>
<path d="M179.012 21.3377C179.733 20.8218 180.606 20.4298 181.152 19.766C184.924 15.2189 188.611 10.6039 192.355 6.03282C194.588 3.30139 198.036 2.96146 200.284 5.26098C200.627 5.61691 200.683 6.23678 200.894 6.73268C200.415 6.73817 199.937 6.67624 199.475 6.54872C197.482 5.6609 195.911 6.01683 194.408 7.84845C190.561 12.5395 186.742 17.2545 182.891 21.9415C181.527 23.5972 179.526 23.8971 178.15 22.6534C177.8 22.3374 177.66 21.7816 177.421 21.3377L178.693 20.7978L179.012 21.3377Z" fill="white"/>
<path d="M181.642 31.0437C182.03 31.3295 182.394 31.6465 182.731 31.9915C186.561 36.6385 190.375 41.3042 194.173 45.9886C194.428 46.3085 194.36 46.8964 194.444 47.3603C193.953 47.1564 193.299 47.0924 192.996 46.7324C189.807 42.9372 186.674 39.098 183.528 35.2668C182.731 34.323 181.933 33.3872 181.224 32.4034C181.066 32.0958 181.01 31.7454 181.064 31.4036C181.068 31.2837 181.387 31.1917 181.642 31.0437Z" fill="white"/>
<path d="M83.2156 20.8497C83.2156 16.9025 83.1758 12.9513 83.2156 9.00813C83.1664 6.8478 84.4936 4.89571 86.5166 4.15314C88.51 3.31731 90.3996 3.72523 91.9863 5.18093C92.3531 5.51686 92.4528 6.14473 92.676 6.64062C92.1657 6.59663 91.5996 6.68461 91.1531 6.49265C88.6216 5.40888 86.0661 6.71661 85.5718 9.43205C85.4845 10.0653 85.4512 10.7048 85.4721 11.3436C85.4721 18.6501 85.504 25.9566 85.4482 33.2671C85.4083 38.1741 82.3944 41.8413 77.7699 42.7011C74.6244 43.285 71.8736 42.3572 69.5852 40.1457C69.2344 39.8057 69.1507 39.1939 68.9434 38.706C69.4537 38.814 70.0556 38.778 70.4623 39.0459C75.645 42.4572 82.3984 39.5418 83.0841 33.4831C83.3233 31.3755 83.1678 29.2239 83.1758 27.0844C83.1838 24.9448 83.1758 22.9252 83.1758 20.8457L83.2156 20.8497Z" fill="white"/>
<path d="M58.9448 21.7295C58.9448 25.0408 58.9448 28.3481 58.9448 31.6554C58.8848 35.8559 60.2956 39.9445 62.9314 43.209C63.2344 43.6089 63.2863 44.1808 63.4537 44.6727C62.9195 44.4807 62.2338 44.4368 61.8829 44.0688C58.6059 40.6095 56.7521 36.4704 56.6763 31.6714C56.5567 24.149 56.6165 16.6225 56.6484 9.10008C56.6484 6.81256 57.7448 5.08092 59.8378 4.1651C61.8311 3.30128 63.7128 3.66921 65.2995 5.1569C65.6623 5.49683 65.766 6.1167 65.9932 6.6086C65.4789 6.57261 64.9048 6.66859 64.4583 6.47263C61.7594 5.29287 58.9846 7.1005 58.9408 10.1919C58.8929 14.0471 58.9448 17.8903 58.9448 21.7295Z" fill="white"/>
<path d="M119.841 27.7444C120.037 7.76854 138.838 -3.32116 154.462 5.34904C155.828 6.17229 157.105 7.13595 158.273 8.22444C158.64 8.54038 158.672 9.24023 158.859 9.76413C158.357 9.61216 157.743 9.58816 157.364 9.28023C153.709 6.26641 149.106 4.65467 144.375 4.73317C135.206 4.77716 128.429 9.04027 124.442 17.2386C120.423 25.5489 121.484 33.6032 126.918 41.0616C127.143 41.2872 127.341 41.5381 127.508 41.8095C127.696 42.3339 127.857 42.8679 127.99 43.4091C127.468 43.1572 126.794 43.0332 126.447 42.6413C122.074 37.9703 119.861 32.4114 119.841 27.7444Z" fill="white"/>
<path d="M143.777 43.573C140.413 43.501 137.498 42.1213 135.082 39.6698C134.791 39.3739 134.783 38.794 134.648 38.3421C135.098 38.4381 135.649 38.4061 135.991 38.6541C141.294 42.5612 146.859 42.0413 151.364 37.0904C153.042 35.2468 154.98 34.5149 157.344 35.2468C157.99 35.4797 158.574 35.8587 159.05 36.3545C159.325 36.6305 159.325 37.1864 159.449 37.6143C159.027 37.674 158.598 37.6672 158.177 37.5943C156.296 36.9424 154.745 37.3663 153.445 38.87C150.941 41.7894 147.824 43.525 143.777 43.573Z" fill="white"/>
<path d="M102.001 25.8646C102.001 20.2098 102.001 14.5589 102.001 8.9041C102.001 6.61258 103.237 5.0649 105.234 4.18908C107.075 3.3102 109.27 3.69873 110.7 5.15688C111.071 5.50081 111.182 6.12068 111.413 6.61258C110.903 6.58058 110.333 6.68856 109.89 6.4966C107.168 5.29685 104.361 7.04449 104.281 10.0959C104.213 12.7073 104.261 15.3228 104.261 17.9382C104.261 26.2045 104.237 34.4748 104.289 42.7331C104.289 43.8689 104.688 45.0006 104.871 46.1444C104.892 46.5265 104.873 46.9099 104.815 47.2881C104.441 47.1842 103.966 47.1882 103.703 46.9602C102.471 45.8764 101.981 44.4647 101.985 42.8251C102.001 37.1742 102.001 31.5274 102.001 25.8646Z" fill="white"/>
<path d="M209.414 26.0407C209.414 20.3819 209.414 14.7191 209.414 9.06024C209.414 6.80071 210.554 5.19304 212.548 4.26124C214.389 3.38942 216.179 3.64537 217.814 4.85311C218.14 5.05106 218.414 5.32553 218.611 5.65295C218.721 6.01983 218.77 6.40197 218.759 6.78471C218.419 6.82041 218.076 6.80287 217.742 6.73273C214.154 5.32102 211.762 6.93668 211.762 10.8159C211.762 21.6056 211.762 32.3941 211.762 43.1812C211.762 44.161 212.161 45.1408 212.312 46.1286C212.344 46.5131 212.344 46.8997 212.312 47.2843C211.894 47.1643 211.372 47.1643 211.081 46.8844C209.797 45.7446 209.41 44.221 209.414 42.5493C209.422 37.0424 209.414 31.5276 209.414 26.0407Z" fill="white"/>
</svg>
