<svg width="346" height="345" viewBox="0 0 346 345" fill="none" xmlns="http://www.w3.org/2000/svg">
<rect width="345" height="300" rx="10" fill="#81CFFA"/>
<path opacity="0.123326" fill-rule="evenodd" clip-rule="evenodd" d="M118.363 311.966C108.52 306.553 88.8351 295.728 88.8351 295.728C86.9001 294.664 86.9001 292.939 88.8351 291.875L251.144 203.01C253.078 201.946 256.215 201.946 258.15 203.01L321.216 254.32L321.419 269.123C321.419 269.123 261.453 301.955 242.8 312.167" fill="white"/>
<path opacity="0.493001" fill-rule="evenodd" clip-rule="evenodd" d="M106.848 344.493C107.264 344.493 108.058 344.363 108.709 343.494L123.316 323.985C124.093 322.948 123.772 322.087 123.598 321.765C123.252 321.125 122.562 320.744 121.752 320.744C121.539 320.744 121.314 320.77 121.082 320.822L84.6278 329.078C82.8738 329.475 82.8401 330.651 82.871 331.002C82.9025 331.353 83.1452 332.506 84.9433 332.616L102.953 333.716L104.762 342.675C105.034 344.017 106.055 344.493 106.847 344.493H106.848Z" fill="#E0E0E0"/>
<path fill-rule="evenodd" clip-rule="evenodd" d="M173.785 149.647C173.795 149.383 173.98 149.12 174.35 148.918C175.109 148.503 176.34 148.503 177.099 148.918C177.469 149.12 177.655 149.383 177.665 149.647H177.668V233.806H173.781V149.647H173.785Z" fill="#CCE4FF"/>
<path fill-rule="evenodd" clip-rule="evenodd" d="M173.785 149.647C173.785 149.073 174.654 148.607 175.727 148.607C176.799 148.607 177.668 149.073 177.668 149.647C177.668 150.222 176.799 150.688 175.727 150.688C174.654 150.688 173.785 150.222 173.785 149.647Z" fill="#ACC3DB"/>
<path fill-rule="evenodd" clip-rule="evenodd" d="M164.573 168.108L189.919 154.263L193.73 156.344L189.919 162.585L164.573 176.431V168.108Z" fill="#27DEBF"/>
<path fill-rule="evenodd" clip-rule="evenodd" d="M164.573 168.108L189.919 154.263L193.73 156.344L189.919 162.585L164.573 176.431V168.108Z" fill="#2149FE"/>
<path fill-rule="evenodd" clip-rule="evenodd" d="M189.918 154.263L188.012 153.223L162.63 167.089L164.573 168.109L189.918 154.263Z" fill="#27DEBF"/>
<path fill-rule="evenodd" clip-rule="evenodd" d="M189.918 154.263L188.012 153.223L162.63 167.089L164.573 168.109L189.918 154.263Z" fill="#1A3BD1"/>
<path fill-rule="evenodd" clip-rule="evenodd" d="M162.63 175.411L164.573 176.431V168.108L162.63 167.088V175.411Z" fill="#27DEBF"/>
<path fill-rule="evenodd" clip-rule="evenodd" d="M162.63 175.411L164.573 176.431V168.108L162.63 167.088V175.411Z" fill="#132989"/>
<path fill-rule="evenodd" clip-rule="evenodd" d="M92.9147 277.516C91.6979 278.413 91.83 279.686 93.306 280.492L174.073 324.887C175.695 325.772 178.327 325.773 179.948 324.882L334.306 240.05C335.8 239.228 335.922 237.935 334.651 237.042C336.111 238.026 337.243 240.01 337.244 241.669L337.249 245.364C337.255 247.147 335.939 249.317 334.311 250.212L179.96 335.041C178.333 335.935 175.701 335.934 174.081 335.039L93.3105 290.654C91.6887 289.768 90.3718 287.597 90.3736 285.811L90.3644 282.109C90.3684 280.473 91.4725 278.511 92.9147 277.516Z" fill="#455A64"/>
<path fill-rule="evenodd" clip-rule="evenodd" d="M93.3059 277.267L247.664 192.434C249.285 191.544 251.917 191.544 253.539 192.43L334.307 236.824C335.929 237.71 335.927 239.159 334.306 240.049L179.948 324.882C178.327 325.773 175.695 325.772 174.074 324.886L93.3059 280.492C91.6835 279.606 91.6852 278.157 93.3059 277.267Z" fill="#37474F"/>
<path fill-rule="evenodd" clip-rule="evenodd" d="M334.652 237.042C336.111 238.026 337.243 240.01 337.244 241.669L337.25 245.364C337.248 247.151 335.939 249.317 334.312 250.212L179.961 335.041C179.147 335.488 178.081 335.709 177.015 335.712L177.01 325.549C178.076 325.548 179.141 325.326 179.948 324.882L334.306 240.05C335.8 239.228 335.922 237.935 334.652 237.042Z" fill="#263238"/>
<path fill-rule="evenodd" clip-rule="evenodd" d="M294.822 222.383C293.998 221.93 293.998 221.195 294.822 220.742C295.647 220.289 296.984 220.289 297.809 220.742C298.633 221.195 298.633 221.93 297.809 222.383C296.984 222.836 295.647 222.836 294.822 222.383Z" fill="black"/>
<path fill-rule="evenodd" clip-rule="evenodd" d="M290.78 219.902L279.252 213.567C278.564 213.189 278.53 212.595 279.175 212.24C279.82 211.886 280.901 211.905 281.589 212.282L293.116 218.619C293.804 218.996 293.839 219.59 293.193 219.945C292.548 220.299 291.468 220.28 290.78 219.902Z" fill="white"/>
<path fill-rule="evenodd" clip-rule="evenodd" d="M242.435 199.238C243.822 198.475 245.268 198.916 246.659 199.684L322.149 241.147C323.536 241.908 323.541 243.149 322.148 243.916L185.145 319.229C183.751 319.995 181.497 319.989 180.104 319.231L104.621 277.764C103.224 277 103.229 275.762 104.615 275L242.435 199.238Z" fill="#27DEBF"/>
<path fill-rule="evenodd" clip-rule="evenodd" d="M242.435 199.238C243.822 198.475 245.268 198.916 246.659 199.684L322.149 241.147C323.536 241.908 323.541 243.149 322.148 243.916L185.145 319.229C183.751 319.995 181.497 319.989 180.104 319.231L104.621 277.764C103.224 277 103.229 275.762 104.615 275L242.435 199.238Z" fill="#FFE2B8"/>
<path fill-rule="evenodd" clip-rule="evenodd" d="M182.625 318.008L154.188 302.381L158.964 301.068C174.081 296.914 190.325 298.798 203.951 306.288L182.625 318.008Z" fill="#8CC27B"/>
<path fill-rule="evenodd" clip-rule="evenodd" d="M149.28 299.683L106.793 276.333L135.23 260.705L152.011 298.933C151.132 299.173 150.22 299.425 149.28 299.683Z" fill="#8CC27B"/>
<path fill-rule="evenodd" clip-rule="evenodd" d="M139.969 258.1L156.557 297.683C166.361 294.721 175.163 294.27 185.232 295.922L169.219 258.378L145.943 254.817L139.969 258.1Z" fill="#8CC27B"/>
<path fill-rule="evenodd" clip-rule="evenodd" d="M192.574 297.442L186.763 283.817L231.918 278.724L239.498 286.753L208.036 304.043C203.197 301.223 198.05 298.978 192.574 297.442Z" fill="#8CC27B"/>
<path fill-rule="evenodd" clip-rule="evenodd" d="M163.574 245.143L149.449 252.891L168.101 255.758L163.574 245.143Z" fill="#8CC27B"/>
<path fill-rule="evenodd" clip-rule="evenodd" d="M257.271 247.03C255.307 245.952 252.124 245.952 250.162 247.03C248.198 248.109 248.198 249.858 250.161 250.937C252.124 252.016 255.307 252.016 257.271 250.937C259.234 249.858 259.234 248.109 257.271 247.03Z" fill="#8CC27B"/>
<path fill-rule="evenodd" clip-rule="evenodd" d="M176.223 258.646L246.069 250.767C246.807 252.364 248.067 252.727 251 253.337L231.513 274.55L185.046 279.791L176.223 258.646Z" fill="#8CC27B"/>
<path fill-rule="evenodd" clip-rule="evenodd" d="M209.413 238.586L214.543 250.427L246.29 246.845C246.892 246.19 247.819 245.64 249.015 245.174L244.661 234.61L209.413 238.586Z" fill="#8CC27B"/>
<path fill-rule="evenodd" clip-rule="evenodd" d="M168.993 242.153L174.448 254.953L209.229 251.027L203.762 238.227L168.993 242.153Z" fill="#8CC27B"/>
<path fill-rule="evenodd" clip-rule="evenodd" d="M175.516 238.565L233.13 206.901L243.104 230.934L175.516 238.565Z" fill="#8CC27B"/>
<path fill-rule="evenodd" clip-rule="evenodd" d="M257.932 252.961L236.658 276.119L244.237 284.148L285.363 261.545L259.981 252.052C259.324 252.431 258.643 252.745 257.932 252.961Z" fill="#8CC27B"/>
<path fill-rule="evenodd" clip-rule="evenodd" d="M247.787 230.404L237.128 204.704L244.237 200.797L289.532 225.691L247.787 230.404Z" fill="#8CC27B"/>
<path fill-rule="evenodd" clip-rule="evenodd" d="M295.596 228.964L320.067 242.472L289.261 259.402L262.083 249.207C262.144 247.969 261.524 246.773 259.523 245.664C257.89 244.767 255.847 244.427 253.588 244.379L249.344 234.081L295.596 228.964Z" fill="#8CC27B"/>
<path fill-rule="evenodd" clip-rule="evenodd" d="M240.733 229.525V221.463L227.649 222.937V230.999L240.733 229.525Z" fill="#27DEBF"/>
<path fill-rule="evenodd" clip-rule="evenodd" d="M227.649 222.937L224.952 215.758V224.651L227.649 230.999V222.937Z" fill="#27DEBF"/>
<path fill-rule="evenodd" clip-rule="evenodd" d="M224.952 215.758L237.755 214.289L240.733 221.464L227.649 222.937L224.952 215.758Z" fill="#27DEBF"/>
<path fill-rule="evenodd" clip-rule="evenodd" d="M240.733 229.525V221.463L227.649 222.937V230.999L240.733 229.525Z" fill="white"/>
<path fill-rule="evenodd" clip-rule="evenodd" d="M227.649 222.937L224.952 215.758V224.651L227.649 230.999V222.937Z" fill="white"/>
<path fill-rule="evenodd" clip-rule="evenodd" d="M224.952 215.758L237.755 214.289L240.733 221.464L227.649 222.937L224.952 215.758Z" fill="white"/>
<path fill-rule="evenodd" clip-rule="evenodd" d="M232.154 246.749V243.135L219.07 244.608V248.223L232.154 246.749Z" fill="#27DEBF"/>
<path fill-rule="evenodd" clip-rule="evenodd" d="M219.07 244.608L216.736 238.38V242.825L219.07 248.223V244.608Z" fill="#27DEBF"/>
<path fill-rule="evenodd" clip-rule="evenodd" d="M216.736 238.38L229.539 236.911L232.155 243.135L219.07 244.608L216.736 238.38Z" fill="#27DEBF"/>
<path fill-rule="evenodd" clip-rule="evenodd" d="M232.154 246.749V243.135L219.07 244.608V248.223L232.154 246.749Z" fill="white"/>
<path fill-rule="evenodd" clip-rule="evenodd" d="M219.07 244.608L216.736 238.38V242.825L219.07 248.223V244.608Z" fill="white"/>
<path fill-rule="evenodd" clip-rule="evenodd" d="M216.736 238.38L229.539 236.911L232.155 243.135L219.07 244.608L216.736 238.38Z" fill="white"/>
<path fill-rule="evenodd" clip-rule="evenodd" d="M206.957 294.293V286.231L193.872 287.705V295.767L206.957 294.293Z" fill="#27DEBF"/>
<path fill-rule="evenodd" clip-rule="evenodd" d="M193.872 287.705L191.175 280.526V289.418L193.872 295.767V287.705Z" fill="#27DEBF"/>
<path fill-rule="evenodd" clip-rule="evenodd" d="M191.176 280.526L203.978 279.057L206.957 286.232L193.872 287.705L191.176 280.526Z" fill="#27DEBF"/>
<path fill-rule="evenodd" clip-rule="evenodd" d="M206.957 294.293V286.231L193.872 287.705V295.767L206.957 294.293Z" fill="white"/>
<path fill-rule="evenodd" clip-rule="evenodd" d="M193.872 287.705L191.175 280.526V289.418L193.872 295.767V287.705Z" fill="white"/>
<path fill-rule="evenodd" clip-rule="evenodd" d="M191.176 280.526L203.978 279.057L206.957 286.232L193.872 287.705L191.176 280.526Z" fill="white"/>
<path fill-rule="evenodd" clip-rule="evenodd" d="M207.181 233.156V230.186L200.558 230.932V233.902L207.181 233.156Z" fill="#27DEBF"/>
<path fill-rule="evenodd" clip-rule="evenodd" d="M200.558 230.931L199.193 227.298V230.689L200.558 233.902V230.931Z" fill="#27DEBF"/>
<path fill-rule="evenodd" clip-rule="evenodd" d="M199.193 227.298L205.673 226.554L207.181 230.185L200.558 230.931L199.193 227.298Z" fill="#27DEBF"/>
<path fill-rule="evenodd" clip-rule="evenodd" d="M207.181 233.156V230.186L200.558 230.932V233.902L207.181 233.156Z" fill="white"/>
<path fill-rule="evenodd" clip-rule="evenodd" d="M200.558 230.931L199.193 227.298V230.689L200.558 233.902V230.931Z" fill="white"/>
<path fill-rule="evenodd" clip-rule="evenodd" d="M199.193 227.298L205.673 226.554L207.181 230.185L200.558 230.931L199.193 227.298Z" fill="white"/>
<path fill-rule="evenodd" clip-rule="evenodd" d="M255.451 219.147V214.825L245.818 215.91V220.232L255.451 219.147Z" fill="#27DEBF"/>
<path fill-rule="evenodd" clip-rule="evenodd" d="M245.817 215.911L243.832 210.625V215.558L245.817 220.232V215.911Z" fill="#27DEBF"/>
<path fill-rule="evenodd" clip-rule="evenodd" d="M243.831 210.625L253.259 209.543L255.451 214.825L245.817 215.91L243.831 210.625Z" fill="#27DEBF"/>
<path fill-rule="evenodd" clip-rule="evenodd" d="M255.451 219.147V214.825L245.818 215.91V220.232L255.451 219.147Z" fill="white"/>
<path fill-rule="evenodd" clip-rule="evenodd" d="M245.817 215.911L243.832 210.625V215.558L245.817 220.232V215.911Z" fill="white"/>
<path fill-rule="evenodd" clip-rule="evenodd" d="M243.831 210.625L253.259 209.543L255.451 214.825L245.817 215.91L243.831 210.625Z" fill="white"/>
<path fill-rule="evenodd" clip-rule="evenodd" d="M206.027 249.983V246.13L197.437 247.098V250.95L206.027 249.983Z" fill="#27DEBF"/>
<path fill-rule="evenodd" clip-rule="evenodd" d="M197.438 247.097L195.667 242.385V246.783L197.438 250.951V247.097Z" fill="#27DEBF"/>
<path fill-rule="evenodd" clip-rule="evenodd" d="M195.667 242.384L204.073 241.42L206.027 246.13L197.438 247.097L195.667 242.384Z" fill="#27DEBF"/>
<path fill-rule="evenodd" clip-rule="evenodd" d="M206.027 249.983V246.13L197.437 247.098V250.95L206.027 249.983Z" fill="white"/>
<path fill-rule="evenodd" clip-rule="evenodd" d="M197.438 247.097L195.667 242.385V246.783L197.438 250.951V247.097Z" fill="white"/>
<path fill-rule="evenodd" clip-rule="evenodd" d="M195.667 242.384L204.073 241.42L206.027 246.13L197.438 247.097L195.667 242.384Z" fill="white"/>
<path fill-rule="evenodd" clip-rule="evenodd" d="M245 245.384V241.42L236.162 242.415V246.379L245 245.384Z" fill="#27DEBF"/>
<path fill-rule="evenodd" clip-rule="evenodd" d="M236.162 242.415L234.34 237.566V242.092L236.162 246.379V242.415Z" fill="#27DEBF"/>
<path fill-rule="evenodd" clip-rule="evenodd" d="M234.34 237.566L242.988 236.574L245 241.42L236.162 242.415L234.34 237.566Z" fill="#27DEBF"/>
<path fill-rule="evenodd" clip-rule="evenodd" d="M245 245.384V241.42L236.162 242.415V246.379L245 245.384Z" fill="white"/>
<path fill-rule="evenodd" clip-rule="evenodd" d="M236.162 242.415L234.34 237.566V242.092L236.162 246.379V242.415Z" fill="white"/>
<path fill-rule="evenodd" clip-rule="evenodd" d="M234.34 237.566L242.988 236.574L245 241.42L236.162 242.415L234.34 237.566Z" fill="white"/>
<path fill-rule="evenodd" clip-rule="evenodd" d="M194.914 251.201V247.348L186.324 248.316V252.169L194.914 251.201Z" fill="#27DEBF"/>
<path fill-rule="evenodd" clip-rule="evenodd" d="M186.324 248.316L184.554 243.603V248.001L186.324 252.169V248.316Z" fill="#27DEBF"/>
<path fill-rule="evenodd" clip-rule="evenodd" d="M184.553 243.603L192.959 242.639L194.914 247.348L186.324 248.316L184.553 243.603Z" fill="#27DEBF"/>
<path fill-rule="evenodd" clip-rule="evenodd" d="M194.914 251.201V247.348L186.324 248.316V252.169L194.914 251.201Z" fill="white"/>
<path fill-rule="evenodd" clip-rule="evenodd" d="M186.324 248.316L184.554 243.603V248.001L186.324 252.169V248.316Z" fill="white"/>
<path fill-rule="evenodd" clip-rule="evenodd" d="M184.553 243.603L192.959 242.639L194.914 247.348L186.324 248.316L184.553 243.603Z" fill="white"/>
<path fill-rule="evenodd" clip-rule="evenodd" d="M183.8 252.42V248.567L175.21 249.535V253.387L183.8 252.42Z" fill="#27DEBF"/>
<path fill-rule="evenodd" clip-rule="evenodd" d="M175.21 249.534L173.44 244.822V249.22L175.21 253.387V249.534Z" fill="#27DEBF"/>
<path fill-rule="evenodd" clip-rule="evenodd" d="M173.44 244.822L181.846 243.857L183.8 248.567L175.211 249.534L173.44 244.822Z" fill="#27DEBF"/>
<path fill-rule="evenodd" clip-rule="evenodd" d="M183.8 252.42V248.567L175.21 249.535V253.387L183.8 252.42Z" fill="white"/>
<path fill-rule="evenodd" clip-rule="evenodd" d="M175.21 249.534L173.44 244.822V249.22L175.21 253.387V249.534Z" fill="white"/>
<path fill-rule="evenodd" clip-rule="evenodd" d="M173.44 244.822L181.846 243.857L183.8 248.567L175.211 249.534L173.44 244.822Z" fill="white"/>
<path fill-rule="evenodd" clip-rule="evenodd" d="M286.597 239.564V235.711L278.007 236.678V240.531L286.597 239.564Z" fill="#27DEBF"/>
<path fill-rule="evenodd" clip-rule="evenodd" d="M278.007 236.678L276.237 231.966V236.364L278.007 240.531V236.678Z" fill="#27DEBF"/>
<path fill-rule="evenodd" clip-rule="evenodd" d="M276.237 231.965L284.642 231L286.597 235.711L278.008 236.678L276.237 231.965Z" fill="#27DEBF"/>
<path fill-rule="evenodd" clip-rule="evenodd" d="M286.597 239.564V235.711L278.007 236.678V240.531L286.597 239.564Z" fill="white"/>
<path fill-rule="evenodd" clip-rule="evenodd" d="M278.007 236.678L276.237 231.966V236.364L278.007 240.531V236.678Z" fill="white"/>
<path fill-rule="evenodd" clip-rule="evenodd" d="M276.237 231.965L284.642 231L286.597 235.711L278.008 236.678L276.237 231.965Z" fill="white"/>
<path fill-rule="evenodd" clip-rule="evenodd" d="M275.484 240.782V236.929L266.894 237.897V241.75L275.484 240.782Z" fill="#27DEBF"/>
<path fill-rule="evenodd" clip-rule="evenodd" d="M266.895 237.897L265.124 233.184V237.582L266.895 241.75V237.897Z" fill="#27DEBF"/>
<path fill-rule="evenodd" clip-rule="evenodd" d="M265.124 233.184L273.529 232.22L275.484 236.93L266.894 237.897L265.124 233.184Z" fill="#27DEBF"/>
<path fill-rule="evenodd" clip-rule="evenodd" d="M275.484 240.782V236.929L266.894 237.897V241.75L275.484 240.782Z" fill="white"/>
<path fill-rule="evenodd" clip-rule="evenodd" d="M266.895 237.897L265.124 233.184V237.582L266.895 241.75V237.897Z" fill="white"/>
<path fill-rule="evenodd" clip-rule="evenodd" d="M265.124 233.184L273.529 232.22L275.484 236.93L266.894 237.897L265.124 233.184Z" fill="white"/>
<path fill-rule="evenodd" clip-rule="evenodd" d="M264.371 242.001V238.148L255.78 239.116V242.968L264.371 242.001Z" fill="#27DEBF"/>
<path fill-rule="evenodd" clip-rule="evenodd" d="M255.781 239.115L254.01 234.403V238.801L255.781 242.969V239.115Z" fill="#27DEBF"/>
<path fill-rule="evenodd" clip-rule="evenodd" d="M254.01 234.402L262.416 233.438L264.371 238.148L255.781 239.115L254.01 234.402Z" fill="#27DEBF"/>
<path fill-rule="evenodd" clip-rule="evenodd" d="M264.371 242.001V238.148L255.78 239.116V242.968L264.371 242.001Z" fill="white"/>
<path fill-rule="evenodd" clip-rule="evenodd" d="M255.781 239.115L254.01 234.403V238.801L255.781 242.969V239.115Z" fill="white"/>
<path fill-rule="evenodd" clip-rule="evenodd" d="M254.01 234.402L262.416 233.438L264.371 238.148L255.781 239.115L254.01 234.402Z" fill="white"/>
<path fill-rule="evenodd" clip-rule="evenodd" d="M153.459 227.198V224.903L146.176 225.72V228.014L153.459 227.198Z" fill="#27DEBF"/>
<path fill-rule="evenodd" clip-rule="evenodd" d="M153.459 227.198V224.903L146.176 225.72V228.014L153.459 227.198Z" fill="white"/>
<path fill-rule="evenodd" clip-rule="evenodd" d="M146.175 225.719L145.11 222.751V225.536L146.175 228.014V225.719Z" fill="#27DEBF"/>
<path fill-rule="evenodd" clip-rule="evenodd" d="M146.175 225.719L145.11 222.751V225.536L146.175 228.014V225.719Z" fill="white"/>
<path fill-rule="evenodd" clip-rule="evenodd" d="M145.109 222.751L152.227 221.937L153.459 224.903L146.175 225.719L145.109 222.751Z" fill="#27DEBF"/>
<path fill-rule="evenodd" clip-rule="evenodd" d="M145.109 222.751L152.227 221.937L153.459 224.903L146.175 225.719L145.109 222.751Z" fill="white"/>
<path fill-rule="evenodd" clip-rule="evenodd" d="M205.092 275.701V271.847L196.5 272.815V276.669L205.092 275.701Z" fill="#27DEBF"/>
<path fill-rule="evenodd" clip-rule="evenodd" d="M196.5 272.815L194.729 268.101V272.5L196.5 276.669V272.815Z" fill="#27DEBF"/>
<path fill-rule="evenodd" clip-rule="evenodd" d="M194.729 268.101L203.136 267.136L205.092 271.847L196.501 272.815L194.729 268.101Z" fill="#27DEBF"/>
<path fill-rule="evenodd" clip-rule="evenodd" d="M205.092 275.701V271.847L196.5 272.815V276.669L205.092 275.701Z" fill="white"/>
<path fill-rule="evenodd" clip-rule="evenodd" d="M196.5 272.815L194.729 268.101V272.5L196.5 276.669V272.815Z" fill="white"/>
<path fill-rule="evenodd" clip-rule="evenodd" d="M194.729 268.101L203.136 267.136L205.092 271.847L196.501 272.815L194.729 268.101Z" fill="white"/>
<path fill-rule="evenodd" clip-rule="evenodd" d="M194.37 276.917V273.063L185.778 274.031V277.884L194.37 276.917Z" fill="#27DEBF"/>
<path fill-rule="evenodd" clip-rule="evenodd" d="M185.778 274.031L184.007 269.317V273.716L185.778 277.884V274.031Z" fill="#27DEBF"/>
<path fill-rule="evenodd" clip-rule="evenodd" d="M184.007 269.317L192.414 268.352L194.37 273.062L185.778 274.03L184.007 269.317Z" fill="#27DEBF"/>
<path fill-rule="evenodd" clip-rule="evenodd" d="M194.37 276.917V273.063L185.778 274.031V277.884L194.37 276.917Z" fill="white"/>
<path fill-rule="evenodd" clip-rule="evenodd" d="M185.778 274.031L184.007 269.317V273.716L185.778 277.884V274.031Z" fill="white"/>
<path fill-rule="evenodd" clip-rule="evenodd" d="M184.007 269.317L192.414 268.352L194.37 273.062L185.778 274.03L184.007 269.317Z" fill="white"/>
<path fill-rule="evenodd" clip-rule="evenodd" d="M232.23 288.614V284.76L223.639 285.727V289.581L232.23 288.614Z" fill="#27DEBF"/>
<path fill-rule="evenodd" clip-rule="evenodd" d="M223.639 285.727L221.868 281.014V285.413L223.639 289.581V285.727Z" fill="#27DEBF"/>
<path fill-rule="evenodd" clip-rule="evenodd" d="M221.868 281.014L230.275 280.049L232.23 284.76L223.639 285.727L221.868 281.014Z" fill="#27DEBF"/>
<path fill-rule="evenodd" clip-rule="evenodd" d="M232.23 288.614V284.76L223.639 285.727V289.581L232.23 288.614Z" fill="white"/>
<path fill-rule="evenodd" clip-rule="evenodd" d="M223.639 285.727L221.868 281.014V285.413L223.639 289.581V285.727Z" fill="white"/>
<path fill-rule="evenodd" clip-rule="evenodd" d="M221.868 281.014L230.275 280.049L232.23 284.76L223.639 285.727L221.868 281.014Z" fill="white"/>
<path fill-rule="evenodd" clip-rule="evenodd" d="M221.508 289.829V285.976L212.916 286.943V290.797L221.508 289.829Z" fill="#27DEBF"/>
<path fill-rule="evenodd" clip-rule="evenodd" d="M212.917 286.944L211.146 282.23V286.629L212.917 290.797V286.944Z" fill="#27DEBF"/>
<path fill-rule="evenodd" clip-rule="evenodd" d="M211.145 282.23L219.552 281.265L221.508 285.976L212.916 286.943L211.145 282.23Z" fill="#27DEBF"/>
<path fill-rule="evenodd" clip-rule="evenodd" d="M221.508 289.829V285.976L212.916 286.943V290.797L221.508 289.829Z" fill="white"/>
<path fill-rule="evenodd" clip-rule="evenodd" d="M212.917 286.944L211.146 282.23V286.629L212.917 290.797V286.944Z" fill="white"/>
<path fill-rule="evenodd" clip-rule="evenodd" d="M211.145 282.23L219.552 281.265L221.508 285.976L212.916 286.943L211.145 282.23Z" fill="white"/>
<path fill-rule="evenodd" clip-rule="evenodd" d="M156.32 270.319V266.465L147.728 267.433V271.286L156.32 270.319Z" fill="#27DEBF"/>
<path fill-rule="evenodd" clip-rule="evenodd" d="M147.728 267.432L145.957 262.719V267.118L147.728 271.286V267.432Z" fill="#27DEBF"/>
<path fill-rule="evenodd" clip-rule="evenodd" d="M145.957 262.719L154.364 261.754L156.32 266.465L147.728 267.433L145.957 262.719Z" fill="#27DEBF"/>
<path fill-rule="evenodd" clip-rule="evenodd" d="M156.32 270.319V266.465L147.728 267.433V271.286L156.32 270.319Z" fill="white"/>
<path fill-rule="evenodd" clip-rule="evenodd" d="M147.728 267.432L145.957 262.719V267.118L147.728 271.286V267.432Z" fill="white"/>
<path fill-rule="evenodd" clip-rule="evenodd" d="M145.957 262.719L154.364 261.754L156.32 266.465L147.728 267.433L145.957 262.719Z" fill="white"/>
<path fill-rule="evenodd" clip-rule="evenodd" d="M159.689 278.26V274.406L151.098 275.373V279.227L159.689 278.26Z" fill="#27DEBF"/>
<path fill-rule="evenodd" clip-rule="evenodd" d="M151.098 275.373L149.327 270.66V275.059L151.098 279.227V275.373Z" fill="#27DEBF"/>
<path fill-rule="evenodd" clip-rule="evenodd" d="M149.327 270.659L157.734 269.694L159.689 274.405L151.098 275.373L149.327 270.659Z" fill="#27DEBF"/>
<path fill-rule="evenodd" clip-rule="evenodd" d="M159.689 278.26V274.406L151.098 275.373V279.227L159.689 278.26Z" fill="white"/>
<path fill-rule="evenodd" clip-rule="evenodd" d="M151.098 275.373L149.327 270.66V275.059L151.098 279.227V275.373Z" fill="white"/>
<path fill-rule="evenodd" clip-rule="evenodd" d="M149.327 270.659L157.734 269.694L159.689 274.405L151.098 275.373L149.327 270.659Z" fill="white"/>
<path fill-rule="evenodd" clip-rule="evenodd" d="M163.06 286.2V282.346L154.468 283.314V287.168L163.06 286.2Z" fill="#27DEBF"/>
<path fill-rule="evenodd" clip-rule="evenodd" d="M154.468 283.314L152.697 278.6V282.999L154.468 287.168V283.314Z" fill="#27DEBF"/>
<path fill-rule="evenodd" clip-rule="evenodd" d="M152.697 278.6L161.104 277.635L163.06 282.346L154.468 283.314L152.697 278.6Z" fill="#27DEBF"/>
<path fill-rule="evenodd" clip-rule="evenodd" d="M163.06 286.2V282.346L154.468 283.314V287.168L163.06 286.2Z" fill="white"/>
<path fill-rule="evenodd" clip-rule="evenodd" d="M154.468 283.314L152.697 278.6V282.999L154.468 287.168V283.314Z" fill="white"/>
<path fill-rule="evenodd" clip-rule="evenodd" d="M152.697 278.6L161.104 277.635L163.06 282.346L154.468 283.314L152.697 278.6Z" fill="white"/>
<path fill-rule="evenodd" clip-rule="evenodd" d="M166.43 294.14V290.287L157.838 291.254V295.108L166.43 294.14Z" fill="#27DEBF"/>
<path fill-rule="evenodd" clip-rule="evenodd" d="M157.838 291.255L156.067 286.541V290.94L157.838 295.108V291.255Z" fill="#27DEBF"/>
<path fill-rule="evenodd" clip-rule="evenodd" d="M156.067 286.541L164.474 285.576L166.43 290.287L157.838 291.254L156.067 286.541Z" fill="#27DEBF"/>
<path fill-rule="evenodd" clip-rule="evenodd" d="M166.43 294.14V290.287L157.838 291.254V295.108L166.43 294.14Z" fill="white"/>
<path fill-rule="evenodd" clip-rule="evenodd" d="M157.838 291.255L156.067 286.541V290.94L157.838 295.108V291.255Z" fill="white"/>
<path fill-rule="evenodd" clip-rule="evenodd" d="M156.067 286.541L164.474 285.576L166.43 290.287L157.838 291.254L156.067 286.541Z" fill="white"/>
<path fill-rule="evenodd" clip-rule="evenodd" d="M170.902 268.704V264.85L162.31 265.818V269.672L170.902 268.704Z" fill="#27DEBF"/>
<path fill-rule="evenodd" clip-rule="evenodd" d="M162.311 265.818L160.539 261.104V265.503L162.311 269.671V265.818Z" fill="#27DEBF"/>
<path fill-rule="evenodd" clip-rule="evenodd" d="M160.54 261.104L168.947 260.139L170.902 264.85L162.311 265.818L160.54 261.104Z" fill="#27DEBF"/>
<path fill-rule="evenodd" clip-rule="evenodd" d="M170.902 268.704V264.85L162.31 265.818V269.672L170.902 268.704Z" fill="white"/>
<path fill-rule="evenodd" clip-rule="evenodd" d="M162.311 265.818L160.539 261.104V265.503L162.311 269.671V265.818Z" fill="white"/>
<path fill-rule="evenodd" clip-rule="evenodd" d="M160.54 261.104L168.947 260.139L170.902 264.85L162.311 265.818L160.54 261.104Z" fill="white"/>
<path fill-rule="evenodd" clip-rule="evenodd" d="M174.272 276.645V272.791L165.68 273.759V277.612L174.272 276.645Z" fill="#27DEBF"/>
<path fill-rule="evenodd" clip-rule="evenodd" d="M165.68 273.759L163.909 269.045V273.444L165.68 277.612V273.759Z" fill="#27DEBF"/>
<path fill-rule="evenodd" clip-rule="evenodd" d="M163.909 269.045L172.316 268.08L174.271 272.791L165.68 273.758L163.909 269.045Z" fill="#27DEBF"/>
<path fill-rule="evenodd" clip-rule="evenodd" d="M174.272 276.645V272.791L165.68 273.759V277.612L174.272 276.645Z" fill="white"/>
<path fill-rule="evenodd" clip-rule="evenodd" d="M165.68 273.759L163.909 269.045V273.444L165.68 277.612V273.759Z" fill="white"/>
<path fill-rule="evenodd" clip-rule="evenodd" d="M163.909 269.045L172.316 268.08L174.271 272.791L165.68 273.758L163.909 269.045Z" fill="white"/>
<path fill-rule="evenodd" clip-rule="evenodd" d="M177.643 284.585V280.731L169.051 281.699V285.553L177.643 284.585Z" fill="#27DEBF"/>
<path fill-rule="evenodd" clip-rule="evenodd" d="M169.051 281.699L167.28 276.985V281.384L169.051 285.553V281.699Z" fill="#27DEBF"/>
<path fill-rule="evenodd" clip-rule="evenodd" d="M167.28 276.985L175.687 276.021L177.642 280.731L169.051 281.699L167.28 276.985Z" fill="#27DEBF"/>
<path fill-rule="evenodd" clip-rule="evenodd" d="M177.643 284.585V280.731L169.051 281.699V285.553L177.643 284.585Z" fill="white"/>
<path fill-rule="evenodd" clip-rule="evenodd" d="M169.051 281.699L167.28 276.985V281.384L169.051 285.553V281.699Z" fill="white"/>
<path fill-rule="evenodd" clip-rule="evenodd" d="M167.28 276.985L175.687 276.021L177.642 280.731L169.051 281.699L167.28 276.985Z" fill="white"/>
<path fill-rule="evenodd" clip-rule="evenodd" d="M181.013 292.526V288.672L172.421 289.64V293.493L181.013 292.526Z" fill="#27DEBF"/>
<path fill-rule="evenodd" clip-rule="evenodd" d="M172.421 289.64L170.65 284.926V289.325L172.421 293.494V289.64Z" fill="#27DEBF"/>
<path fill-rule="evenodd" clip-rule="evenodd" d="M170.65 284.926L179.056 283.961L181.012 288.672L172.42 289.64L170.65 284.926Z" fill="#27DEBF"/>
<path fill-rule="evenodd" clip-rule="evenodd" d="M181.013 292.526V288.672L172.421 289.64V293.493L181.013 292.526Z" fill="white"/>
<path fill-rule="evenodd" clip-rule="evenodd" d="M172.421 289.64L170.65 284.926V289.325L172.421 293.494V289.64Z" fill="white"/>
<path fill-rule="evenodd" clip-rule="evenodd" d="M170.65 284.926L179.056 283.961L181.012 288.672L172.42 289.64L170.65 284.926Z" fill="white"/>
<path fill-rule="evenodd" clip-rule="evenodd" d="M142.082 283.228V280.197L135.324 280.959V283.989L142.082 283.228Z" fill="#27DEBF"/>
<path fill-rule="evenodd" clip-rule="evenodd" d="M135.324 280.958L133.931 277.25V280.711L135.324 283.989V280.958Z" fill="#27DEBF"/>
<path fill-rule="evenodd" clip-rule="evenodd" d="M133.931 277.251L140.544 276.492L142.082 280.197L135.324 280.959L133.931 277.251Z" fill="#27DEBF"/>
<path fill-rule="evenodd" clip-rule="evenodd" d="M142.082 283.228V280.197L135.324 280.959V283.989L142.082 283.228Z" fill="white"/>
<path fill-rule="evenodd" clip-rule="evenodd" d="M135.324 280.958L133.931 277.25V280.711L135.324 283.989V280.958Z" fill="white"/>
<path fill-rule="evenodd" clip-rule="evenodd" d="M133.931 277.251L140.544 276.492L142.082 280.197L135.324 280.959L133.931 277.251Z" fill="white"/>
<path fill-rule="evenodd" clip-rule="evenodd" d="M145.46 292.154V289.123L138.702 289.884V292.915L145.46 292.154Z" fill="#27DEBF"/>
<path fill-rule="evenodd" clip-rule="evenodd" d="M138.703 289.884L137.31 286.176V289.636L138.703 292.915V289.884Z" fill="#27DEBF"/>
<path fill-rule="evenodd" clip-rule="evenodd" d="M137.31 286.177L143.922 285.417L145.46 289.123L138.703 289.884L137.31 286.177Z" fill="#27DEBF"/>
<path fill-rule="evenodd" clip-rule="evenodd" d="M145.46 292.154V289.123L138.702 289.884V292.915L145.46 292.154Z" fill="white"/>
<path fill-rule="evenodd" clip-rule="evenodd" d="M138.703 289.884L137.31 286.176V289.636L138.703 292.915V289.884Z" fill="white"/>
<path fill-rule="evenodd" clip-rule="evenodd" d="M137.31 286.177L143.922 285.417L145.46 289.123L138.703 289.884L137.31 286.177Z" fill="white"/>
<path fill-rule="evenodd" clip-rule="evenodd" d="M218.026 274.106V259.666L207.377 260.86V275.299L218.026 274.106Z" fill="#27DEBF"/>
<path fill-rule="evenodd" clip-rule="evenodd" d="M218.026 274.106V259.666L207.377 260.86V275.299L218.026 274.106Z" fill="white"/>
<path fill-rule="evenodd" clip-rule="evenodd" d="M207.377 260.86L205.994 257.342V272.498L207.377 275.299V260.86Z" fill="#27DEBF"/>
<path fill-rule="evenodd" clip-rule="evenodd" d="M207.377 260.86L205.994 257.342V272.498L207.377 275.299V260.86Z" fill="white"/>
<path fill-rule="evenodd" clip-rule="evenodd" d="M205.994 257.341L216.4 256.151L218.025 259.666L207.377 260.859L205.994 257.341Z" fill="#27DEBF"/>
<path fill-rule="evenodd" clip-rule="evenodd" d="M205.994 257.341L216.4 256.151L218.025 259.666L207.377 260.859L205.994 257.341Z" fill="white"/>
<path fill-rule="evenodd" clip-rule="evenodd" d="M271.871 225.567V208.493L265.733 209.143V226.217L271.871 225.567Z" fill="#27DEBF"/>
<path fill-rule="evenodd" clip-rule="evenodd" d="M271.871 225.567V208.493L265.733 209.143V226.217L271.871 225.567Z" fill="white"/>
<path fill-rule="evenodd" clip-rule="evenodd" d="M265.733 209.143L264.35 205.625V223.416L265.733 226.217V209.143Z" fill="#27DEBF"/>
<path fill-rule="evenodd" clip-rule="evenodd" d="M265.733 209.143L264.35 205.625V223.416L265.733 226.217V209.143Z" fill="white"/>
<path fill-rule="evenodd" clip-rule="evenodd" d="M264.35 205.625L270.245 204.978L271.871 208.493L265.734 209.143L264.35 205.625Z" fill="#27DEBF"/>
<path fill-rule="evenodd" clip-rule="evenodd" d="M264.35 205.625L270.245 204.978L271.871 208.493L265.734 209.143L264.35 205.625Z" fill="white"/>
<path fill-rule="evenodd" clip-rule="evenodd" d="M265.042 224.972V209.915L261.793 210.248V225.305L265.042 224.972Z" fill="#27DEBF"/>
<path fill-rule="evenodd" clip-rule="evenodd" d="M265.042 224.972V209.915L261.793 210.248V225.305L265.042 224.972Z" fill="white"/>
<path fill-rule="evenodd" clip-rule="evenodd" d="M261.793 210.248L261.288 208.705V224.378L261.793 225.305V210.248Z" fill="#27DEBF"/>
<path fill-rule="evenodd" clip-rule="evenodd" d="M261.793 210.248L261.288 208.705V224.378L261.793 225.305V210.248Z" fill="white"/>
<path fill-rule="evenodd" clip-rule="evenodd" d="M261.288 208.705L264.328 208.375L265.042 209.915L261.793 210.248L261.288 208.705Z" fill="#27DEBF"/>
<path fill-rule="evenodd" clip-rule="evenodd" d="M261.288 208.705L264.328 208.375L265.042 209.915L261.793 210.248L261.288 208.705Z" fill="white"/>
<path fill-rule="evenodd" clip-rule="evenodd" d="M230.758 272.661V258.222L220.11 259.415V273.854L230.758 272.661Z" fill="#27DEBF"/>
<path fill-rule="evenodd" clip-rule="evenodd" d="M230.758 272.661V258.222L220.11 259.415V273.854L230.758 272.661Z" fill="white"/>
<path fill-rule="evenodd" clip-rule="evenodd" d="M220.109 259.414L218.726 255.896V271.052L220.109 273.854V259.414Z" fill="#27DEBF"/>
<path fill-rule="evenodd" clip-rule="evenodd" d="M220.109 259.414L218.726 255.896V271.052L220.109 273.854V259.414Z" fill="white"/>
<path fill-rule="evenodd" clip-rule="evenodd" d="M218.726 255.896L229.132 254.707L230.758 258.222L220.109 259.414L218.726 255.896Z" fill="#27DEBF"/>
<path fill-rule="evenodd" clip-rule="evenodd" d="M218.726 255.896L229.132 254.707L230.758 258.222L220.109 259.414L218.726 255.896Z" fill="white"/>
<path fill-rule="evenodd" clip-rule="evenodd" d="M258.743 227.196V222.875L249.11 223.96V228.281L258.743 227.196Z" fill="#27DEBF"/>
<path fill-rule="evenodd" clip-rule="evenodd" d="M249.109 223.96L247.123 218.674V223.607L249.109 228.281V223.96Z" fill="#27DEBF"/>
<path fill-rule="evenodd" clip-rule="evenodd" d="M247.124 218.674L256.551 217.592L258.743 222.875L249.11 223.96L247.124 218.674Z" fill="#27DEBF"/>
<path fill-rule="evenodd" clip-rule="evenodd" d="M258.743 227.196V222.875L249.11 223.96V228.281L258.743 227.196Z" fill="white"/>
<path fill-rule="evenodd" clip-rule="evenodd" d="M249.109 223.96L247.123 218.674V223.607L249.109 228.281V223.96Z" fill="white"/>
<path fill-rule="evenodd" clip-rule="evenodd" d="M247.124 218.674L256.551 217.592L258.743 222.875L249.11 223.96L247.124 218.674Z" fill="white"/>
<path fill-rule="evenodd" clip-rule="evenodd" d="M267.144 258.175L274.042 261.965L279.567 258.951L272.314 254.966L267.144 258.175Z" fill="#27DEBF"/>
<path fill-rule="evenodd" clip-rule="evenodd" d="M267.144 258.175L274.042 261.965L279.567 258.951L272.314 254.966L267.144 258.175Z" fill="white"/>
<path fill-rule="evenodd" clip-rule="evenodd" d="M279.566 262.074V258.951L274.042 261.965V265.109L279.566 262.074Z" fill="#27DEBF"/>
<path fill-rule="evenodd" clip-rule="evenodd" d="M279.566 262.074V258.951L274.042 261.965V265.109L279.566 262.074Z" fill="white"/>
<path fill-rule="evenodd" clip-rule="evenodd" d="M267.143 258.175V261.318L274.042 265.109V261.965L267.143 258.175Z" fill="#27DEBF"/>
<path fill-rule="evenodd" clip-rule="evenodd" d="M267.143 258.175V261.318L274.042 265.109V261.965L267.143 258.175Z" fill="white"/>
<path fill-rule="evenodd" clip-rule="evenodd" d="M259.43 262.505L266.329 266.295L271.853 263.281L264.6 259.296L259.43 262.505Z" fill="#27DEBF"/>
<path fill-rule="evenodd" clip-rule="evenodd" d="M259.43 262.505L266.329 266.295L271.853 263.281L264.6 259.296L259.43 262.505Z" fill="white"/>
<path fill-rule="evenodd" clip-rule="evenodd" d="M271.854 266.404V263.281L266.329 266.295V269.44L271.854 266.404Z" fill="#27DEBF"/>
<path fill-rule="evenodd" clip-rule="evenodd" d="M271.854 266.404V263.281L266.329 266.295V269.44L271.854 266.404Z" fill="white"/>
<path fill-rule="evenodd" clip-rule="evenodd" d="M259.43 262.505V265.648L266.329 269.439V266.295L259.43 262.505Z" fill="#27DEBF"/>
<path fill-rule="evenodd" clip-rule="evenodd" d="M259.43 262.505V265.648L266.329 269.439V266.295L259.43 262.505Z" fill="white"/>
<path fill-rule="evenodd" clip-rule="evenodd" d="M251.561 266.794L258.459 270.584L263.984 267.57L256.731 263.585L251.561 266.794Z" fill="#27DEBF"/>
<path fill-rule="evenodd" clip-rule="evenodd" d="M251.561 266.794L258.459 270.584L263.984 267.57L256.731 263.585L251.561 266.794Z" fill="white"/>
<path fill-rule="evenodd" clip-rule="evenodd" d="M263.984 270.693V267.57L258.459 270.584V273.729L263.984 270.693Z" fill="#27DEBF"/>
<path fill-rule="evenodd" clip-rule="evenodd" d="M263.984 270.693V267.57L258.459 270.584V273.729L263.984 270.693Z" fill="white"/>
<path fill-rule="evenodd" clip-rule="evenodd" d="M251.562 266.794V269.937L258.459 273.728V270.584L251.562 266.794Z" fill="#27DEBF"/>
<path fill-rule="evenodd" clip-rule="evenodd" d="M251.562 266.794V269.937L258.459 273.728V270.584L251.562 266.794Z" fill="white"/>
<path fill-rule="evenodd" clip-rule="evenodd" d="M240.395 268.731L247.293 272.52L252.818 269.506L245.565 265.521L240.395 268.731Z" fill="#27DEBF"/>
<path fill-rule="evenodd" clip-rule="evenodd" d="M240.395 268.731L247.293 272.52L252.818 269.506L245.565 265.521L240.395 268.731Z" fill="white"/>
<path fill-rule="evenodd" clip-rule="evenodd" d="M252.817 277.025V269.506L247.293 272.52V280.06L252.817 277.025Z" fill="#27DEBF"/>
<path fill-rule="evenodd" clip-rule="evenodd" d="M252.817 277.025V269.506L247.293 272.52V280.06L252.817 277.025Z" fill="white"/>
<path fill-rule="evenodd" clip-rule="evenodd" d="M240.394 268.73V276.269L247.293 280.06V272.52L240.394 268.73Z" fill="#27DEBF"/>
<path fill-rule="evenodd" clip-rule="evenodd" d="M240.394 268.73V276.269L247.293 280.06V272.52L240.394 268.73Z" fill="white"/>
<path fill-rule="evenodd" clip-rule="evenodd" d="M281.643 251.049L289.123 253.713L294.647 250.699L286.813 247.84L281.643 251.049Z" fill="#27DEBF"/>
<path fill-rule="evenodd" clip-rule="evenodd" d="M281.643 251.049L289.123 253.713L294.647 250.699L286.813 247.84L281.643 251.049Z" fill="white"/>
<path fill-rule="evenodd" clip-rule="evenodd" d="M294.647 253.822V250.699L289.123 253.712V256.857L294.647 253.822Z" fill="#27DEBF"/>
<path fill-rule="evenodd" clip-rule="evenodd" d="M294.647 253.822V250.699L289.123 253.712V256.857L294.647 253.822Z" fill="white"/>
<path fill-rule="evenodd" clip-rule="evenodd" d="M281.643 251.049V254.192L289.123 256.857V253.713L281.643 251.049Z" fill="#27DEBF"/>
<path fill-rule="evenodd" clip-rule="evenodd" d="M281.643 251.049V254.192L289.123 256.857V253.713L281.643 251.049Z" fill="white"/>
<path fill-rule="evenodd" clip-rule="evenodd" d="M269.656 246.695L277.136 249.359L282.661 246.345L274.826 243.486L269.656 246.695Z" fill="#27DEBF"/>
<path fill-rule="evenodd" clip-rule="evenodd" d="M269.656 246.695L277.136 249.359L282.661 246.345L274.826 243.486L269.656 246.695Z" fill="white"/>
<path fill-rule="evenodd" clip-rule="evenodd" d="M282.661 249.468V246.345L277.136 249.358V252.503L282.661 249.468Z" fill="#27DEBF"/>
<path fill-rule="evenodd" clip-rule="evenodd" d="M282.661 249.468V246.345L277.136 249.358V252.503L282.661 249.468Z" fill="white"/>
<path fill-rule="evenodd" clip-rule="evenodd" d="M269.657 246.695V249.838L277.136 252.503V249.359L269.657 246.695Z" fill="#27DEBF"/>
<path fill-rule="evenodd" clip-rule="evenodd" d="M269.657 246.695V249.838L277.136 252.503V249.359L269.657 246.695Z" fill="white"/>
<path fill-rule="evenodd" clip-rule="evenodd" d="M224.264 231.066V226.51L210.283 228.079V232.634L224.264 231.066Z" fill="#27DEBF"/>
<path fill-rule="evenodd" clip-rule="evenodd" d="M224.264 231.066V226.51L210.283 228.079V232.634L224.264 231.066Z" fill="white"/>
<path fill-rule="evenodd" clip-rule="evenodd" d="M210.282 228.078L207.326 220.209V225.676L210.282 232.634V228.078Z" fill="#27DEBF"/>
<path fill-rule="evenodd" clip-rule="evenodd" d="M210.282 228.078L207.326 220.209V225.676L210.282 232.634V228.078Z" fill="white"/>
<path fill-rule="evenodd" clip-rule="evenodd" d="M207.326 220.209L221 218.646L224.264 226.51L210.282 228.078L207.326 220.209Z" fill="#27DEBF"/>
<path fill-rule="evenodd" clip-rule="evenodd" d="M207.326 220.209L221 218.646L224.264 226.51L210.282 228.078L207.326 220.209Z" fill="white"/>
<path fill-rule="evenodd" clip-rule="evenodd" d="M222.468 225.377V203.171L211.515 204.398V226.604L222.468 225.377Z" fill="#27DEBF"/>
<path fill-rule="evenodd" clip-rule="evenodd" d="M222.468 225.377V203.171L211.515 204.398V226.604L222.468 225.377Z" fill="white"/>
<path fill-rule="evenodd" clip-rule="evenodd" d="M211.515 204.398L209.122 198.027V220.97L211.515 226.604V204.398Z" fill="#27DEBF"/>
<path fill-rule="evenodd" clip-rule="evenodd" d="M211.515 204.398L209.122 198.027V220.97L211.515 226.604V204.398Z" fill="white"/>
<path fill-rule="evenodd" clip-rule="evenodd" d="M209.121 198.027L219.825 196.803L222.468 203.171L211.515 204.398L209.121 198.027Z" fill="#27DEBF"/>
<path fill-rule="evenodd" clip-rule="evenodd" d="M209.121 198.027L219.825 196.803L222.468 203.171L211.515 204.398L209.121 198.027Z" fill="white"/>
<path fill-rule="evenodd" clip-rule="evenodd" d="M219.053 201.741V189.632L213.08 190.302V202.41L219.053 201.741Z" fill="#27DEBF"/>
<path fill-rule="evenodd" clip-rule="evenodd" d="M219.053 201.741V189.632L213.08 190.302V202.41L219.053 201.741Z" fill="white"/>
<path fill-rule="evenodd" clip-rule="evenodd" d="M213.081 190.302L211.775 186.828V199.338L213.081 202.411V190.302Z" fill="#27DEBF"/>
<path fill-rule="evenodd" clip-rule="evenodd" d="M213.081 190.302L211.775 186.828V199.338L213.081 202.411V190.302Z" fill="white"/>
<path fill-rule="evenodd" clip-rule="evenodd" d="M211.775 186.827L217.612 186.16L219.053 189.632L213.08 190.301L211.775 186.827Z" fill="#27DEBF"/>
<path fill-rule="evenodd" clip-rule="evenodd" d="M211.775 186.827L217.612 186.16L219.053 189.632L213.08 190.301L211.775 186.827Z" fill="white"/>
<path fill-rule="evenodd" clip-rule="evenodd" d="M155.727 263.006V228.014L144.774 229.242V264.233L155.727 263.006Z" fill="#27DEBF"/>
<path fill-rule="evenodd" clip-rule="evenodd" d="M155.727 263.006V228.014L144.774 229.242V264.233L155.727 263.006Z" fill="white"/>
<path fill-rule="evenodd" clip-rule="evenodd" d="M144.774 229.242L143.171 224.778V260.507L144.774 264.233V229.242Z" fill="#27DEBF"/>
<path fill-rule="evenodd" clip-rule="evenodd" d="M144.774 229.242L143.171 224.778V260.507L144.774 264.233V229.242Z" fill="white"/>
<path fill-rule="evenodd" clip-rule="evenodd" d="M143.171 224.778L153.874 223.554L155.727 228.014L144.774 229.242L143.171 224.778Z" fill="#27DEBF"/>
<path fill-rule="evenodd" clip-rule="evenodd" d="M143.171 224.778L153.874 223.554L155.727 228.014L144.774 229.242L143.171 224.778Z" fill="white"/>
<path fill-rule="evenodd" clip-rule="evenodd" d="M138.007 274.171V241.767L128.457 242.779V275.184L138.007 274.171Z" fill="#27DEBF"/>
<path fill-rule="evenodd" clip-rule="evenodd" d="M138.007 274.171V241.767L128.457 242.779V275.184L138.007 274.171Z" fill="white"/>
<path fill-rule="evenodd" clip-rule="evenodd" d="M128.456 242.78L126.304 237.305V270.825L128.456 275.184V242.78Z" fill="#27DEBF"/>
<path fill-rule="evenodd" clip-rule="evenodd" d="M128.456 242.78L126.304 237.305V270.825L128.456 275.184V242.78Z" fill="white"/>
<path fill-rule="evenodd" clip-rule="evenodd" d="M126.304 237.305L135.476 236.298L138.007 241.767L128.457 242.78L126.304 237.305Z" fill="#27DEBF"/>
<path fill-rule="evenodd" clip-rule="evenodd" d="M126.304 237.305L135.476 236.298L138.007 241.767L128.457 242.78L126.304 237.305Z" fill="white"/>
<path fill-rule="evenodd" clip-rule="evenodd" d="M127.38 273.246V243.98L122.324 244.499V273.764L127.38 273.246Z" fill="#27DEBF"/>
<path fill-rule="evenodd" clip-rule="evenodd" d="M127.38 273.246V243.98L122.324 244.499V273.764L127.38 273.246Z" fill="white"/>
<path fill-rule="evenodd" clip-rule="evenodd" d="M122.325 244.499L121.539 242.097V272.322L122.325 273.764V244.499Z" fill="#27DEBF"/>
<path fill-rule="evenodd" clip-rule="evenodd" d="M122.325 244.499L121.539 242.097V272.322L122.325 273.764V244.499Z" fill="white"/>
<path fill-rule="evenodd" clip-rule="evenodd" d="M121.539 242.097L126.27 241.584L127.38 243.981L122.324 244.499L121.539 242.097Z" fill="#27DEBF"/>
<path fill-rule="evenodd" clip-rule="evenodd" d="M121.539 242.097L126.27 241.584L127.38 243.981L122.324 244.499L121.539 242.097Z" fill="white"/>
<path fill-rule="evenodd" clip-rule="evenodd" d="M315.761 238.473L301.819 246.135V250.301L315.761 242.639V238.473Z" fill="#27DEBF"/>
<path fill-rule="evenodd" clip-rule="evenodd" d="M315.761 238.473L301.819 246.135V250.301L315.761 242.639V238.473Z" fill="#E3E3E3"/>
<path fill-rule="evenodd" clip-rule="evenodd" d="M287.877 242.64V238.473L301.819 246.135V250.301" fill="#27DEBF"/>
<path fill-rule="evenodd" clip-rule="evenodd" d="M287.878 238.473L301.819 246.135V250.301L287.878 242.639V238.473Z" fill="white"/>
<path fill-rule="evenodd" clip-rule="evenodd" d="M287.878 238.473L301.82 230.811L315.761 238.473L301.82 246.135L287.878 238.473Z" fill="#27DEBF"/>
<path fill-rule="evenodd" clip-rule="evenodd" d="M287.878 238.473L301.82 230.811L315.761 238.473L301.82 246.135L287.878 238.473Z" fill="#C5C2C2"/>
<path fill-rule="evenodd" clip-rule="evenodd" d="M315.761 237.834L301.819 245.496V244.219L315.761 236.557V237.834Z" fill="#27DEBF"/>
<path fill-rule="evenodd" clip-rule="evenodd" d="M315.761 237.834L301.819 245.496V244.219L315.761 236.557V237.834Z" fill="#E3E3E3"/>
<path fill-rule="evenodd" clip-rule="evenodd" d="M301.819 245.496L287.877 237.835V236.558L301.819 244.219V245.496Z" fill="#27DEBF"/>
<path fill-rule="evenodd" clip-rule="evenodd" d="M301.819 245.496L287.877 237.835V236.558L301.819 244.219V245.496Z" fill="white"/>
<path fill-rule="evenodd" clip-rule="evenodd" d="M287.878 236.557L301.82 228.895L315.761 236.557L301.82 244.219L287.878 236.557Z" fill="#27DEBF"/>
<path fill-rule="evenodd" clip-rule="evenodd" d="M287.878 236.557L301.82 228.895L315.761 236.557L301.82 244.219L287.878 236.557Z" fill="#C5C2C2"/>
<path fill-rule="evenodd" clip-rule="evenodd" d="M315.761 235.776L301.819 243.438V242.161L315.761 234.499V235.776Z" fill="#27DEBF"/>
<path fill-rule="evenodd" clip-rule="evenodd" d="M315.761 235.776L301.819 243.438V242.161L315.761 234.499V235.776Z" fill="#E3E3E3"/>
<path fill-rule="evenodd" clip-rule="evenodd" d="M301.819 243.438L287.877 235.776V234.499L301.819 242.161V243.438Z" fill="#27DEBF"/>
<path fill-rule="evenodd" clip-rule="evenodd" d="M301.819 243.438L287.877 235.776V234.499L301.819 242.161V243.438Z" fill="white"/>
<path fill-rule="evenodd" clip-rule="evenodd" d="M287.878 234.499L301.82 226.837L315.761 234.499L301.82 242.161L287.878 234.499Z" fill="#27DEBF"/>
<path fill-rule="evenodd" clip-rule="evenodd" d="M287.878 234.499L301.82 226.837L315.761 234.499L301.82 242.161L287.878 234.499Z" fill="#C5C2C2"/>
<path fill-rule="evenodd" clip-rule="evenodd" d="M301.819 240.724V208.552L313.437 202.168L313.436 234.339L301.819 240.724Z" fill="#27DEBF"/>
<path fill-rule="evenodd" clip-rule="evenodd" d="M301.819 208.552L290.201 202.167V234.339L301.819 240.724V208.552Z" fill="white"/>
<path fill-rule="evenodd" clip-rule="evenodd" d="M290.201 202.168L301.819 195.782L313.437 202.168L301.819 208.553L290.201 202.168Z" fill="#27DEBF"/>
<path fill-rule="evenodd" clip-rule="evenodd" d="M290.201 202.168L301.819 195.782L313.437 202.168L301.819 208.553L290.201 202.168Z" fill="#C5C2C2"/>
<path fill-rule="evenodd" clip-rule="evenodd" d="M301.819 240.724V208.552L313.437 202.168L313.436 234.339L301.819 240.724Z" fill="#E3E3E3"/>
<path fill-rule="evenodd" clip-rule="evenodd" d="M301.819 207.276V180.181L311.114 174.952V202.168L301.819 207.276Z" fill="#27DEBF"/>
<path fill-rule="evenodd" clip-rule="evenodd" d="M301.819 207.276V180.181L292.524 174.952V202.168L301.819 207.276Z" fill="white"/>
<path fill-rule="evenodd" clip-rule="evenodd" d="M292.524 174.952L301.819 169.904L311.114 174.952L301.819 180.181L292.524 174.952Z" fill="#27DEBF"/>
<path fill-rule="evenodd" clip-rule="evenodd" d="M292.524 174.952L301.819 169.904L311.114 174.952L301.819 180.181L292.524 174.952Z" fill="#C5C2C2"/>
<path fill-rule="evenodd" clip-rule="evenodd" d="M301.819 207.276V180.181L311.114 174.952V202.168L301.819 207.276Z" fill="#E3E3E3"/>
<path fill-rule="evenodd" clip-rule="evenodd" d="M301.819 178.204V174.373L296.01 171.181V175.012L301.819 178.204Z" fill="white"/>
<path fill-rule="evenodd" clip-rule="evenodd" d="M307.628 175.012V171.181L301.819 174.373V178.204L307.628 175.012Z" fill="#27DEBF"/>
<path fill-rule="evenodd" clip-rule="evenodd" d="M307.628 175.012V171.181L301.819 174.373V178.204L307.628 175.012Z" fill="#E3E3E3"/>
<path fill-rule="evenodd" clip-rule="evenodd" d="M296.01 171.181L301.819 167.988L307.628 171.181L301.819 174.374L296.01 171.181Z" fill="#27DEBF"/>
<path fill-rule="evenodd" clip-rule="evenodd" d="M296.01 171.181L301.819 167.988L307.628 171.181L301.819 174.374L296.01 171.181Z" fill="#C5C2C2"/>
<path fill-rule="evenodd" clip-rule="evenodd" d="M155.024 300.398C155.101 300.361 159.721 297.611 171.549 297.099C183.371 296.587 189.022 298.727 189.078 298.748C189.185 298.79 189.312 298.767 189.395 298.688C189.478 298.609 189.503 298.49 189.459 298.387L172.061 257.465L212.735 252.95C212.826 252.94 212.906 252.891 212.952 252.816C212.999 252.741 213.006 252.65 212.972 252.57L206.521 237.385L288.818 228.066C288.978 228.047 289.092 227.909 289.073 227.757C289.054 227.604 288.911 227.495 288.749 227.514L206.073 236.876C205.983 236.887 205.902 236.936 205.857 237.011C205.81 237.085 205.803 237.176 205.837 237.256L212.288 252.44L171.614 256.956C171.523 256.966 171.443 257.016 171.396 257.09C171.35 257.165 171.343 257.256 171.376 257.336L188.676 298.024C186.908 297.481 181.388 296.117 171.522 296.544C159.559 297.062 154.836 299.866 154.759 299.904C154.616 299.974 154.559 300.141 154.632 300.277C154.684 300.373 154.786 300.429 154.893 300.429C154.937 300.429 154.982 300.419 155.024 300.398Z" fill="#2149FE" stroke="#2149FE"/>
<path d="M154.944 300.163L140.744 266.24C139.995 264.452 141.127 262.437 143.043 262.146V262.146" stroke="#2149FE" stroke-width="3" stroke-linecap="round"/>
<path fill-rule="evenodd" clip-rule="evenodd" d="M311.84 137.834V136.228C311.84 134.227 311.45 132.121 310.75 130.053V130.048C308.985 124.83 305.267 119.851 300.967 117.483C298.228 115.978 295.728 115.789 293.817 116.694L297.581 114.627C298.485 114.055 299.539 113.754 300.71 113.754C300.886 113.754 301.06 113.76 301.241 113.777C301.422 113.788 301.602 113.81 301.788 113.838C301.975 113.86 302.162 113.893 302.348 113.938C302.534 113.977 302.727 114.027 302.919 114.082C303.31 114.194 303.7 114.333 304.102 114.499C304.3 114.583 304.504 114.677 304.708 114.772C304.912 114.872 305.116 114.977 305.32 115.088C311.321 118.395 316.187 126.786 316.187 133.833V135.439C316.187 142.485 306.252 150.143 306.252 150.143L302.226 152.31C302.295 152.271 302.365 152.221 302.43 152.165C305.396 149.553 311.84 143.257 311.84 137.834Z" fill="#6D975F"/>
<path fill-rule="evenodd" clip-rule="evenodd" d="M299.977 123.018C299.942 123.191 299.918 123.369 299.907 123.557C299.901 123.618 299.895 123.679 299.895 123.746C299.884 123.852 299.884 123.957 299.884 124.068C299.884 127.37 302.313 131.393 305.32 133.043C305.431 133.105 305.536 133.16 305.646 133.21C305.751 133.266 305.862 133.31 305.967 133.355C306.072 133.399 306.177 133.438 306.281 133.477C306.293 133.482 306.299 133.482 306.311 133.488C305.845 136.017 303.636 136.9 300.967 135.439C297.966 133.782 295.536 129.765 295.536 126.458C295.536 123.529 297.448 122.14 299.977 123.018Z" fill="#6D975F"/>
<path fill-rule="evenodd" clip-rule="evenodd" d="M300.97 135.437C303.971 137.09 306.404 135.75 306.404 132.445C306.404 129.14 303.971 125.12 300.97 123.468C297.968 121.815 295.535 123.155 295.535 126.46C295.535 129.765 297.968 133.785 300.97 135.437ZM290.1 124.258C290.101 117.21 294.967 114.177 300.97 117.483C306.973 120.788 311.839 129.18 311.839 136.228V137.831C311.839 143.258 305.394 149.555 302.43 152.163C301.707 152.799 300.55 152.595 300.118 151.753C297.558 146.755 290.1 131.699 290.1 125.862V124.258Z" fill="#8CC27B"/>
<path fill-rule="evenodd" clip-rule="evenodd" d="M218.452 177.425V176.853C218.452 176.141 218.314 175.391 218.067 174.655V174.653C217.444 172.796 216.132 171.024 214.615 170.181C213.648 169.645 212.766 169.578 212.091 169.9L213.42 169.165C213.738 168.961 214.111 168.854 214.524 168.854C214.586 168.854 214.647 168.856 214.711 168.862C214.775 168.866 214.839 168.874 214.905 168.884C214.97 168.892 215.036 168.903 215.102 168.919C215.168 168.933 215.236 168.951 215.303 168.971C215.441 169.01 215.579 169.06 215.721 169.119C215.791 169.149 215.863 169.182 215.935 169.216C216.007 169.252 216.079 169.289 216.151 169.329C218.269 170.506 219.986 173.492 219.986 176V176.572C219.986 179.08 216.48 181.806 216.48 181.806L215.059 182.577C215.083 182.563 215.108 182.545 215.131 182.526C216.178 181.596 218.452 179.355 218.452 177.425Z" fill="#6D975F"/>
<path fill-rule="evenodd" clip-rule="evenodd" d="M214.039 172.16C214.026 172.22 214.017 172.282 214.013 172.347C214.011 172.368 214.009 172.389 214.009 172.412C214.005 172.449 214.005 172.485 214.005 172.524C214.005 173.667 214.9 175.059 216.007 175.63C216.048 175.651 216.087 175.671 216.127 175.688C216.166 175.707 216.207 175.723 216.245 175.738C216.284 175.753 216.323 175.767 216.361 175.78C216.366 175.782 216.368 175.782 216.372 175.784C216.201 176.659 215.387 176.965 214.404 176.459C213.298 175.886 212.403 174.495 212.403 173.351C212.403 172.337 213.107 171.857 214.039 172.16Z" fill="#6D975F"/>
<path fill-rule="evenodd" clip-rule="evenodd" d="M214.553 176.596C215.603 177.182 216.455 176.707 216.455 175.535C216.455 174.363 215.603 172.937 214.553 172.351C213.503 171.765 212.651 172.24 212.651 173.412C212.651 174.584 213.503 176.01 214.553 176.596ZM210.749 172.631C210.75 170.132 212.452 169.056 214.553 170.228C216.654 171.4 218.356 174.377 218.356 176.877V177.445C218.356 179.37 216.101 181.603 215.064 182.529C214.811 182.754 214.406 182.682 214.255 182.383C213.359 180.61 210.749 175.27 210.749 173.2V172.631Z" fill="#8CC27B"/>
<path fill-rule="evenodd" clip-rule="evenodd" d="M152.848 212.078V211.207C152.848 210.122 152.641 208.98 152.271 207.859V207.856C151.336 205.025 149.368 202.325 147.092 201.041C145.642 200.224 144.318 200.122 143.306 200.613L145.299 199.492C145.778 199.181 146.336 199.019 146.956 199.019C147.049 199.019 147.141 199.022 147.237 199.031C147.332 199.037 147.428 199.049 147.527 199.064C147.625 199.076 147.724 199.094 147.823 199.118C147.921 199.139 148.023 199.166 148.125 199.196C148.332 199.257 148.539 199.332 148.751 199.423C148.856 199.468 148.964 199.519 149.072 199.57C149.18 199.624 149.288 199.682 149.396 199.742C152.573 201.535 155.149 206.087 155.149 209.908V210.779C155.149 214.601 149.89 218.755 149.89 218.755L147.758 219.93C147.795 219.909 147.832 219.882 147.866 219.852C149.436 218.435 152.848 215.02 152.848 212.078Z" fill="#6D975F"/>
<path fill-rule="evenodd" clip-rule="evenodd" d="M146.674 203.658C146.653 203.756 146.639 203.857 146.632 203.964C146.629 203.999 146.625 204.034 146.625 204.072C146.618 204.132 146.618 204.192 146.618 204.255C146.618 206.132 148.088 208.42 149.908 209.358C149.975 209.393 150.039 209.425 150.105 209.453C150.169 209.485 150.236 209.51 150.299 209.535C150.363 209.56 150.427 209.583 150.49 209.605C150.497 209.608 150.501 209.608 150.508 209.611C150.226 211.049 148.889 211.551 147.274 210.72C145.458 209.778 143.987 207.494 143.987 205.614C143.987 203.949 145.144 203.159 146.674 203.658Z" fill="#6D975F"/>
<path fill-rule="evenodd" clip-rule="evenodd" d="M147.413 210.552C149.011 211.439 150.307 210.72 150.307 208.946C150.307 207.173 149.011 205.016 147.413 204.13C145.815 203.243 144.519 203.961 144.519 205.735C144.519 207.508 145.815 209.665 147.413 210.552ZM141.625 204.553C141.625 200.772 144.216 199.145 147.413 200.918C150.61 202.692 153.201 207.195 153.201 210.976V211.836C153.201 214.748 149.769 218.127 148.19 219.526C147.805 219.868 147.19 219.758 146.96 219.306C145.596 216.625 141.625 208.546 141.625 205.414V204.553Z" fill="#8CC27B"/>
<path fill-rule="evenodd" clip-rule="evenodd" d="M84.519 330.965H84.5184V326.143L121.954 317.868V322.682L121.95 322.687C121.944 322.794 121.892 322.926 121.776 323.082L107.199 342.732C106.841 343.215 106.456 343.134 106.339 342.552L104.495 333.332C104.378 332.75 103.785 332.246 103.169 332.209L84.988 331.088C84.6778 331.068 84.5218 331.023 84.519 330.965Z" fill="#27DEBF"/>
<path fill-rule="evenodd" clip-rule="evenodd" d="M84.519 330.965H84.5184V326.143L121.954 317.868V322.682L121.95 322.687C121.944 322.794 121.892 322.926 121.776 323.082L107.199 342.732C106.841 343.215 106.456 343.134 106.339 342.552L104.495 333.332C104.378 332.75 103.785 332.246 103.169 332.209L84.988 331.088C84.6778 331.068 84.5218 331.023 84.519 330.965Z" fill="#1A3BD1"/>
<path fill-rule="evenodd" clip-rule="evenodd" d="M106.884 343.008C106.638 343.118 106.422 342.963 106.339 342.552L104.494 333.332C104.451 333.116 104.341 332.911 104.19 332.736V325.965L106.884 329.753V343.008Z" fill="#132989"/>
<path fill-rule="evenodd" clip-rule="evenodd" d="M106.34 337.731L104.494 328.51C104.378 327.928 103.784 327.425 103.169 327.388L84.9877 326.266C84.3724 326.228 84.3598 326.086 84.9597 325.949L121.339 317.634C121.939 317.498 122.134 317.777 121.776 318.26L107.199 337.911C106.841 338.394 106.456 338.313 106.34 337.731Z" fill="#2149FE"/>
<mask id="path-344-inside-1_0_1814" fill="white">
<ellipse cx="142.617" cy="262.253" rx="0.992218" ry="0.827362"/>
</mask>
<ellipse cx="142.617" cy="262.253" rx="0.992218" ry="0.827362" fill="white"/>
<path d="M142.609 262.253C142.609 262.202 142.622 262.156 142.64 262.122C142.656 262.09 142.673 262.074 142.678 262.07C142.688 262.062 142.669 262.08 142.617 262.08V264.08C143.54 264.08 144.609 263.424 144.609 262.253H142.609ZM142.617 262.08C142.565 262.08 142.547 262.062 142.556 262.07C142.562 262.074 142.578 262.09 142.595 262.122C142.612 262.156 142.625 262.202 142.625 262.253H140.625C140.625 263.424 141.695 264.08 142.617 264.08V262.08ZM142.625 262.253C142.625 262.304 142.612 262.349 142.595 262.383C142.578 262.415 142.562 262.431 142.556 262.436C142.547 262.443 142.565 262.425 142.617 262.425V260.425C141.695 260.425 140.625 261.081 140.625 262.253H142.625ZM142.617 262.425C142.669 262.425 142.688 262.443 142.678 262.436C142.673 262.431 142.656 262.415 142.64 262.383C142.622 262.349 142.609 262.304 142.609 262.253H144.609C144.609 261.081 143.54 260.425 142.617 260.425V262.425Z" fill="#2149FE" mask="url(#path-344-inside-1_0_1814)"/>
</svg>
