<svg width="700" height="359" viewBox="0 0 700 359" fill="none" xmlns="http://www.w3.org/2000/svg">
<path fill-rule="evenodd" clip-rule="evenodd" d="M700 0H13.9935C13.9935 0 18.1679 7.98239 20.4229 11.7024C20.9174 12.4943 21.4116 13.2865 21.9061 14.0433C24.4081 18.0035 27.1576 21.8964 30.1541 25.7189C33.7686 30.3687 37.723 34.9491 41.9861 39.3569C42.9438 40.3558 43.9014 41.3211 44.8593 42.2844C45.0753 42.4914 45.2916 42.6983 45.508 42.9387C46.064 43.4552 46.6203 44.0067 47.1761 44.5228C49.524 46.7968 51.8103 48.9324 54.0653 50.9974C55.2081 52.0316 56.3205 53.0305 57.4323 54.0293C59.6257 55.9917 61.7576 57.9207 63.7965 59.7805C70.0675 65.5317 75.6282 70.9384 80.015 77.0343C81.5287 79.1012 82.8882 81.2705 84.0929 83.5105C86.286 87.6085 87.9852 92.0498 89.0976 97.0797C89.3447 98.3524 89.5918 99.6626 89.7771 101.004C90.3331 104.655 90.6113 108.616 90.5186 112.956C90.4879 116.365 90.2405 157.285 89.7771 161.212C89.6847 162.038 89.5607 162.899 89.4373 163.795C88.7884 168.65 87.8 173.92 86.4716 179.671C86.1011 181.289 85.6992 182.942 85.2668 184.63C84.5253 187.558 83.9384 190.451 83.475 193.274C82.5792 198.751 82.2082 204.02 82.2703 209.152C82.3011 213.8 82.7026 218.312 83.475 222.652V222.721C84.1548 226.853 85.1432 230.849 86.3482 234.707C101.145 281.614 151.501 309.338 164.877 315.537C183.938 324.389 206.521 329.348 229.968 331.172C231.883 331.311 233.799 331.448 235.714 331.552C241.12 331.862 246.588 332 252.025 332C254.25 332 256.443 331.965 258.636 331.931C262.313 331.828 265.958 331.69 269.634 331.448C273.032 331.242 276.4 331.001 279.767 330.691C293.731 329.381 307.354 327.178 320.02 324.215C331.543 321.53 341.923 318.155 351.376 314.263L351.407 314.228C373.712 305.033 390.579 293.013 404.048 280.511C407.168 277.619 410.134 274.691 412.914 271.763C413.285 271.385 413.687 270.971 414.058 270.559C414.922 269.663 415.756 268.768 416.59 267.837C416.961 267.425 417.363 267.011 417.734 266.597C420.174 263.877 422.522 261.156 424.746 258.504C425.859 257.162 426.97 255.818 428.052 254.509C433.921 247.277 439.111 240.527 444.054 234.707C444.672 233.948 445.29 233.26 445.908 232.537C454.403 222.893 462.281 216.35 471.919 215.626C477.974 215.179 485.049 216.316 492.988 218.038C493.791 218.209 494.564 218.381 495.367 218.588C507.569 221.309 521.78 225.166 537.566 226.784C557.955 228.886 581.032 227.233 605.932 214.628C606.735 214.214 607.507 213.8 608.311 213.388C611.956 211.424 615.632 209.255 619.34 206.81C620.111 206.327 620.884 205.811 621.656 205.295C625.425 202.712 629.256 199.853 633.117 196.684C633.21 196.615 633.303 196.547 633.395 196.442C635.064 195.1 636.732 193.654 638.4 192.173C640.346 190.451 642.323 188.66 644.3 186.766C649.058 182.185 660.686 173.901 675.391 131.316C690.095 88.7313 700 0 700 0Z" fill="#81CFFA"/>
<path fill-rule="evenodd" clip-rule="evenodd" d="M98.9998 196C87.9527 196 79 186.851 79 175.517C79 172.744 79.5405 170.11 80.5201 167.684C83.5268 160.233 90.6553 155 98.9998 155C110.047 155 119 164.184 119 175.517C119 185.326 112.311 193.471 103.358 195.48C101.973 195.827 100.487 196 98.9998 196ZM99 132C88.7424 132 79.3002 135.705 71.896 141.892C62.1818 150.036 56 162.41 56 176.251C56 200.684 99 255 99 255C99 255 118.53 230.324 131.233 206.765C137.415 195.371 142 184.22 142 176.251C142 151.819 122.742 132 99 132Z" fill="#8CC27B"/>
<mask id="mask0_0_10" style="mask-type:alpha" maskUnits="userSpaceOnUse" x="593" y="154" width="75" height="107">
<path fill-rule="evenodd" clip-rule="evenodd" d="M593 192.487C593 213.743 630.5 261 630.5 261C630.5 261 668 213.743 668 192.487C668 171.231 651.21 154 630.5 154C609.79 154 593 171.231 593 192.487ZM612.972 192.096C612.972 182.16 620.819 174.106 630.5 174.106C640.18 174.106 648.028 182.16 648.028 192.096C648.028 202.031 640.18 210.085 630.5 210.085C620.819 210.085 612.972 202.031 612.972 192.096Z" fill="white"/>
</mask>
<g mask="url(#mask0_0_10)">
<path fill-rule="evenodd" clip-rule="evenodd" d="M593 192.487C593 213.743 630.5 261 630.5 261C630.5 261 668 213.743 668 192.487C668 171.231 651.21 154 630.5 154C609.79 154 593 171.231 593 192.487ZM612.972 192.096C612.972 182.16 620.819 174.106 630.5 174.106C640.18 174.106 648.028 182.16 648.028 192.096C648.028 202.031 640.18 210.085 630.5 210.085C620.819 210.085 612.972 202.031 612.972 192.096Z" fill="#8CC27B"/>
</g>
<path fill-rule="evenodd" clip-rule="evenodd" d="M381.262 41.0272C379.768 41.0116 378.25 41.0018 376.753 41H376.75C376.336 41 376 41.2178 376 41.4844C376 41.7549 376.336 41.9728 376.75 41.9728C378.241 41.9747 379.75 41.9844 381.238 42H381.25C381.658 42 381.994 41.7879 382 41.5215C382.006 41.2528 381.676 41.031 381.262 41.0272ZM373.25 41H373.241C371.752 41.0114 370.233 41.0303 368.729 41.0566C368.315 41.0643 367.988 41.2794 368 41.5415C368.009 41.7963 368.345 42 368.747 42H368.769C370.266 41.9737 371.779 41.9548 373.258 41.9434C373.672 41.9396 374.006 41.7265 374 41.4662C373.994 41.2076 373.661 41 373.25 41ZM390.285 41.1075C388.793 41.0646 387.278 41.0286 385.775 41.0001C385.367 40.9947 385.015 41.1861 385 41.4329C384.988 41.6799 385.312 41.8855 385.727 41.8945C387.221 41.9232 388.731 41.959 390.213 42H390.249C390.648 42 390.978 41.814 390.999 41.5744C391.017 41.3274 390.699 41.1183 390.285 41.1075ZM365.218 41.0003C363.732 41.0353 362.212 41.0788 360.71 41.126C360.295 41.14 359.977 41.3445 360.001 41.5858C360.022 41.8201 360.353 42 360.749 42C360.764 42 360.776 42 360.791 41.9982C362.29 41.951 363.801 41.9089 365.282 41.8741C365.696 41.8636 366.017 41.6591 365.999 41.4179C365.981 41.1766 365.624 40.9916 365.218 41.0003ZM398.309 42.1773C396.82 42.1113 395.305 42.0521 393.798 42.0009C393.377 41.9861 393.025 42.1593 393.002 42.385C392.974 42.6126 393.29 42.8088 393.702 42.8236C395.2 42.8746 396.709 42.934 398.189 42.9983C398.21 43 398.231 43 398.249 43C398.636 43 398.967 42.8368 398.998 42.6207C399.03 42.3932 398.721 42.1955 398.309 42.1773ZM356.198 42.0011C354.707 42.0566 353.192 42.1171 351.691 42.1842C351.276 42.2038 350.97 42.4 351.002 42.6256C351.036 42.8397 351.364 43 351.751 43H351.814C353.309 42.9329 354.818 42.8709 356.3 42.8152C356.715 42.8005 357.028 42.606 356.998 42.3803C356.971 42.1547 356.622 41.9847 356.198 42.0011ZM407.332 42.2384C405.834 42.1528 404.318 42.0735 402.823 42.0017C402.41 41.9819 402.043 42.1345 402.003 42.3451C401.964 42.5542 402.266 42.7405 402.682 42.7603C404.168 42.8336 405.674 42.913 407.163 42.9968C407.19 42.9984 407.221 43 407.248 43C407.627 43 407.953 42.8548 407.995 42.6611C408.043 42.4505 407.745 42.2627 407.332 42.2384ZM347.177 42.0018C345.684 42.0739 344.169 42.1523 342.672 42.2336C342.26 42.2567 341.962 42.4457 342.004 42.6559C342.046 42.8541 342.374 43 342.754 43C342.781 43 342.808 42.9986 342.835 42.997C344.325 42.9155 345.835 42.8373 347.319 42.7651C347.732 42.7451 348.036 42.5577 347.997 42.3472C347.958 42.1354 347.59 41.9817 347.177 42.0018ZM415.354 43.2937C413.868 43.1916 412.354 43.0938 410.852 43.0031C410.435 42.9775 410.06 43.1151 410.006 43.3094C409.955 43.5023 410.245 43.6809 410.659 43.7065C412.151 43.7958 413.656 43.8936 415.134 43.9957C415.17 43.9987 415.206 44 415.242 44C415.611 44 415.934 43.8723 415.992 43.6966C416.052 43.5023 415.765 43.3221 415.354 43.2937ZM340.995 43.3204C340.943 43.1215 340.569 42.9793 340.155 43.0025C338.67 43.0896 337.156 43.181 335.655 43.2768C335.242 43.303 334.952 43.4859 335.007 43.685C335.055 43.8679 335.381 44 335.752 44C335.785 44 335.818 43.9985 335.851 43.9971C337.349 43.9012 338.858 43.8098 340.337 43.724C340.75 43.6994 341.043 43.5193 340.995 43.3204ZM331.992 44.2953C331.931 44.1074 331.551 43.976 331.136 44.0037C329.644 44.1017 328.131 44.2069 326.639 44.3133C326.228 44.3437 325.943 44.5206 326.01 44.7084C326.067 44.8785 326.388 45 326.754 45C326.794 45 326.833 44.9987 326.875 44.9958C328.361 44.8896 329.868 44.7859 331.354 44.6877C331.765 44.6602 332.052 44.4846 331.992 44.2953ZM425.38 44.3441C423.889 44.2264 422.378 44.1114 420.882 44.0043C420.472 43.9751 420.077 44.0969 420.011 44.278C419.941 44.4579 420.223 44.6271 420.636 44.6576C422.123 44.7634 423.625 44.8771 425.107 44.9946C425.152 44.9986 425.198 45 425.243 45C425.602 45 425.923 44.8889 425.987 44.729C426.063 44.5491 425.79 44.3772 425.38 44.3441ZM323.989 45.2753C323.919 45.0957 323.528 44.9744 323.116 45.0046C321.626 45.1141 320.115 45.229 318.622 45.3452C318.21 45.3782 317.937 45.5499 318.013 45.7294C318.077 45.8878 318.398 46 318.756 46C318.801 46 318.847 45.9986 318.893 45.9948C320.379 45.8785 321.884 45.7637 323.367 45.6554C323.78 45.625 324.059 45.4547 323.989 45.2753ZM432.402 44.7775C430.916 44.5126 429.407 44.2553 427.912 44.0129C427.5 43.9435 427.097 44.1612 427.015 44.4954C426.933 44.8319 427.198 45.156 427.613 45.2254C429.096 45.4654 430.599 45.7228 432.076 45.985C432.13 45.9948 432.185 46 432.237 46C432.588 46 432.905 45.802 432.982 45.515C433.073 45.181 432.814 44.8517 432.402 44.7775ZM314.986 45.5123C314.907 45.1706 314.509 44.9457 314.095 45.0114C312.613 45.2468 311.105 45.4946 309.611 45.7477C309.198 45.816 308.933 46.15 309.015 46.4941C309.088 46.7925 309.407 47 309.76 47C309.812 47 309.861 46.995 309.912 46.9873C311.403 46.7369 312.905 46.4891 314.381 46.2536C314.795 46.1877 315.065 45.8566 314.986 45.5123ZM441.425 46.8583C439.949 46.5681 438.443 46.2852 436.948 46.016C436.534 45.9415 436.119 46.1343 436.021 46.4453C435.923 46.7563 436.178 47.0694 436.589 47.1437C438.074 47.4131 439.572 47.6938 441.042 47.9816C441.106 47.9932 441.171 48 441.235 48C441.576 48 441.886 47.8261 441.975 47.5637C442.082 47.2552 441.837 46.9371 441.425 46.8583ZM305.983 46.4824C305.897 46.1538 305.491 45.9447 305.079 46.0129C304.38 46.132 303.68 46.2534 302.978 46.3751C302.181 46.5138 301.387 46.655 300.596 46.7985C300.183 46.874 299.927 47.2 300.019 47.5283C300.101 47.8104 300.415 48 300.764 48C300.819 48 300.876 47.9952 300.935 47.9856C301.723 47.8421 302.511 47.7009 303.304 47.5648C304.004 47.4431 304.7 47.3214 305.397 47.2023C305.809 47.1341 306.072 46.8106 305.983 46.4824ZM449.447 47.9304C447.972 47.6181 446.469 47.3126 444.978 47.0201C444.57 46.9393 444.143 47.1097 444.029 47.3999C443.914 47.6902 444.152 47.9916 444.564 48.0724C446.045 48.3626 447.539 48.6661 449.005 48.9761C449.079 48.9914 449.153 49 449.228 49C449.562 49 449.868 48.8474 449.967 48.6092C450.09 48.3212 449.858 48.0178 449.447 47.9304ZM298.979 48.4416C298.877 48.1322 298.463 47.9405 298.051 48.0167C296.559 48.2891 295.054 48.5754 293.575 48.8641C293.163 48.945 292.918 49.2614 293.025 49.5684C293.114 49.8292 293.427 50 293.768 50C293.833 50 293.897 49.9954 293.962 49.9817C295.432 49.693 296.931 49.4113 298.414 49.1389C298.825 49.0626 299.077 48.7508 298.979 48.4416ZM457.472 49.9958C456.001 49.6636 454.5 49.3381 453.016 49.0247C452.608 48.9381 452.168 49.0865 452.037 49.3585C451.906 49.631 452.134 49.9195 452.542 50.0061C454.017 50.3174 455.508 50.6431 456.97 50.971C457.052 50.9897 457.136 51 457.22 51C457.544 51 457.847 50.8638 457.959 50.6494C458.096 50.3812 457.878 50.0886 457.472 49.9958ZM290.972 49.4016C290.857 49.11 290.431 48.9389 290.02 49.0202C288.531 49.3138 287.03 49.6186 285.557 49.9257C285.146 50.0112 284.911 50.3159 285.032 50.6077C285.13 50.8467 285.439 51 285.773 51C285.844 51 285.918 50.9936 285.992 50.9783C287.456 50.671 288.952 50.3687 290.434 50.077C290.845 49.9958 291.086 49.6954 290.972 49.4016ZM464.495 52.0567C463.033 51.7089 461.539 51.3633 460.056 51.0293C459.646 50.9375 459.195 51.0684 459.047 51.3224C458.899 51.5762 459.11 51.8556 459.517 51.9472C460.991 52.2793 462.478 52.6231 463.931 52.9687C464.022 52.9902 464.12 53 464.211 53C464.529 53 464.828 52.8809 464.948 52.6876C465.103 52.4356 464.901 52.1523 464.495 52.0567ZM281.965 51.3659C281.837 51.0925 281.402 50.9381 280.991 51.0236C279.5 51.3346 278 51.658 276.534 51.9816C276.126 52.0733 275.905 52.3676 276.039 52.6409C276.148 52.8602 276.45 53 276.777 53C276.858 53 276.942 52.9915 277.023 52.9728C278.479 52.6516 279.973 52.3302 281.454 52.0211C281.862 51.9335 282.092 51.6414 281.965 51.3659ZM274.957 53.3351C274.812 53.0742 274.364 52.9368 273.956 53.0283C272.478 53.355 270.985 53.6935 269.513 54.0342C269.109 54.1297 268.898 54.4146 269.049 54.6734C269.165 54.8745 269.463 55 269.783 55C269.874 55 269.965 54.99 270.053 54.9701C271.515 54.6296 273.002 54.293 274.474 53.9684C274.882 53.8767 275.098 53.594 274.957 53.3351ZM473.518 54.1107C472.056 53.7452 470.569 53.3833 469.097 53.0344C468.689 52.9379 468.224 53.0511 468.059 53.2888C467.893 53.5263 468.09 53.7972 468.498 53.8937C469.96 54.2409 471.438 54.601 472.891 54.9629C472.993 54.989 473.098 55 473.203 55C473.512 55 473.805 54.8959 473.936 54.7198C474.108 54.484 473.923 54.2111 473.518 54.1107ZM265.946 55.3052C265.788 55.0598 265.332 54.9381 264.923 55.0313C263.447 55.3738 261.959 55.7274 260.492 56.0831C260.087 56.182 259.894 56.4577 260.059 56.7013C260.182 56.8876 260.477 57 260.79 57C260.892 57 260.99 56.9885 261.088 56.9637C262.545 56.6101 264.027 56.2581 265.493 55.9196C265.902 55.8245 266.105 55.5506 265.946 55.3052ZM480.54 56.1587C479.088 55.7803 477.607 55.402 476.14 55.0397C475.733 54.939 475.256 55.0362 475.072 55.2589C474.888 55.4818 475.068 55.7433 475.475 55.8439C476.933 56.2064 478.404 56.5793 479.846 56.9575C479.959 56.9858 480.078 57 480.194 57C480.495 57 480.785 56.9063 480.92 56.749C481.114 56.5279 480.943 56.2647 480.54 56.1587ZM258.936 57.277C258.763 57.0456 258.296 56.9381 257.887 57.0365C256.422 57.39 254.937 57.7584 253.475 58.1285C253.072 58.2307 252.89 58.4986 253.069 58.7302C253.203 58.8997 253.494 59 253.801 59C253.91 59 254.019 58.9873 254.124 58.9618C255.577 58.5934 257.055 58.2269 258.514 57.8751C258.92 57.7767 259.109 57.5088 258.936 57.277ZM488.561 59.2048C487.111 58.8115 485.639 58.4214 484.183 58.045C483.781 57.9403 483.286 58.0247 483.087 58.2325C482.884 58.4417 483.048 58.695 483.45 58.7997C484.896 59.1728 486.362 59.5611 487.802 59.9511C487.923 59.9849 488.054 60 488.182 60C488.476 60 488.761 59.9173 488.904 59.7738C489.117 59.5678 488.963 59.313 488.561 59.2048ZM250.925 59.2524C250.734 59.0338 250.255 58.9393 249.848 59.0407C248.389 59.4079 246.911 59.7871 245.455 60.1699C245.054 60.2746 244.885 60.5369 245.083 60.7536C245.222 60.9091 245.51 61 245.811 61C245.927 61 246.05 60.9843 246.163 60.9547C247.61 60.5753 249.081 60.1978 250.531 59.8342C250.935 59.7312 251.113 59.4725 250.925 59.2524ZM495.583 61.246C494.145 60.8401 492.68 60.4387 491.231 60.0507C490.83 59.9423 490.325 60.0135 490.102 60.2092C489.882 60.4049 490.029 60.6508 490.431 60.7592C491.87 61.1442 493.324 61.5439 494.756 61.9466C494.886 61.9821 495.028 62 495.168 62C495.457 62 495.736 61.9272 495.889 61.7976C496.118 61.6035 495.982 61.3578 495.583 61.246ZM242.912 62.23C242.706 62.0232 242.215 61.941 241.808 62.045C240.354 62.425 238.883 62.8166 237.435 63.2083C237.036 63.3176 236.885 63.5714 237.095 63.7765C237.242 63.9194 237.527 64 237.819 64C237.949 64 238.08 63.9849 238.202 63.9513C239.64 63.5614 241.104 63.1731 242.552 62.7947C242.955 62.6905 243.115 62.4367 242.912 62.23ZM502.606 64.2835C501.187 63.8716 499.731 63.4582 498.279 63.0555C497.881 62.9452 497.364 63.0043 497.121 63.1877C496.881 63.371 497.009 63.6104 497.408 63.7207C498.85 64.1219 500.295 64.5321 501.704 64.9409C501.845 64.9814 502.001 65 502.153 65C502.433 65 502.707 64.9362 502.869 64.8197C503.119 64.6379 503 64.3969 502.606 64.2835ZM235.898 64.2095C235.676 64.0135 235.171 63.9423 234.769 64.0507C233.315 64.4408 231.851 64.8425 230.416 65.244C230.018 65.3557 229.882 65.6017 230.111 65.796C230.264 65.9271 230.543 66 230.832 66C230.971 66 231.114 65.9821 231.243 65.9465C232.671 65.5467 234.125 65.1467 235.569 64.7598C235.971 64.6513 236.117 64.4052 235.898 64.2095ZM510.63 67.9762C509.209 67.3408 507.765 66.7078 506.334 66.0925C505.936 65.9219 505.403 65.9938 505.141 66.2544C504.881 66.5124 504.991 66.8603 505.39 67.0311C506.809 67.6417 508.246 68.2703 509.656 68.901C509.804 68.9687 509.973 69 510.141 69C510.416 69 510.684 68.9146 510.849 68.7574C511.118 68.5015 511.018 68.1512 510.63 67.9762ZM228.88 67.1907C228.641 67.0046 228.126 66.9453 227.725 67.0548C226.287 67.4546 224.828 67.8656 223.4 68.2766C223.003 68.3907 222.881 68.6312 223.127 68.8157C223.285 68.9345 223.562 69 223.845 69C223.997 69 224.148 68.9814 224.286 68.9407C225.711 68.5312 227.156 68.1234 228.591 67.7266C228.988 67.6157 229.12 67.3765 228.88 67.1907ZM516.649 70.022C515.239 69.3735 513.806 68.7273 512.386 68.1007C511.993 67.9271 511.447 67.9836 511.163 68.2263C510.883 68.4692 510.973 68.8097 511.366 68.9833C512.775 69.6056 514.202 70.2475 515.601 70.8936C515.758 70.9652 515.941 71 516.123 71C516.393 71 516.656 70.9241 516.828 70.7808C517.115 70.5424 517.034 70.2017 516.649 70.022ZM220.863 69.2603C220.607 68.9975 220.08 68.9205 219.68 69.0903C218.245 69.7044 216.798 70.3323 215.378 70.962C214.988 71.1365 214.881 71.4879 215.145 71.7483C215.309 71.9117 215.58 72 215.857 72C216.018 72 216.185 71.9681 216.329 71.9025C217.742 71.2772 219.18 70.6517 220.607 70.0444C221.004 69.8744 221.12 69.5231 220.863 69.2603ZM523.666 74.0659C522.267 73.4049 520.847 72.7479 519.441 72.1099C519.051 71.9314 518.489 71.9756 518.186 72.2044C517.885 72.4329 517.957 72.7625 518.347 72.9388C519.742 73.5727 521.154 74.2277 522.546 74.8845C522.71 74.9622 522.907 75 523.104 75C523.365 75 523.626 74.9329 523.801 74.8047C524.112 74.5781 524.052 74.2485 523.666 74.0659ZM214.846 72.2348C214.571 71.9867 214.029 71.9251 213.636 72.0986C212.21 72.7225 210.773 73.3636 209.361 74.0051C208.971 74.1809 208.884 74.5258 209.163 74.7716C209.333 74.9208 209.601 75 209.872 75C210.046 75 210.223 74.965 210.376 74.8968C211.782 74.2578 213.212 73.6206 214.627 72.9992C215.021 72.828 215.118 72.4852 214.846 72.2348ZM531.686 77.1057C530.308 76.4397 528.901 75.7717 527.502 75.1177C527.114 74.9384 526.536 74.967 526.211 75.1829C525.89 75.3987 525.941 75.7186 526.328 75.8999C527.721 76.5498 529.121 77.2138 530.488 77.8758C530.659 77.9592 530.874 78 531.087 78C531.343 78 531.595 77.9408 531.777 77.8247C532.107 77.6128 532.066 77.291 531.686 77.1057ZM207.823 76.2131C207.53 75.9785 206.977 75.9296 206.584 76.1065C205.176 76.7377 203.748 77.39 202.343 78.0448C201.957 78.2239 201.886 78.5587 202.184 78.7909C202.357 78.9276 202.619 79 202.885 79C203.072 79 203.264 78.9638 203.426 78.8869C204.821 78.2388 206.241 77.5904 207.643 76.9594C208.036 76.7846 208.117 76.4497 207.823 76.2131ZM536.703 81.1442C535.339 80.4664 533.944 79.7887 532.561 79.127C532.176 78.9447 531.585 78.9604 531.241 79.1627C530.893 79.3667 530.927 79.6799 531.308 79.8641C532.685 80.5198 534.072 81.1935 535.429 81.8672C535.608 81.9564 535.837 82 536.068 82C536.315 82 536.565 81.9486 536.749 81.8435C537.1 81.6434 537.081 81.3304 536.703 81.1442ZM199.802 79.1943C199.492 78.9705 198.923 78.9353 198.536 79.1135C197.13 79.7583 195.716 80.4221 194.327 81.0816C193.941 81.264 193.891 81.5916 194.208 81.8114C194.385 81.936 194.641 82 194.9 82C195.103 82 195.308 81.9607 195.477 81.8799C196.855 81.2247 198.266 80.5652 199.661 79.9243C200.051 79.7438 200.113 79.4184 199.802 79.1943ZM194.781 83.1766C194.45 82.9643 193.87 82.9401 193.483 83.122C192.093 83.7749 190.692 84.4458 189.309 85.1168C188.931 85.3006 188.893 85.6201 189.232 85.8303C189.412 85.9436 189.666 86 189.92 86C190.137 86 190.353 85.9575 190.53 85.8728C191.902 85.2056 193.296 84.5389 194.678 83.888C195.064 83.7083 195.108 83.3889 194.781 83.1766ZM541.815 85.1775C540.914 84.4918 539.995 83.8065 539.081 83.1365C538.829 82.9512 538.425 82.9548 538.18 83.1461C537.935 83.3393 537.94 83.6443 538.193 83.8296C539.102 84.4958 540.015 85.1775 540.911 85.859C541.036 85.9537 541.2 86 541.363 86C541.526 86 541.687 85.9537 541.812 85.859C542.062 85.6716 542.062 85.3666 541.815 85.1775ZM185.836 87.1607C185.601 86.9593 185.206 86.9455 184.951 87.1288C184.033 87.7915 183.105 88.4698 182.197 89.1481C181.944 89.3357 181.934 89.647 182.172 89.8442C182.294 89.9468 182.459 90 182.624 90C182.78 90 182.935 89.9546 183.055 89.864C183.96 89.1914 184.881 88.515 185.796 87.8564C186.052 87.6731 186.069 87.3596 185.836 87.1607ZM547.825 89.2082C546.931 88.5142 546.024 87.8204 545.125 87.1453C544.874 86.9569 544.461 86.951 544.199 87.1319C543.941 87.3111 543.933 87.611 544.181 87.7976C545.075 88.469 545.977 89.159 546.866 89.8491C546.994 89.9491 547.169 90 547.344 90C547.504 90 547.663 89.9585 547.789 89.8737C548.056 89.6984 548.071 89.3984 547.825 89.2082ZM180.817 91.1457C180.572 90.9547 180.168 90.9509 179.915 91.1379C179.008 91.8046 178.088 92.4929 177.186 93.1792C176.938 93.3678 176.938 93.6724 177.188 93.8592C177.313 93.9538 177.477 94 177.638 94C177.804 94 177.968 93.9518 178.093 93.8574C178.99 93.1752 179.905 92.4911 180.807 91.8259C181.06 91.6408 181.065 91.3365 180.817 91.1457ZM552.837 93.2363C551.957 92.5374 551.061 91.8367 550.171 91.1524C549.924 90.9642 549.501 90.9477 549.224 91.1174C548.948 91.2871 548.924 91.5784 549.17 91.7685C550.058 92.449 550.949 93.1442 551.823 93.8395C551.954 93.9447 552.142 94 552.33 94C552.485 94 552.641 93.9629 552.767 93.8874C553.049 93.7194 553.078 93.43 552.837 93.2363ZM173.799 95.132C173.54 94.9509 173.127 94.9568 172.876 95.1454C171.967 95.8266 171.058 96.5208 170.175 97.2055C169.929 97.3962 169.945 97.6945 170.209 97.8716C170.334 97.9566 170.493 98 170.653 98C170.828 98 171.003 97.9489 171.131 97.849C172.011 97.168 172.916 96.4773 173.817 95.7981C174.068 95.6113 174.06 95.3113 173.799 95.132ZM559.846 98.2643C558.982 97.5595 558.098 96.8529 557.216 96.1622C556.974 95.9706 556.539 95.9454 556.247 96.1044C555.955 96.2654 555.916 96.5491 556.161 96.7406C557.035 97.4294 557.916 98.1325 558.775 98.832C558.913 98.9422 559.111 99 559.312 99C559.464 99 559.615 98.9676 559.745 98.8989C560.04 98.7433 560.086 98.4579 559.846 98.2643ZM169.781 99.1186C169.505 98.9483 169.083 98.9631 168.837 99.1519C167.942 99.8385 167.044 100.538 166.165 101.232C165.922 101.424 165.951 101.717 166.229 101.885C166.355 101.963 166.513 102 166.667 102C166.855 102 167.039 101.946 167.17 101.843C168.046 101.151 168.939 100.455 169.829 99.7717C170.075 99.5829 170.053 99.2908 169.781 99.1186ZM563.858 102.289C563.005 101.582 562.134 100.868 561.265 100.172C561.027 99.9782 560.579 99.9427 560.274 100.094C559.965 100.244 559.909 100.523 560.149 100.716C561.013 101.409 561.879 102.119 562.728 102.823C562.867 102.938 563.079 103 563.292 103C563.441 103 563.592 102.97 563.719 102.91C564.03 102.763 564.093 102.484 563.858 102.289ZM162.76 103.107C162.469 102.946 162.04 102.969 161.794 103.16C160.916 103.849 160.027 104.554 159.157 105.257C158.916 105.449 158.957 105.736 159.25 105.895C159.376 105.965 159.532 106 159.685 106C159.882 106 160.076 105.942 160.213 105.833C161.077 105.135 161.961 104.432 162.836 103.747C163.082 103.556 163.047 103.269 162.76 103.107ZM569.867 107.313C569.031 106.601 568.172 105.883 567.318 105.18C567.079 104.985 566.625 104.941 566.299 105.084C565.976 105.226 565.903 105.498 566.139 105.693C566.989 106.392 567.843 107.105 568.676 107.815C568.818 107.935 569.043 108 569.273 108C569.418 108 569.564 107.976 569.689 107.922C570.018 107.782 570.1 107.51 569.867 107.313ZM158.737 108.098C158.434 107.944 157.995 107.975 157.754 108.167C156.882 108.863 156.005 109.574 155.148 110.28C154.91 110.475 154.966 110.757 155.271 110.907C155.4 110.97 155.551 111 155.7 111C155.91 111 156.117 110.941 156.255 110.828C157.109 110.124 157.981 109.417 158.846 108.725C159.088 108.532 159.04 108.251 158.737 108.098ZM574.878 111.335C574.053 110.616 573.207 109.894 572.37 109.187C572.136 108.991 571.672 108.942 571.33 109.074C570.985 109.208 570.898 109.474 571.129 109.669C571.963 110.372 572.802 111.091 573.621 111.806C573.765 111.932 574.005 112 574.251 112C574.393 112 574.533 111.976 574.662 111.93C575.008 111.799 575.103 111.534 574.878 111.335ZM152.714 112.087C152.396 111.943 151.947 111.982 151.709 112.175C150.844 112.88 149.98 113.596 149.138 114.302C148.905 114.499 148.974 114.773 149.295 114.917C149.422 114.974 149.572 115 149.718 115C149.939 115 150.158 114.938 150.298 114.821C151.135 114.117 151.996 113.405 152.855 112.705C153.094 112.509 153.031 112.235 152.714 112.087ZM578.887 116.358C578.076 115.633 577.25 114.906 576.427 114.197C576.198 114 575.721 113.94 575.359 114.066C574.997 114.191 574.892 114.451 575.121 114.649C575.938 115.354 576.761 116.077 577.568 116.797C577.714 116.929 577.967 117 578.227 117C578.367 117 578.503 116.98 578.63 116.938C578.995 116.816 579.109 116.555 578.887 116.358ZM148.688 117.08C148.358 116.941 147.898 116.988 147.663 117.184C146.814 117.889 145.96 118.61 145.129 119.322C144.899 119.52 144.985 119.789 145.32 119.925C145.447 119.976 145.591 120 145.736 120C145.971 120 146.201 119.934 146.343 119.813C147.171 119.102 148.019 118.386 148.864 117.685C149.1 117.489 149.02 117.219 148.688 117.08ZM583.896 121.378C583.107 120.655 582.299 119.923 581.487 119.205C581.264 119.006 580.771 118.941 580.394 119.058C580.015 119.175 579.886 119.43 580.11 119.628C580.918 120.343 581.723 121.07 582.506 121.79C582.653 121.925 582.925 122 583.203 122C583.337 122 583.471 121.983 583.596 121.947C583.979 121.832 584.113 121.578 583.896 121.378ZM585.929 125.397C585.354 124.672 584.759 123.938 584.164 123.214C584 123.014 583.623 122.942 583.323 123.05C583.023 123.159 582.912 123.409 583.075 123.608C583.668 124.328 584.26 125.058 584.831 125.781C584.942 125.921 585.158 126 585.381 126C585.478 126 585.577 125.985 585.669 125.954C585.971 125.847 586.088 125.598 585.929 125.397ZM590.936 131.223C590.378 130.252 589.799 129.268 589.216 128.298C589.056 128.032 588.671 127.923 588.352 128.058C588.036 128.194 587.91 128.519 588.069 128.786C588.648 129.752 589.224 130.731 589.779 131.695C589.889 131.888 590.118 132 590.357 132C590.45 132 590.548 131.983 590.638 131.946C590.956 131.816 591.09 131.491 590.936 131.223ZM5.34452 131.269C3.86522 131.171 2.35005 131.082 0.834567 131.002C0.418108 130.98 0.0466292 131.126 0.00448003 131.327C-0.0405 131.531 0.258319 131.712 0.671632 131.734C2.17202 131.813 3.67806 131.901 5.1451 131.997C5.17844 132 5.21179 132 5.24481 132C5.61912 132 5.94216 131.866 5.99343 131.682C6.04785 131.48 5.75815 131.295 5.34452 131.269ZM14.3819 132.347C12.9 132.225 11.3846 132.11 9.87827 132.005C9.46531 131.974 9.07639 132.098 9.00994 132.277C8.94285 132.456 9.22228 132.626 9.6384 132.655C11.1295 132.759 12.6326 132.872 14.0997 132.993C14.1481 132.997 14.1936 133 14.2424 133C14.5974 133 14.9164 132.889 14.9863 132.731C15.0651 132.552 14.7949 132.381 14.3819 132.347ZM21.4217 133.834C19.9449 133.545 18.4316 133.27 16.9302 133.014C16.5168 132.943 16.1091 133.147 16.0175 133.464C15.9284 133.784 16.1889 134.102 16.6026 134.171C18.0884 134.424 19.5835 134.697 21.0479 134.981C21.1092 134.993 21.1734 135 21.2347 135C21.5779 135 21.8904 134.82 21.9763 134.552C22.0804 134.235 21.8323 133.912 21.4217 133.834ZM30.4604 134.957C28.9958 134.63 27.491 134.316 25.9892 134.022C25.5767 133.938 25.1486 134.103 25.0302 134.387C24.9126 134.671 25.1486 134.966 25.5608 135.047C27.0471 135.34 28.5367 135.651 29.9855 135.974C30.0634 135.991 30.1439 136 30.2247 136C30.5506 136 30.8542 135.854 30.9629 135.628C31.0932 135.348 30.8698 135.047 30.4604 134.957ZM594.942 136.249C594.407 135.282 593.847 134.293 593.277 133.309C593.121 133.041 592.725 132.926 592.388 133.05C592.053 133.174 591.906 133.49 592.063 133.76C592.629 134.736 593.186 135.72 593.719 136.681C593.828 136.882 594.072 137 594.329 137C594.42 137 594.511 136.985 594.6 136.955C594.94 136.835 595.092 136.518 594.942 136.249ZM38.5047 137.068C37.0429 136.708 35.5463 136.358 34.0559 136.029C33.6457 135.938 33.1943 136.069 33.0456 136.321C32.9008 136.572 33.112 136.849 33.5226 136.94C34.9939 137.265 36.4714 137.609 37.9177 137.966C38.0122 137.989 38.1132 138 38.2112 138C38.5238 138 38.8205 137.884 38.9436 137.697C39.1048 137.449 38.909 137.166 38.5047 137.068ZM46.5498 139.164C45.1052 138.777 43.619 138.399 42.1361 138.038C41.7287 137.939 41.2505 138.039 41.0697 138.261C40.8886 138.483 41.0727 138.743 41.4798 138.842C42.9439 139.198 44.4106 139.571 45.8359 139.954C45.9487 139.984 46.0716 140 46.1915 140C46.4885 140 46.776 139.908 46.9181 139.754C47.1121 139.535 46.9504 139.272 46.5498 139.164ZM597.951 141.278C597.447 140.318 596.908 139.324 596.351 138.324C596.199 138.055 595.789 137.929 595.432 138.041C595.073 138.155 594.904 138.463 595.056 138.731C595.61 139.725 596.143 140.713 596.643 141.664C596.753 141.871 597.017 142 597.298 142C597.382 142 597.469 141.987 597.554 141.962C597.916 141.854 598.093 141.548 597.951 141.278ZM600.967 147.33C600.947 147.287 600.476 146.241 599.461 144.339C599.319 144.071 598.885 143.934 598.496 144.031C598.104 144.131 597.902 144.426 598.047 144.695C599.044 146.568 599.521 147.624 599.527 147.634C599.626 147.857 599.924 148 600.247 148C600.32 148 600.395 147.992 600.467 147.977C600.865 147.893 601.088 147.603 600.967 147.33Z" fill="black"/>
<path fill-rule="evenodd" clip-rule="evenodd" d="M281.114 161L280 160.77L285.38 140.232C285.725 138.917 287.027 138 288.544 138H296V139.016H288.544C287.56 139.016 286.717 139.61 286.494 140.463L281.114 161Z" fill="#A8D3F1"/>
<path fill-rule="evenodd" clip-rule="evenodd" d="M281.932 162L281 161.618L290.836 133.133C291.277 131.856 292.413 131 293.663 131H301V132.085H293.663C292.825 132.085 292.063 132.659 291.768 133.515L281.932 162Z" fill="white"/>
<path fill-rule="evenodd" clip-rule="evenodd" d="M297 133C295.895 133 295 135.91 295 139.501C295 143.09 295.895 146 297 146V133Z" fill="#A8D3F1"/>
<path fill-rule="evenodd" clip-rule="evenodd" d="M310 131.5C310 136.747 308.209 141 306 141C303.791 141 302 136.747 302 131.5C302 126.253 303.791 122 306 122C308.209 122 310 126.253 310 131.5Z" fill="white"/>
<mask id="mask1_0_10" style="mask-type:alpha" maskUnits="userSpaceOnUse" x="198" y="283" width="76" height="76">
<path fill-rule="evenodd" clip-rule="evenodd" d="M198.863 283.72H273.94V358.339H198.863V283.72Z" fill="white"/>
</mask>
<g mask="url(#mask1_0_10)">
<path fill-rule="evenodd" clip-rule="evenodd" d="M236.401 343.95C223.665 343.95 213.341 333.687 213.341 321.03C213.341 308.372 223.665 298.11 236.401 298.11C249.137 298.11 259.461 308.372 259.461 321.03C259.461 333.687 249.137 343.95 236.401 343.95ZM236.401 283.72C215.669 283.72 198.863 300.423 198.863 321.03C198.863 341.635 215.669 358.339 236.401 358.339C257.134 358.339 273.94 341.635 273.94 321.03C273.94 300.423 257.134 283.72 236.401 283.72Z" fill="black"/>
</g>
<path fill-rule="evenodd" clip-rule="evenodd" d="M242 322C242 325.866 238.865 329 234.999 329C231.134 329 228 325.866 228 322C228 318.133 231.134 315 234.999 315C238.865 315 242 318.133 242 322Z" fill="#2149FE"/>
<path fill-rule="evenodd" clip-rule="evenodd" d="M444 322C444 325.866 440.865 329 437.001 329C433.135 329 430 325.866 430 322C430 318.133 433.135 315 437.001 315C440.865 315 444 318.133 444 322Z" fill="#2149FE"/>
<mask id="mask2_0_10" style="mask-type:alpha" maskUnits="userSpaceOnUse" x="400" y="283" width="76" height="76">
<path fill-rule="evenodd" clip-rule="evenodd" d="M400.868 283.72H475.946V358.339H400.868V283.72Z" fill="white"/>
</mask>
<g mask="url(#mask2_0_10)">
<path fill-rule="evenodd" clip-rule="evenodd" d="M438.408 343.95C425.672 343.95 415.348 333.687 415.348 321.03C415.348 308.372 425.672 298.11 438.408 298.11C451.144 298.11 461.468 308.372 461.468 321.03C461.468 333.687 451.144 343.95 438.408 343.95ZM438.408 283.72C417.675 283.72 400.868 300.423 400.868 321.03C400.868 341.635 417.675 358.339 438.408 358.339C459.139 358.339 475.946 341.635 475.946 321.03C475.946 300.423 459.139 283.72 438.408 283.72Z" fill="black"/>
</g>
<path fill-rule="evenodd" clip-rule="evenodd" d="M262 173.001C262 178.524 266.925 183 273 183V163C266.925 163 262 167.477 262 173.001Z" fill="white"/>
<path fill-rule="evenodd" clip-rule="evenodd" d="M300.719 174.008C300.719 174.008 300.609 170.784 296.381 170.565C292.153 170.348 287.925 167.727 287.264 164.977C287.103 164.309 287.02 163.67 286.988 163.088C286.888 161.341 285.38 160 283.615 160H273.34C271.471 160 269.956 161.502 269.956 163.355V183.103C269.956 184.957 271.471 186.46 273.34 186.46H281.187C281.187 186.46 285.81 189.603 280.261 197.201C274.712 204.797 250.005 237.022 243.399 248.286C236.792 259.552 236 271.865 236 271.865L241.284 293.609L275.109 312.472L285.416 322.038C286.773 323.298 288.563 324 290.422 324H402.74V306.971H491C491 306.971 485.451 272.912 448.455 251.168H365.746C365.746 251.168 379.839 266.363 376.888 287.584C373.938 308.805 352.268 315.354 343.285 315.354H301.005C289.643 315.354 275.636 293.086 274.315 270.031C272.994 246.977 281.009 226.979 290.7 213.661C296.836 205.228 301.533 196.938 302.061 190.389C302.59 183.839 300.719 174.008 300.719 174.008Z" fill="#2149FE"/>
<path fill-rule="evenodd" clip-rule="evenodd" d="M497.696 299H475.304C472.927 299 471 300.791 471 303C471 305.209 472.927 307 475.304 307H497.696C500.073 307 502 305.209 502 303C502 300.791 500.073 299 497.696 299Z" fill="#00081A"/>
<mask id="mask3_0_10" style="mask-type:alpha" maskUnits="userSpaceOnUse" x="189" y="271" width="94" height="46">
<path fill-rule="evenodd" clip-rule="evenodd" d="M189 271.087H282.739V316.961H189V271.087Z" fill="white"/>
</mask>
<g mask="url(#mask3_0_10)">
<path fill-rule="evenodd" clip-rule="evenodd" d="M235.869 271.087C209.984 271.087 189 291.626 189 316.961H282.738C282.738 291.626 261.754 271.087 235.869 271.087Z" fill="#1D3ED7"/>
</g>
<path fill-rule="evenodd" clip-rule="evenodd" d="M486 320H392.918C392.918 320 380.691 303.051 388.747 283.832C399.436 258.326 431.046 262.776 449.037 273.572C467.028 284.367 480.263 304.075 486 320Z" fill="#1D3ED7"/>
<path fill-rule="evenodd" clip-rule="evenodd" d="M366.663 254.879L364.386 258.008C363.934 258.63 363.199 259 362.415 259C361.081 259 360 257.948 360 256.652V239.203C360 238.683 360.433 238.261 360.968 238.261H412.003C420.623 238.261 428.296 235.501 432.004 232.538C433.176 231.602 434.943 231.927 435.695 233.208C437.814 236.818 440.229 243.896 434.113 252.362C433.93 252.613 433.626 252.765 433.311 252.765H370.865C369.195 252.765 367.627 253.553 366.663 254.879Z" fill="#00081A"/>
<path fill-rule="evenodd" clip-rule="evenodd" d="M464.418 304H404.582C403.708 304 403 304.671 403 305.5C403 306.328 403.708 307 404.582 307H464.418C465.291 307 466 306.328 466 305.5C466 304.671 465.291 304 464.418 304Z" fill="#D9DBE7"/>
<path fill-rule="evenodd" clip-rule="evenodd" d="M446.469 296H404.532C403.685 296 403 296.671 403 297.499C403 298.329 403.685 299 404.532 299H446.469C447.315 299 448 298.329 448 297.499C448 296.671 447.315 296 446.469 296Z" fill="#D9DBE7"/>
<path fill-rule="evenodd" clip-rule="evenodd" d="M434.344 288H404.657C403.741 288 403 288.67 403 289.499C403 290.328 403.741 291 404.657 291H434.344C435.259 291 436 290.328 436 289.499C436 288.67 435.259 288 434.344 288Z" fill="#D9DBE7"/>
<path fill-rule="evenodd" clip-rule="evenodd" d="M441 251H502V212H441V251Z" fill="#8CC27B"/>
<path fill-rule="evenodd" clip-rule="evenodd" d="M449 211H491V188H449V211Z" fill="#80BA6E"/>
<path fill-rule="evenodd" clip-rule="evenodd" d="M458.551 252C458.525 252 458.497 251.998 458.47 251.993C458.169 251.952 457.961 251.69 458.006 251.404L467.907 188.443C467.951 188.16 468.238 187.965 468.531 188.005C468.831 188.046 469.039 188.31 468.994 188.594L459.093 251.557C459.054 251.814 458.819 252 458.551 252Z" fill="black"/>
<path fill-rule="evenodd" clip-rule="evenodd" d="M484.45 252C484.183 252 483.947 251.814 483.907 251.557L474.006 188.594C473.961 188.31 474.169 188.047 474.47 188.005C474.763 187.964 475.049 188.16 475.093 188.443L484.994 251.404C485.039 251.69 484.831 251.952 484.531 251.993C484.504 251.998 484.477 252 484.45 252Z" fill="black"/>
<path fill-rule="evenodd" clip-rule="evenodd" d="M274.856 232.488C274.856 232.488 268.835 243.664 268.078 256.724L261.081 258.1C261.081 258.1 263.87 245.356 268.866 236.143L274.856 232.488Z" fill="white"/>
<path fill-rule="evenodd" clip-rule="evenodd" d="M508.954 253H433.045C432.468 253 432 252.553 432 252C432 251.448 432.468 251 433.045 251H508.954C509.531 251 510 251.448 510 252C510 252.553 509.531 253 508.954 253Z" fill="black"/>
<path fill-rule="evenodd" clip-rule="evenodd" d="M302.884 191.62C302.835 192.218 302.503 193.051 302.393 193.672C300.824 193.868 300.003 193.951 299.334 193.996C296.291 194.192 290 186.52 290 184.22C290 182.425 296.692 176.646 301.232 174C301.596 174.889 303.48 184.535 302.884 191.62Z" fill="#E0A094"/>
<path fill-rule="evenodd" clip-rule="evenodd" d="M313.22 188.341C312.859 187.744 312.38 187.258 311.82 186.906V186.883C311.32 186.597 306.339 183.463 306.339 183.463V183.483C305.759 183.175 305.12 183 304.439 183C301.98 183 300 185.205 300 187.921C300 188.804 300.199 189.621 300.579 190.327C300.899 190.945 301.34 191.497 301.879 191.916L301.9 191.938C302.099 192.092 302.299 192.203 302.52 192.335L304.199 193.372L307.06 195.161C307.06 195.161 307.08 195.182 307.1 195.182L307.62 195.514C308.22 195.823 308.86 196 309.54 196C311.799 196 313.659 194.145 313.96 191.761C313.98 191.541 314 191.32 314 191.099C314 190.084 313.72 189.112 313.22 188.341Z" fill="#00081A"/>
<path fill-rule="evenodd" clip-rule="evenodd" d="M327.646 299H317.678C317.678 299 314.061 303.8 309.179 304.422C306.434 304.771 301.346 304.728 297.418 304.623C294.447 304.544 292 306.889 292 309.812C292 312.677 294.363 315 297.278 315H327.646C328.946 315 330 313.964 330 312.686L327.646 299Z" fill="#373737"/>
<path fill-rule="evenodd" clip-rule="evenodd" d="M329.646 301H319.679C319.679 301 316.061 305.8 311.179 306.422C308.434 306.773 303.346 306.729 299.418 306.623C296.447 306.544 294 308.89 294 311.812C294 314.677 296.363 317 299.279 317H329.646C330.946 317 332 315.964 332 314.686L329.646 301Z" fill="black"/>
<path fill-rule="evenodd" clip-rule="evenodd" d="M320 299C320.358 300.719 322.017 302 323.999 302C325.988 302 327.643 300.713 328 299H320Z" fill="#FF9580"/>
<path fill-rule="evenodd" clip-rule="evenodd" d="M403.052 215H327.385C308 215 308 234.95 308 243.358C308 251.767 314.885 299 314.885 299H329.56L334.088 243.358H389.889C401.484 243.358 408.669 230.477 403.052 215Z" fill="#232323"/>
<path fill-rule="evenodd" clip-rule="evenodd" d="M404.284 216H329.761C311 216 311 235.712 311 244.02C311 252.328 317.663 299 317.663 299H331.866L336.25 244.02H390.256C401.478 244.02 409.72 231.292 404.284 216Z" fill="#2C2C2C"/>
<path fill-rule="evenodd" clip-rule="evenodd" d="M379.822 116C379.822 116 386.046 106.722 389 98.1694C389 98.1694 375.655 81.8707 351 92.7332L379.822 116Z" fill="#DD3900"/>
<path fill-rule="evenodd" clip-rule="evenodd" d="M349.317 93.2072C349.317 93.2072 347.548 105.885 352.368 115.74C357.188 125.594 358.38 125.817 367.063 124.163L368.53 135L385 129.374C385 129.374 378.705 112.408 381.193 109.364C383.293 106.796 384.035 102.293 380.979 100.733C376.14 98.2635 372.611 103.707 372.403 105.976L370.027 97.446C370.027 97.446 353.008 91.8696 349.317 93.2072Z" fill="#FFB8AA"/>
<path fill-rule="evenodd" clip-rule="evenodd" d="M385.573 98.6516C385.63 98.667 385.69 98.6786 385.751 98.6835L412.465 100.99C412.948 101.032 413.352 100.713 413.371 100.279C413.39 99.8436 413.012 99.4599 412.532 99.4174L385.818 97.1113C385.336 97.0695 384.931 97.3872 384.912 97.8213C384.897 98.2017 385.181 98.5433 385.573 98.6516Z" fill="#8CC27B"/>
<path fill-rule="evenodd" clip-rule="evenodd" d="M389.536 98.6338L348.378 96.7767C348.378 96.7767 349.212 77.4146 367.534 77.26C385.856 77.1066 391.348 90.0224 389.536 98.6338Z" fill="#8CC27B"/>
<path fill-rule="evenodd" clip-rule="evenodd" d="M384 171.641C384 171.641 383.554 172.851 382.804 174.686C382.582 175.251 382.317 175.896 382.033 176.581C381.912 176.823 381.811 177.085 381.709 177.328C381.588 177.57 381.486 177.831 381.386 178.074C379.258 182.913 376.196 188.882 373.744 190.111C372.366 190.796 365.576 190.877 357.104 190.696C339.774 190.293 315.41 188.7 315.41 188.7C315.41 188.7 314.214 188.882 312.452 189.163C312.087 188.618 311.6 188.174 311.033 187.853V187.833C310.526 187.571 305.479 184.708 305.479 184.708V184.726C304.891 184.444 304.243 184.285 303.553 184.285C301.061 184.285 299.055 186.299 299.055 188.78C299.055 189.586 299.256 190.333 299.643 190.978C299.602 190.997 299.541 190.997 299.5 190.997C297.393 191.12 293.52 186.764 292 183.881C293.683 181.562 298.243 177.67 301.405 175.714C301.405 175.714 301.364 174.324 300.149 173.295C301.811 172.146 303.29 171.339 304.081 171.278C306.736 171.097 318.228 178.86 318.228 178.86L356.171 176.823L364.563 176.379L364.825 175.553L365.089 174.807L365.332 174.042L367.035 169L384 171.641Z" fill="#E0A094"/>
<path fill-rule="evenodd" clip-rule="evenodd" d="M362.121 214.888C362.121 214.888 357.374 165.378 362.082 147.562C366.671 130.206 381.655 123.276 390.01 134.363C398.365 145.451 395.054 163.332 395.755 177.918C397.06 205.108 404.738 211.984 405 217H362.121V214.888Z" fill="#8CC27B"/>
<path fill-rule="evenodd" clip-rule="evenodd" d="M536.289 164.5C536.289 164.5 494.953 154.225 457.4 148C438.116 144.804 415.527 144.954 409.013 143.363C395.153 139.978 384.322 134.764 384.502 128.906C384.565 126.858 420.288 117.554 436.007 116.855C465.309 115.556 550.094 118.258 555.5 117.998C555.5 117.998 544.368 124.62 541.952 131.254C540.632 134.877 526.24 140.557 527.515 146.704C528.321 150.584 538.565 164.5 538.565 164.5H536.289Z" fill="#DD3A18"/>
<path fill-rule="evenodd" clip-rule="evenodd" d="M384 173.641C384 173.641 383.738 174.367 383.275 175.537C383.195 175.778 383.074 176.02 382.973 176.302C382.893 176.545 382.772 176.786 382.672 177.049C380.679 181.968 376.814 190.616 373.816 192.11C372.447 192.794 365.886 192.895 357.593 192.713H357.574C340.365 192.31 315.89 190.718 315.89 190.718C315.89 190.718 315.024 190.859 313.696 191.06C313.717 190.859 313.737 190.657 313.737 190.457C313.737 189.529 313.455 188.642 312.952 187.937C312.59 187.391 312.106 186.947 311.543 186.626V186.605C311.04 186.343 306.028 183.48 306.028 183.48V183.5C305.444 183.218 304.801 183.057 304.116 183.057C301.641 183.057 299.648 185.073 299.648 187.552C299.648 188.36 299.848 189.105 300.232 189.749C300.553 190.316 300.996 190.819 301.54 191.201L301.561 191.222C301.761 191.363 301.962 191.464 302.184 191.584L303.874 192.533C303.612 192.572 303.352 192.593 303.11 192.634C301.761 192.815 300.655 192.956 300.09 192.997C297.454 193.178 292 186.141 292 184.024C292 183.702 292.241 183.238 292.643 182.653C294.315 180.335 298.842 176.443 301.983 174.488C303.11 173.782 304.055 173.338 304.639 173.299C307.276 173.117 318.688 180.859 318.688 180.859L356.507 178.843H356.527L364.699 178.399L365.986 174.488L366.248 173.743L366.49 172.976L367.154 171L382.812 173.461L384 173.641Z" fill="#FFB8AA"/>
<path fill-rule="evenodd" clip-rule="evenodd" d="M379.759 147.701C373.685 146.756 367.974 150.849 366.915 156.903L364 173.576L385.064 177L388.959 161.614C390.59 155.171 386.326 148.722 379.759 147.701Z" fill="#80BA6E"/>
<path fill-rule="evenodd" clip-rule="evenodd" d="M362.018 140.982V141.018L361.982 141L362.018 140.982Z" fill="#FA8B98"/>
</svg>
